<?xml version="1.0" encoding="UTF-8"?>
<svg xmlns="http://www.w3.org/2000/svg" xmlns:xlink="http://www.w3.org/1999/xlink" width="270px" height="px" viewBox="0 0 269 92" version="1.1">
<defs>
<clipPath id="clip1">
  <path d="M 0 0.402344 L 73 0.402344 L 73 69 L 0 69 Z M 0 0.402344 "/>
</clipPath>
<clipPath id="clip2">
  <path d="M 106 58 L 133 58 L 133 91.597656 L 106 91.597656 Z M 106 58 "/>
</clipPath>
<clipPath id="clip3">
  <path d="M 137 58 L 162 58 L 162 91.597656 L 137 91.597656 Z M 137 58 "/>
</clipPath>
</defs>
<g id="surface1">
<g clip-path="url(#clip1)" clip-rule="nonzero">
<path style=" stroke:none;fill-rule:nonzero;fill:rgb(10.196078%,14.117647%,21.176471%);fill-opacity:1;" d="M 4.511719 68.839844 C 2.578125 68.839844 0.964844 67.707031 0.320312 65.933594 C 0 65.449219 0 64.804688 0 64.15625 L 0 4.921875 C 0 3.632812 0.484375 2.5 1.289062 1.695312 C 2.09375 0.886719 3.382812 0.402344 4.511719 0.402344 L 67.332031 0.402344 C 67.976562 0.402344 68.621094 0.566406 69.101562 0.726562 C 71.519531 1.695312 72.644531 4.277344 71.679688 6.699219 C 71.195312 7.828125 70.230469 8.796875 69.101562 9.28125 C 68.457031 9.441406 67.976562 9.601562 67.332031 9.601562 L 9.179688 9.601562 L 9.179688 64.320312 C 9.179688 66.09375 8.054688 67.871094 6.28125 68.515625 C 5.796875 68.675781 5.15625 68.839844 4.511719 68.839844 Z M 4.511719 68.839844 "/>
</g>
<path style=" stroke:none;fill-rule:nonzero;fill:rgb(10.196078%,14.117647%,21.176471%);fill-opacity:1;" d="M 89.074219 89.175781 L 30.28125 89.175781 C 28.992188 89.175781 27.867188 88.691406 27.0625 87.882812 C 25.289062 86.109375 25.289062 83.203125 26.898438 81.429688 C 27.382812 80.945312 27.867188 80.621094 28.511719 80.296875 C 29.15625 80.136719 29.636719 79.976562 30.28125 79.976562 L 84.566406 79.976562 L 84.566406 29.941406 C 84.566406 27.359375 86.660156 25.421875 89.238281 25.421875 C 91.652344 25.421875 93.585938 27.519531 93.746094 29.941406 L 93.746094 84.65625 C 93.746094 87.238281 91.652344 89.175781 89.074219 89.175781 Z M 89.074219 89.175781 "/>
<path style=" stroke:none;fill-rule:nonzero;fill:rgb(10.196078%,14.117647%,21.176471%);fill-opacity:1;" d="M 59.761719 74.972656 C 59.921875 74.808594 59.921875 74.808594 59.761719 74.972656 L 59.921875 74.648438 C 59.921875 74.488281 59.761719 74.488281 59.597656 74.648438 L 59.761719 74.972656 C 59.4375 74.808594 59.4375 74.808594 59.761719 74.972656 C 59.597656 74.972656 59.597656 74.972656 59.761719 74.972656 Z M 59.761719 74.972656 "/>
<path style=" stroke:none;fill-rule:nonzero;fill:rgb(10.196078%,14.117647%,21.176471%);fill-opacity:1;" d="M 46.390625 68.675781 C 43.8125 68.675781 41.878906 66.578125 41.878906 64.15625 L 41.878906 45.433594 C 41.878906 42.851562 43.972656 40.914062 46.390625 40.914062 L 65.238281 40.914062 C 67.8125 40.914062 69.746094 43.015625 69.746094 45.433594 C 69.746094 48.015625 67.652344 49.953125 65.238281 49.953125 L 50.902344 49.953125 L 50.902344 64.15625 C 50.902344 66.742188 48.804688 68.675781 46.390625 68.675781 Z M 46.390625 68.675781 "/>
<path style=" stroke:none;fill-rule:nonzero;fill:rgb(10.196078%,14.117647%,21.176471%);fill-opacity:1;" d="M 73.128906 76.101562 C 71.839844 76.101562 70.714844 75.617188 69.90625 74.808594 L 45.585938 50.4375 C 43.8125 48.664062 43.8125 45.757812 45.585938 43.984375 C 47.355469 42.207031 50.257812 42.207031 52.027344 43.984375 L 76.351562 68.355469 C 78.121094 70.128906 78.121094 73.035156 76.351562 74.808594 C 76.191406 74.972656 75.867188 75.292969 75.707031 75.457031 C 74.902344 75.777344 74.097656 76.101562 73.128906 76.101562 Z M 73.128906 76.101562 "/>
<path style=" stroke:none;fill-rule:nonzero;fill:rgb(10.196078%,14.117647%,21.176471%);fill-opacity:1;" d="M 116.78125 34.136719 L 130.3125 34.136719 L 128.863281 40.59375 L 106.792969 40.59375 L 113.238281 12.992188 L 121.773438 12.992188 Z M 116.78125 34.136719 "/>
<path style=" stroke:none;fill-rule:nonzero;fill:rgb(10.196078%,14.117647%,21.176471%);fill-opacity:1;" d="M 138.847656 40.914062 C 137.558594 40.914062 136.433594 40.59375 135.304688 39.949219 C 134.179688 39.300781 133.371094 38.332031 132.726562 37.203125 C 132.082031 36.074219 131.761719 34.460938 131.761719 32.683594 C 131.761719 31.070312 131.921875 29.292969 132.40625 27.679688 C 132.890625 26.066406 133.535156 24.613281 134.5 23.324219 C 135.304688 22.03125 136.433594 20.902344 137.722656 20.257812 C 139.011719 19.449219 140.460938 19.125 142.070312 19.125 C 142.875 19.125 143.679688 19.289062 144.488281 19.609375 C 145.292969 19.933594 145.9375 20.417969 146.582031 21.0625 C 147.226562 21.707031 147.546875 22.675781 147.707031 23.808594 L 148.675781 19.609375 L 157.210938 19.609375 L 152.378906 40.59375 L 144.648438 40.59375 L 145.292969 36.558594 C 144.648438 37.847656 143.679688 38.980469 142.554688 39.785156 C 141.585938 40.59375 140.296875 40.914062 138.847656 40.914062 Z M 142.875 34.945312 C 143.519531 34.945312 144.003906 34.78125 144.488281 34.296875 C 144.96875 33.8125 145.453125 33.328125 145.777344 32.683594 C 146.097656 32.039062 146.417969 31.230469 146.582031 30.425781 C 146.742188 29.617188 146.902344 28.972656 146.902344 28.164062 C 146.902344 27.679688 146.742188 27.035156 146.582031 26.550781 C 146.417969 26.066406 146.097656 25.742188 145.777344 25.582031 C 145.453125 25.257812 144.96875 25.257812 144.488281 25.257812 C 143.84375 25.257812 143.199219 25.421875 142.714844 25.90625 C 142.230469 26.390625 141.75 26.875 141.425781 27.519531 C 141.105469 28.164062 140.78125 28.972656 140.621094 29.617188 C 140.460938 30.261719 140.460938 30.910156 140.296875 31.554688 C 140.296875 32.199219 140.296875 32.683594 140.621094 33.167969 C 140.78125 33.652344 141.105469 33.976562 141.425781 34.296875 C 141.910156 34.78125 142.394531 34.945312 142.875 34.945312 Z M 142.875 34.945312 "/>
<path style=" stroke:none;fill-rule:nonzero;fill:rgb(10.196078%,14.117647%,21.176471%);fill-opacity:1;" d="M 155.601562 40.59375 L 160.433594 19.609375 L 168.003906 19.609375 L 166.875 27.035156 L 166.554688 26.390625 C 167.199219 24.128906 168.164062 22.355469 169.613281 21.222656 C 171.066406 19.933594 172.835938 19.449219 174.929688 19.449219 C 176.378906 19.449219 177.667969 19.773438 178.636719 20.417969 C 179.601562 21.0625 180.40625 22.03125 180.730469 23.160156 C 181.050781 24.292969 181.050781 25.742188 180.730469 27.359375 L 177.667969 40.753906 L 169.132812 40.753906 L 172.03125 28.488281 C 172.191406 27.679688 172.191406 26.875 171.871094 26.390625 C 171.546875 25.90625 170.902344 25.582031 170.257812 25.582031 C 169.777344 25.582031 169.292969 25.742188 168.808594 26.066406 C 168.328125 26.390625 168.003906 26.710938 167.683594 27.359375 C 167.359375 28.003906 167.039062 28.648438 166.875 29.292969 L 164.300781 40.753906 Z M 155.601562 40.59375 "/>
<path style=" stroke:none;fill-rule:nonzero;fill:rgb(10.196078%,14.117647%,21.176471%);fill-opacity:1;" d="M 188.621094 40.914062 C 187.332031 40.914062 186.207031 40.59375 185.078125 39.949219 C 183.949219 39.300781 183.144531 38.332031 182.5 37.203125 C 181.855469 36.074219 181.535156 34.460938 181.535156 32.683594 C 181.535156 31.070312 181.695312 29.292969 182.179688 27.679688 C 182.664062 26.066406 183.304688 24.613281 184.273438 23.324219 C 185.078125 22.03125 186.207031 20.902344 187.496094 20.257812 C 188.785156 19.449219 190.234375 19.125 191.84375 19.125 C 192.648438 19.125 193.453125 19.289062 194.261719 19.609375 C 195.066406 19.933594 195.710938 20.417969 196.355469 21.0625 C 197 21.707031 197.320312 22.675781 197.480469 23.808594 L 200.542969 10.894531 L 209.078125 10.894531 L 202.3125 40.429688 L 194.582031 40.429688 L 195.226562 36.398438 C 194.582031 37.6875 193.617188 38.816406 192.488281 39.625 C 191.359375 40.59375 189.910156 40.914062 188.621094 40.914062 Z M 192.488281 34.945312 C 193.132812 34.945312 193.617188 34.78125 194.097656 34.296875 C 194.582031 33.8125 195.066406 33.328125 195.386719 32.683594 C 195.710938 32.039062 196.03125 31.230469 196.191406 30.425781 C 196.355469 29.617188 196.515625 28.972656 196.515625 28.164062 C 196.515625 27.679688 196.355469 27.035156 196.191406 26.550781 C 196.03125 26.066406 195.710938 25.742188 195.386719 25.582031 C 195.066406 25.257812 194.582031 25.257812 194.097656 25.257812 C 193.453125 25.257812 192.808594 25.421875 192.328125 25.90625 C 191.84375 26.390625 191.359375 26.875 191.039062 27.519531 C 190.394531 28.808594 190.070312 30.261719 190.070312 31.714844 C 190.070312 32.363281 190.070312 32.84375 190.394531 33.328125 C 190.554688 33.8125 190.878906 34.136719 191.199219 34.460938 C 191.523438 34.78125 192.003906 34.945312 192.488281 34.945312 Z M 192.488281 34.945312 "/>
<path style=" stroke:none;fill-rule:nonzero;fill:rgb(10.196078%,14.117647%,21.176471%);fill-opacity:1;" d="M 218.582031 19.609375 L 213.75 40.59375 L 205.214844 40.59375 L 210.046875 19.609375 Z M 215.199219 17.671875 C 213.75 17.671875 212.621094 17.351562 211.976562 16.867188 C 211.171875 16.382812 210.851562 15.414062 211.011719 14.121094 C 211.171875 12.671875 211.65625 11.703125 212.460938 11.054688 C 213.265625 10.410156 214.394531 10.25 216.003906 10.25 C 217.457031 10.25 218.582031 10.570312 219.386719 11.054688 C 220.195312 11.703125 220.515625 12.507812 220.355469 13.636719 C 220.195312 15.253906 219.710938 16.222656 218.742188 16.867188 C 217.777344 17.511719 216.648438 17.671875 215.199219 17.671875 Z M 215.199219 17.671875 "/>
<path style=" stroke:none;fill-rule:nonzero;fill:rgb(10.196078%,14.117647%,21.176471%);fill-opacity:1;" d="M 216.8125 40.59375 L 221.644531 19.609375 L 229.214844 19.609375 L 228.085938 27.035156 L 227.765625 26.390625 C 228.410156 24.128906 229.375 22.355469 230.824219 21.222656 C 232.273438 19.933594 234.046875 19.449219 236.140625 19.449219 C 237.589844 19.449219 238.878906 19.773438 239.84375 20.417969 C 240.8125 21.0625 241.617188 22.03125 241.9375 23.160156 C 242.261719 24.292969 242.261719 25.742188 241.9375 27.359375 L 238.878906 40.753906 L 230.339844 40.753906 L 233.242188 28.488281 C 233.402344 27.679688 233.402344 26.875 233.078125 26.390625 C 232.757812 25.90625 232.113281 25.582031 231.46875 25.582031 C 230.984375 25.582031 230.503906 25.742188 230.019531 26.066406 C 229.535156 26.390625 229.214844 26.710938 228.890625 27.359375 C 228.570312 28.003906 228.246094 28.648438 228.085938 29.292969 L 225.507812 40.753906 Z M 216.8125 40.59375 "/>
<path style=" stroke:none;fill-rule:nonzero;fill:rgb(10.196078%,14.117647%,21.176471%);fill-opacity:1;" d="M 250.796875 49.46875 C 249.507812 49.46875 248.222656 49.308594 247.09375 48.984375 C 245.964844 48.664062 244.839844 48.179688 243.871094 47.535156 C 242.90625 46.886719 242.261719 46.082031 241.617188 45.113281 C 241.132812 44.144531 240.8125 42.851562 240.8125 41.5625 L 249.347656 40.914062 C 249.347656 41.882812 249.507812 42.691406 249.832031 43.335938 C 250.152344 43.984375 250.796875 44.304688 251.925781 44.304688 C 252.410156 44.304688 253.054688 44.144531 253.375 43.820312 C 253.859375 43.5 254.179688 43.015625 254.503906 42.53125 C 254.824219 41.722656 255.148438 40.914062 255.308594 40.109375 L 257.082031 32.683594 L 257.402344 32.84375 C 256.917969 35.105469 256.113281 36.878906 254.984375 38.171875 C 253.699219 39.464844 252.246094 39.949219 250.316406 39.949219 C 249.027344 39.949219 247.898438 39.625 246.769531 38.980469 C 245.644531 38.332031 244.839844 37.363281 244.355469 36.234375 C 243.710938 35.105469 243.386719 33.652344 243.386719 31.878906 C 243.386719 30.261719 243.550781 28.648438 244.03125 27.195312 C 244.515625 25.742188 245.160156 24.292969 246.125 23 C 246.933594 21.871094 248.058594 20.902344 249.347656 20.09375 C 250.636719 19.449219 252.085938 18.964844 253.535156 18.964844 C 254.503906 18.964844 255.46875 19.125 256.273438 19.609375 C 257.242188 20.09375 258.046875 20.902344 258.53125 21.707031 C 259.175781 22.675781 259.335938 23.96875 259.335938 25.582031 L 258.53125 26.875 L 260.300781 19.289062 L 268.839844 19.289062 L 264.328125 38.816406 C 263.683594 41.398438 262.878906 43.5 261.75 44.949219 C 260.625 46.402344 259.175781 47.535156 257.402344 48.179688 C 255.148438 49.148438 253.054688 49.46875 250.796875 49.46875 Z M 254.019531 33.976562 C 254.824219 33.976562 255.46875 33.652344 255.953125 33.007812 C 256.597656 32.363281 256.917969 31.554688 257.242188 30.746094 C 257.5625 29.941406 257.722656 28.972656 257.722656 28.003906 C 257.722656 27.519531 257.5625 27.035156 257.402344 26.550781 C 257.242188 26.066406 256.917969 25.742188 256.597656 25.582031 C 256.273438 25.257812 255.792969 25.257812 255.308594 25.257812 C 254.503906 25.257812 253.699219 25.582031 253.214844 26.226562 C 252.570312 26.875 252.246094 27.679688 251.925781 28.488281 C 251.605469 29.292969 251.441406 30.101562 251.441406 30.910156 C 251.441406 31.878906 251.605469 32.523438 252.085938 33.167969 C 252.410156 33.652344 253.054688 33.976562 254.019531 33.976562 Z M 254.019531 33.976562 "/>
<g clip-path="url(#clip2)" clip-rule="nonzero">
<path style=" stroke:none;fill-rule:nonzero;fill:rgb(10.196078%,14.117647%,21.176471%);fill-opacity:1;" d="M 130.957031 63.511719 C 130.472656 64.15625 129.988281 64.804688 129.183594 65.609375 C 127.574219 67.386719 125.960938 69 124.03125 70.292969 C 123.0625 70.9375 122.097656 71.421875 121.128906 71.90625 C 120.324219 72.710938 119.519531 73.519531 118.390625 74.164062 C 117.425781 74.648438 116.296875 74.972656 115.332031 74.808594 C 115.007812 74.808594 114.6875 74.648438 114.367188 74.488281 C 113.882812 76.261719 113.238281 78.039062 112.753906 79.8125 C 112.109375 81.589844 111.625 83.363281 111.144531 84.816406 C 110.660156 86.269531 110.175781 87.5625 109.855469 88.691406 C 109.53125 89.820312 109.371094 90.304688 109.210938 90.628906 C 109.050781 90.789062 108.886719 90.789062 108.566406 90.949219 C 108.246094 90.949219 107.761719 91.113281 107.4375 90.949219 C 107.117188 90.949219 106.792969 90.789062 106.472656 90.789062 C 106.148438 90.628906 105.988281 90.628906 106.148438 90.464844 C 106.3125 90.304688 106.472656 89.660156 106.792969 88.691406 C 107.117188 87.5625 107.601562 86.269531 108.082031 84.65625 C 108.566406 83.042969 109.050781 81.265625 109.695312 79.328125 C 110.339844 77.394531 110.820312 75.457031 111.304688 73.519531 C 111.789062 71.582031 112.433594 69.808594 112.914062 68.191406 C 113.398438 66.578125 113.882812 65.125 114.203125 64.15625 C 114.527344 63.027344 114.847656 61.898438 115.007812 60.929688 C 115.171875 59.960938 115.332031 59.316406 115.332031 59.15625 C 115.332031 58.992188 115.652344 58.832031 115.976562 58.832031 C 116.460938 58.832031 116.78125 58.671875 117.265625 58.832031 C 117.585938 58.832031 118.070312 58.992188 118.390625 58.992188 C 118.714844 59.15625 118.875 59.15625 118.875 59.316406 C 118.714844 59.636719 118.714844 59.960938 118.714844 60.285156 C 118.714844 60.769531 118.554688 61.253906 118.554688 61.898438 C 119.199219 61.089844 120.003906 60.285156 120.808594 59.636719 C 121.613281 58.992188 122.417969 58.507812 123.546875 58.507812 C 124.675781 58.507812 125.480469 58.832031 125.800781 59.476562 C 126.125 60.285156 126.285156 61.089844 126.285156 61.898438 C 126.285156 62.867188 125.960938 63.835938 125.640625 64.640625 C 125.320312 65.609375 125.15625 66.257812 124.996094 66.578125 C 124.675781 67.222656 124.511719 67.707031 124.191406 68.355469 C 123.867188 69 123.546875 69.484375 123.222656 70.128906 C 124.675781 69.160156 126.125 68.03125 127.25 66.742188 C 128.539062 65.289062 129.828125 63.835938 130.957031 62.222656 C 131.117188 62.058594 131.277344 61.898438 131.441406 61.898438 C 131.601562 61.898438 131.921875 61.738281 132.082031 61.738281 C 132.566406 61.738281 132.726562 61.898438 132.40625 62.222656 Z M 115.816406 73.195312 C 116.296875 73.359375 116.78125 73.035156 117.425781 72.226562 C 116.621094 72.066406 115.976562 71.582031 115.492188 70.9375 L 115.007812 72.226562 C 115.007812 72.875 115.171875 73.195312 115.816406 73.195312 Z M 118.875 62.222656 C 118.714844 62.542969 118.390625 62.867188 118.230469 63.191406 L 117.585938 64.480469 C 117.425781 64.964844 117.265625 65.289062 117.105469 65.773438 C 116.941406 66.257812 116.78125 66.578125 116.621094 67.0625 C 116.460938 67.386719 116.460938 67.871094 116.460938 68.191406 C 116.460938 68.675781 116.460938 69 116.621094 69.484375 C 116.78125 69.96875 116.941406 70.292969 117.105469 70.613281 C 117.265625 70.9375 117.746094 71.257812 118.070312 71.257812 C 118.554688 70.453125 119.035156 69.644531 119.519531 68.839844 C 120.003906 68.03125 120.484375 67.0625 120.808594 66.09375 C 121.128906 65.289062 121.453125 64.480469 121.773438 63.511719 C 121.9375 62.867188 122.257812 62.058594 122.257812 61.253906 C 122.417969 60.769531 122.417969 60.285156 122.417969 59.800781 C 122.417969 59.476562 122.257812 59.316406 122.097656 59.316406 C 121.773438 59.316406 121.453125 59.476562 121.128906 59.800781 C 120.808594 60.121094 120.484375 60.285156 120.164062 60.769531 C 119.84375 61.089844 119.519531 61.414062 119.359375 61.738281 C 119.199219 61.898438 119.035156 62.058594 118.875 62.222656 Z M 118.875 62.222656 "/>
</g>
<path style=" stroke:none;fill-rule:nonzero;fill:rgb(10.196078%,14.117647%,21.176471%);fill-opacity:1;" d="M 137.238281 58.1875 C 137.722656 58.1875 138.367188 58.347656 138.6875 58.671875 C 139.011719 58.671875 139.171875 58.671875 139.492188 58.671875 C 139.816406 58.671875 140.136719 58.671875 140.460938 58.671875 C 140.78125 58.671875 140.941406 58.671875 141.265625 58.832031 C 141.425781 58.832031 141.585938 58.992188 141.585938 59.15625 C 141.265625 59.636719 141.105469 59.960938 140.941406 60.445312 C 140.621094 61.089844 140.296875 61.898438 139.976562 62.867188 C 139.65625 63.835938 139.171875 64.804688 138.847656 65.773438 C 138.527344 66.742188 138.203125 67.871094 137.882812 68.675781 C 137.558594 69.484375 137.398438 70.292969 137.398438 71.097656 C 137.238281 71.742188 137.398438 72.066406 137.558594 72.226562 C 137.722656 72.226562 138.042969 71.90625 138.6875 71.097656 C 139.332031 70.292969 140.136719 69.324219 140.941406 68.191406 C 141.75 67.0625 142.714844 65.933594 143.519531 64.804688 C 144.324219 63.671875 144.96875 62.867188 145.613281 62.222656 C 145.9375 61.898438 146.257812 61.738281 146.742188 61.738281 C 147.226562 61.738281 147.386719 61.898438 147.0625 62.222656 C 145.9375 63.996094 144.808594 65.609375 143.519531 67.386719 C 142.230469 69 141.105469 70.613281 139.976562 72.066406 C 139.816406 72.226562 139.65625 72.550781 139.492188 72.710938 C 139.171875 73.035156 139.011719 73.195312 138.6875 73.519531 C 138.367188 73.84375 138.042969 74.003906 137.722656 74.164062 C 137.398438 74.328125 137.078125 74.488281 136.753906 74.488281 C 135.628906 74.488281 134.984375 74.164062 134.660156 73.519531 C 134.339844 72.875 134.339844 72.066406 134.339844 70.9375 C 133.695312 71.90625 132.890625 72.710938 132.082031 73.359375 C 131.277344 74.164062 130.3125 74.488281 129.183594 74.648438 C 128.058594 74.648438 127.25 74.488281 126.929688 73.84375 C 126.445312 73.195312 126.285156 72.550781 126.285156 71.90625 C 126.285156 71.097656 126.285156 70.292969 126.605469 69.644531 C 126.769531 69 126.929688 68.515625 127.25 67.871094 C 127.734375 66.742188 128.378906 65.609375 129.023438 64.640625 C 129.828125 63.511719 130.632812 62.382812 131.441406 61.414062 C 132.246094 60.445312 133.371094 59.636719 134.5 58.992188 C 134.984375 58.347656 136.109375 58.023438 137.238281 58.1875 Z M 132.726562 70.453125 C 132.890625 70.292969 133.050781 69.96875 133.210938 69.644531 L 133.855469 68.675781 C 134.015625 68.355469 134.339844 68.03125 134.5 67.546875 C 134.660156 67.222656 134.820312 66.902344 134.984375 66.742188 L 135.144531 66.09375 C 135.464844 65.125 135.789062 64.320312 136.109375 63.511719 C 136.433594 62.707031 136.753906 61.898438 137.078125 61.253906 L 137.078125 61.089844 C 137.238281 60.605469 137.398438 60.121094 137.558594 59.636719 C 137.722656 59.15625 137.558594 58.832031 137.078125 58.992188 C 136.59375 58.992188 136.109375 59.316406 135.464844 59.800781 C 134.820312 60.445312 134.339844 61.089844 133.855469 61.738281 C 133.371094 62.542969 132.726562 63.351562 132.246094 64.320312 L 130.632812 67.222656 C 129.667969 69 129.183594 70.292969 128.863281 71.421875 C 128.703125 72.550781 128.863281 73.035156 129.507812 72.875 C 130.152344 72.710938 130.796875 72.390625 131.441406 71.742188 C 132.082031 71.097656 132.566406 70.777344 132.726562 70.453125 Z M 132.726562 70.453125 "/>
<g clip-path="url(#clip3)" clip-rule="nonzero">
<path style=" stroke:none;fill-rule:nonzero;fill:rgb(10.196078%,14.117647%,21.176471%);fill-opacity:1;" d="M 152.058594 58.1875 C 152.863281 58.347656 153.347656 58.507812 153.828125 58.992188 C 154.3125 58.832031 154.957031 58.992188 155.441406 58.992188 C 156.085938 59.15625 156.246094 59.316406 156.246094 59.476562 C 155.921875 60.121094 155.601562 60.769531 155.277344 61.414062 C 154.957031 62.382812 154.472656 63.351562 154.152344 64.480469 C 153.667969 65.609375 153.347656 66.742188 152.863281 68.03125 C 152.378906 69.324219 152.058594 70.453125 151.734375 71.421875 C 153.507812 70.128906 155.117188 68.515625 156.566406 66.742188 C 157.375 65.773438 158.015625 64.964844 158.660156 64.15625 C 159.304688 63.351562 159.789062 62.707031 160.113281 62.222656 C 160.273438 62.058594 160.433594 61.898438 160.59375 61.898438 C 160.753906 61.898438 161.078125 61.738281 161.238281 61.738281 C 161.722656 61.738281 161.882812 61.898438 161.5625 62.222656 C 161.078125 63.027344 160.433594 63.835938 159.949219 64.640625 L 158.339844 66.902344 C 157.375 68.191406 156.246094 69.324219 154.957031 70.453125 C 153.667969 71.421875 152.539062 72.390625 151.253906 73.195312 C 151.253906 73.195312 151.253906 73.195312 151.253906 73.359375 C 151.253906 73.359375 151.253906 73.359375 151.253906 73.519531 C 150.769531 75.777344 150.285156 77.878906 150.125 79.976562 C 149.800781 81.914062 149.480469 83.847656 148.835938 85.785156 C 148.191406 87.5625 147.386719 88.851562 146.257812 89.984375 C 145.132812 91.113281 143.519531 91.597656 141.425781 91.597656 C 140.136719 91.597656 139.332031 91.433594 138.6875 90.949219 C 138.042969 90.464844 137.558594 89.820312 137.398438 89.175781 C 137.078125 88.53125 137.078125 87.722656 137.078125 87.078125 C 137.078125 86.429688 137.078125 85.949219 137.238281 85.300781 C 137.558594 84.011719 138.042969 82.878906 138.6875 81.75 C 139.332031 80.78125 140.296875 79.8125 141.105469 78.84375 C 142.070312 77.878906 143.199219 77.230469 144.324219 76.425781 C 145.453125 75.617188 146.742188 74.972656 147.871094 74.164062 C 148.03125 73.679688 148.03125 73.195312 148.191406 72.710938 C 148.351562 72.226562 148.351562 71.90625 148.515625 71.421875 C 147.871094 72.226562 147.226562 72.875 146.417969 73.519531 C 145.613281 74.164062 144.808594 74.488281 143.84375 74.648438 C 142.714844 74.648438 141.910156 74.488281 141.585938 73.84375 C 141.105469 73.195312 140.941406 72.550781 140.941406 71.90625 C 140.941406 71.097656 140.941406 70.292969 141.265625 69.644531 C 141.425781 69 141.585938 68.515625 141.910156 67.871094 C 142.394531 66.742188 143.039062 65.609375 143.679688 64.640625 C 144.488281 63.511719 145.292969 62.382812 146.097656 61.414062 C 146.902344 60.445312 148.03125 59.636719 149.15625 58.992188 C 149.800781 58.347656 150.929688 58.023438 152.058594 58.1875 Z M 140.78125 90.464844 C 141.75 90.464844 142.554688 89.984375 143.199219 89.175781 C 143.84375 88.367188 144.488281 87.238281 144.96875 85.785156 C 145.453125 84.171875 145.9375 82.558594 146.257812 80.945312 C 146.582031 79.167969 147.0625 77.394531 147.386719 75.617188 C 145.453125 76.746094 143.679688 78.039062 141.910156 79.652344 C 140.296875 81.105469 139.171875 82.878906 138.527344 85.140625 C 138.367188 85.785156 138.367188 86.429688 138.367188 87.078125 C 138.367188 87.722656 138.367188 88.207031 138.527344 88.851562 C 138.6875 89.335938 139.011719 89.820312 139.332031 90.144531 C 139.816406 90.304688 140.296875 90.464844 140.78125 90.464844 Z M 147.546875 70.453125 C 148.03125 69.808594 148.351562 69.324219 148.675781 68.675781 C 149.15625 67.871094 149.480469 67.222656 149.800781 66.742188 L 149.964844 66.257812 C 150.285156 65.289062 150.609375 64.480469 150.929688 63.671875 C 151.253906 62.867188 151.574219 62.058594 151.894531 61.414062 L 151.894531 61.253906 C 152.058594 60.769531 152.21875 60.285156 152.378906 59.800781 C 152.539062 59.316406 152.378906 58.992188 151.894531 59.15625 C 151.414062 59.15625 150.929688 59.476562 150.285156 59.960938 C 149.640625 60.605469 149.15625 61.253906 148.675781 61.898438 C 148.191406 62.707031 147.546875 63.511719 147.0625 64.480469 L 145.453125 67.386719 C 144.488281 69.160156 144.003906 70.453125 143.679688 71.582031 C 143.359375 72.710938 143.679688 73.195312 144.324219 73.035156 C 144.96875 72.875 145.613281 72.550781 146.257812 71.90625 C 147.0625 71.097656 147.386719 70.777344 147.546875 70.453125 Z M 147.546875 70.453125 "/>
</g>
<path style=" stroke:none;fill-rule:nonzero;fill:rgb(10.196078%,14.117647%,21.176471%);fill-opacity:1;" d="M 174.285156 62.222656 C 173.964844 62.542969 173.640625 63.191406 173.160156 63.996094 C 172.675781 64.804688 172.03125 65.609375 171.226562 66.578125 C 170.421875 67.546875 169.613281 68.515625 168.808594 69.484375 C 168.003906 70.453125 167.039062 71.421875 165.910156 72.226562 C 164.945312 73.035156 163.816406 73.679688 162.6875 74.164062 C 161.5625 74.648438 160.433594 74.808594 159.304688 74.648438 C 158.179688 74.488281 157.375 74.164062 156.890625 73.519531 C 156.40625 72.875 156.085938 72.066406 155.921875 71.257812 C 155.761719 70.292969 155.921875 69.484375 156.085938 68.515625 C 156.246094 67.546875 156.730469 66.578125 157.050781 65.773438 C 157.375 65.125 157.855469 64.320312 158.5 63.351562 C 159.144531 62.382812 159.789062 61.414062 160.59375 60.605469 C 161.398438 59.800781 162.367188 58.992188 163.332031 58.507812 C 164.300781 58.023438 165.425781 57.703125 166.554688 57.703125 C 167.199219 57.703125 167.683594 57.863281 168.164062 58.1875 C 168.488281 58.347656 168.648438 58.832031 168.808594 59.15625 C 168.96875 59.636719 168.96875 59.960938 168.808594 60.445312 C 168.648438 60.929688 168.648438 61.414062 168.488281 61.738281 C 168.328125 62.382812 167.84375 63.027344 167.359375 63.996094 C 166.714844 64.964844 166.070312 65.773438 165.265625 66.742188 C 164.460938 67.707031 163.492188 68.515625 162.527344 69.324219 C 161.5625 70.128906 160.433594 70.777344 159.304688 71.257812 C 159.304688 71.742188 159.46875 72.066406 159.628906 72.550781 C 159.789062 72.875 160.113281 73.035156 160.753906 72.875 C 161.078125 72.875 161.722656 72.550781 162.367188 72.226562 C 163.171875 71.742188 163.976562 71.257812 164.621094 70.777344 C 165.425781 70.128906 166.230469 69.484375 167.039062 68.839844 C 167.683594 68.191406 168.328125 67.546875 168.96875 66.902344 L 172.675781 62.382812 C 172.996094 62.058594 173.320312 61.898438 173.804688 61.898438 C 174.449219 61.574219 174.609375 61.738281 174.285156 62.222656 Z M 160.753906 66.257812 C 160.59375 66.578125 160.433594 67.0625 160.113281 67.707031 C 159.789062 68.355469 159.628906 69.160156 159.46875 69.96875 C 160.59375 69.160156 161.5625 68.355469 162.367188 67.386719 C 163.332031 66.257812 164.300781 65.289062 165.105469 63.996094 C 165.910156 62.867188 166.394531 61.898438 166.554688 61.089844 C 166.875 60.285156 166.554688 59.800781 165.910156 59.800781 C 165.589844 59.800781 165.105469 59.960938 164.621094 60.285156 C 164.136719 60.769531 163.65625 61.253906 163.332031 61.898438 C 162.851562 62.542969 162.367188 63.351562 162.042969 63.996094 C 161.5625 64.804688 161.238281 65.609375 160.753906 66.257812 Z M 160.753906 66.257812 "/>
<path style=" stroke:none;fill-rule:nonzero;fill:rgb(10.196078%,14.117647%,21.176471%);fill-opacity:1;" d="M 192.328125 68.03125 C 192.328125 68.355469 192.164062 68.675781 192.164062 69 C 192.003906 69.484375 191.84375 69.96875 191.683594 70.453125 C 191.523438 70.9375 191.359375 71.421875 191.359375 71.90625 C 191.199219 72.390625 191.359375 72.550781 191.359375 72.550781 C 191.523438 72.550781 192.003906 72.066406 192.648438 71.257812 C 193.453125 70.453125 194.261719 69.324219 195.226562 68.191406 L 197.964844 64.804688 C 198.929688 63.671875 199.574219 62.867188 200.058594 62.222656 C 200.21875 62.058594 200.378906 61.898438 200.542969 61.898438 C 200.703125 61.898438 201.023438 61.738281 201.1875 61.738281 C 201.667969 61.738281 201.832031 61.898438 201.667969 62.222656 C 201.507812 62.542969 201.023438 63.027344 200.542969 63.835938 C 200.058594 64.640625 199.414062 65.449219 198.769531 66.417969 C 198.125 67.386719 197.320312 68.355469 196.515625 69.324219 C 195.710938 70.292969 194.902344 71.257812 194.097656 72.066406 C 193.453125 72.875 192.648438 73.519531 191.84375 74.003906 C 191.199219 74.488281 190.554688 74.808594 190.070312 74.808594 C 189.105469 74.648438 188.300781 74.488281 187.976562 74.003906 C 187.496094 73.519531 187.332031 73.035156 187.332031 72.390625 C 187.332031 71.421875 187.496094 70.453125 187.816406 69.644531 C 188.140625 68.675781 188.460938 67.546875 188.785156 66.578125 C 189.105469 65.449219 189.589844 64.480469 189.910156 63.351562 C 190.234375 62.222656 190.554688 61.253906 190.878906 60.445312 C 190.878906 60.285156 190.878906 60.121094 190.878906 59.960938 C 190.878906 59.800781 190.714844 59.800781 190.394531 59.800781 L 188.785156 61.089844 C 187.816406 61.898438 187.011719 62.867188 186.527344 63.996094 C 186.042969 65.609375 185.5625 67.386719 184.917969 69 C 184.273438 70.777344 183.628906 72.226562 182.984375 73.679688 C 182.824219 74.003906 182.664062 74.164062 182.339844 74.328125 C 182.019531 74.488281 181.535156 74.648438 181.210938 74.648438 C 180.890625 74.648438 180.40625 74.648438 180.085938 74.648438 C 179.761719 74.488281 179.441406 74.328125 179.441406 74.164062 C 179.761719 73.195312 180.246094 72.066406 180.730469 70.9375 C 181.210938 69.808594 181.695312 68.675781 182.019531 67.386719 C 182.5 66.257812 182.824219 64.964844 183.144531 63.835938 C 183.46875 62.707031 183.628906 61.574219 183.628906 60.445312 C 183.628906 60.285156 183.46875 60.121094 183.46875 59.960938 C 183.46875 59.800781 183.144531 59.800781 182.824219 59.960938 C 182.664062 59.960938 182.5 60.121094 182.179688 60.445312 C 181.855469 60.769531 181.535156 61.253906 181.210938 61.574219 C 180.890625 62.058594 180.566406 62.542969 180.246094 63.027344 C 179.925781 63.511719 179.761719 63.996094 179.441406 64.480469 C 179.117188 65.933594 178.636719 67.386719 177.992188 68.675781 C 177.347656 70.128906 176.703125 71.582031 175.898438 73.035156 C 175.734375 73.359375 175.414062 73.519531 175.089844 73.84375 C 174.609375 74.003906 174.285156 74.164062 173.804688 74.328125 C 173.480469 74.328125 172.996094 74.328125 172.675781 74.328125 C 172.351562 74.164062 172.191406 74.003906 172.191406 73.679688 C 172.675781 72.710938 172.996094 71.742188 173.480469 70.613281 C 173.964844 69.644531 174.449219 68.515625 174.769531 67.546875 C 175.089844 66.578125 175.414062 65.449219 175.734375 64.480469 C 175.898438 63.511719 176.058594 62.382812 176.058594 61.414062 C 176.058594 61.253906 176.058594 61.253906 176.058594 61.089844 C 176.058594 60.929688 175.898438 61.089844 175.574219 61.253906 C 175.414062 61.414062 175.089844 61.574219 174.929688 61.898438 C 174.769531 62.058594 174.609375 62.382812 174.449219 62.542969 C 173.964844 63.027344 173.640625 63.191406 173.160156 63.191406 C 172.675781 63.191406 172.675781 62.867188 172.996094 62.542969 C 173.320312 62.058594 173.804688 61.414062 174.285156 60.929688 C 174.769531 60.445312 175.253906 59.960938 175.574219 59.316406 C 175.898438 58.992188 176.21875 58.832031 176.542969 58.671875 C 176.863281 58.507812 177.347656 58.347656 177.667969 58.347656 C 177.992188 58.347656 178.3125 58.347656 178.636719 58.507812 C 178.957031 58.671875 179.117188 58.832031 179.28125 59.15625 C 179.441406 59.960938 179.441406 60.769531 179.441406 61.414062 C 180.246094 60.121094 181.210938 58.992188 182.5 58.1875 C 183.144531 57.703125 183.949219 57.378906 184.757812 57.378906 C 185.5625 57.378906 186.207031 57.539062 186.527344 58.1875 C 186.851562 58.507812 186.851562 58.992188 187.011719 59.476562 C 187.011719 60.121094 187.011719 60.605469 187.011719 61.253906 C 187.496094 60.605469 188.140625 59.960938 188.785156 59.316406 C 189.265625 58.832031 189.75 58.507812 190.394531 58.023438 C 190.878906 57.703125 191.359375 57.539062 191.84375 57.378906 C 192.328125 57.21875 192.808594 57.21875 193.292969 57.21875 C 193.617188 57.21875 194.097656 57.378906 194.421875 57.539062 C 194.582031 57.703125 194.742188 57.703125 194.742188 57.863281 C 194.742188 58.023438 194.902344 58.1875 194.902344 58.347656 C 194.902344 58.832031 194.902344 59.316406 194.742188 60.121094 C 194.582031 60.929688 194.261719 61.738281 194.097656 62.542969 C 193.777344 63.351562 193.617188 64.320312 193.292969 65.125 C 192.972656 65.933594 192.488281 67.222656 192.328125 68.03125 Z M 192.328125 68.03125 "/>
<path style=" stroke:none;fill-rule:nonzero;fill:rgb(10.196078%,14.117647%,21.176471%);fill-opacity:1;" d="M 206.984375 58.347656 C 207.46875 58.347656 208.113281 58.507812 208.433594 58.832031 C 208.757812 58.832031 208.917969 58.832031 209.238281 58.832031 C 209.5625 58.832031 209.882812 58.832031 210.207031 58.832031 C 210.527344 58.832031 210.691406 58.832031 211.011719 58.992188 C 211.171875 58.992188 211.335938 59.15625 211.335938 59.316406 C 211.011719 59.800781 210.851562 60.121094 210.691406 60.605469 C 210.367188 61.253906 210.046875 62.058594 209.722656 63.027344 C 209.402344 63.996094 208.917969 64.964844 208.597656 65.933594 C 208.273438 66.902344 207.953125 68.03125 207.628906 68.839844 C 207.308594 69.644531 207.144531 70.453125 207.144531 71.257812 C 206.984375 71.90625 207.144531 72.226562 207.308594 72.390625 C 207.46875 72.390625 207.789062 72.066406 208.433594 71.257812 C 209.078125 70.453125 209.882812 69.484375 210.691406 68.355469 C 211.496094 67.222656 212.460938 66.09375 213.265625 64.964844 C 214.074219 63.835938 214.714844 63.027344 215.359375 62.382812 C 215.523438 62.222656 215.683594 62.058594 215.84375 62.058594 C 216.003906 62.058594 216.328125 61.898438 216.488281 61.898438 C 216.972656 61.898438 217.132812 62.058594 216.8125 62.382812 C 215.683594 64.15625 214.554688 65.773438 213.265625 67.546875 C 211.976562 69.160156 210.851562 70.777344 209.722656 72.226562 C 209.5625 72.390625 209.402344 72.710938 209.238281 72.875 C 208.917969 73.195312 208.757812 73.359375 208.433594 73.679688 C 208.113281 74.003906 207.789062 74.164062 207.46875 74.328125 C 207.144531 74.488281 206.824219 74.648438 206.5 74.648438 C 205.375 74.648438 204.730469 74.328125 204.40625 73.679688 C 204.085938 73.035156 204.085938 72.226562 204.085938 71.097656 C 203.441406 72.066406 202.636719 72.875 201.832031 73.519531 C 201.023438 74.328125 200.058594 74.648438 198.929688 74.808594 C 197.804688 74.808594 197 74.648438 196.675781 74.003906 C 196.191406 73.359375 196.03125 72.710938 196.03125 72.066406 C 196.03125 71.257812 196.03125 70.453125 196.355469 69.808594 C 196.515625 69.160156 196.675781 68.675781 197 68.03125 C 197.480469 66.902344 198.125 65.773438 198.769531 64.804688 C 199.574219 63.671875 200.378906 62.542969 201.1875 61.574219 C 201.992188 60.605469 203.121094 59.800781 204.246094 59.15625 C 204.730469 58.507812 205.859375 58.1875 206.984375 58.347656 Z M 202.476562 70.613281 C 202.636719 70.453125 202.796875 70.128906 202.957031 69.808594 C 203.121094 69.484375 203.28125 69.160156 203.601562 68.839844 C 203.761719 68.515625 204.085938 68.191406 204.246094 67.707031 C 204.40625 67.386719 204.570312 67.0625 204.730469 66.902344 L 204.890625 66.257812 C 205.214844 65.289062 205.535156 64.480469 205.859375 63.671875 C 206.179688 62.867188 206.5 62.058594 206.824219 61.414062 L 206.824219 61.253906 C 206.984375 60.769531 207.144531 60.285156 207.308594 59.800781 C 207.46875 59.316406 207.308594 58.992188 206.824219 59.15625 C 206.339844 59.15625 205.859375 59.476562 205.214844 59.960938 C 204.570312 60.605469 204.085938 61.253906 203.601562 61.898438 C 203.121094 62.707031 202.476562 63.511719 201.992188 64.480469 L 200.378906 67.386719 C 199.414062 69.160156 198.929688 70.453125 198.609375 71.582031 C 198.449219 72.710938 198.609375 73.195312 199.253906 73.035156 C 199.898438 72.875 200.542969 72.550781 201.1875 71.90625 C 201.832031 71.257812 202.3125 70.777344 202.476562 70.613281 Z M 202.476562 70.613281 "/>
<path style=" stroke:none;fill-rule:nonzero;fill:rgb(10.196078%,14.117647%,21.176471%);fill-opacity:1;" d="M 216.328125 68.839844 C 216.003906 70.128906 215.683594 71.097656 215.523438 72.066406 C 215.359375 73.035156 215.199219 73.519531 215.199219 73.84375 C 215.039062 74.003906 214.878906 74.164062 214.554688 74.164062 C 214.074219 74.164062 213.75 74.328125 213.265625 74.164062 C 212.945312 74.164062 212.460938 74.003906 212.140625 74.003906 C 211.816406 73.84375 211.65625 73.679688 211.65625 73.519531 C 211.816406 73.035156 211.816406 72.710938 211.976562 72.226562 C 212.140625 71.582031 212.300781 70.9375 212.460938 70.128906 C 212.460938 69.484375 212.621094 68.839844 212.785156 68.191406 C 212.945312 67.546875 213.105469 66.902344 213.265625 66.09375 C 213.429688 65.289062 213.75 64.480469 214.074219 63.671875 C 214.554688 62.542969 215.039062 61.414062 215.523438 60.121094 C 216.167969 58.832031 216.648438 57.539062 217.292969 56.085938 C 217.9375 54.796875 218.421875 53.503906 219.066406 52.214844 C 219.550781 51.085938 220.03125 49.953125 220.355469 49.148438 C 220.675781 48.339844 221 47.855469 221 47.695312 C 221.160156 47.535156 221.320312 47.535156 221.644531 47.371094 C 221.964844 47.371094 222.449219 47.210938 222.769531 47.371094 C 223.09375 47.371094 223.414062 47.371094 223.898438 47.535156 C 224.21875 47.695312 224.382812 47.695312 224.21875 47.855469 C 224.058594 48.339844 223.738281 48.664062 223.574219 49.148438 C 223.253906 49.953125 222.933594 50.761719 222.449219 51.890625 C 221.964844 53.019531 221.480469 54.152344 220.835938 55.601562 C 220.355469 56.894531 219.710938 58.347656 219.226562 59.800781 C 219.710938 59.476562 220.03125 59.15625 220.355469 58.832031 C 220.675781 58.507812 221 58.1875 221.320312 58.023438 C 222.289062 57.378906 223.09375 57.21875 224.058594 57.378906 C 225.027344 57.539062 225.507812 57.863281 225.671875 58.507812 C 225.832031 58.992188 225.832031 59.800781 225.832031 60.769531 C 225.671875 61.738281 225.347656 62.707031 224.863281 63.511719 C 224.382812 64.480469 223.738281 65.289062 222.933594 65.933594 C 222.125 66.578125 221.160156 67.0625 220.03125 67.222656 C 220.355469 67.707031 220.515625 68.191406 220.835938 68.839844 C 221 69.324219 221.160156 69.808594 221.320312 70.292969 C 221.480469 70.613281 221.644531 71.097656 221.964844 71.421875 C 222.125 71.742188 222.449219 72.066406 222.933594 72.226562 C 222.933594 72.226562 223.09375 72.066406 223.414062 71.742188 C 223.738281 71.421875 224.21875 70.9375 224.703125 70.292969 C 225.1875 69.644531 225.671875 69 226.3125 68.191406 C 226.957031 67.386719 227.441406 66.578125 228.085938 65.933594 C 228.730469 65.289062 229.214844 64.480469 229.695312 63.835938 L 230.984375 62.222656 C 231.308594 61.898438 231.628906 61.738281 232.113281 61.738281 C 232.597656 61.738281 232.757812 61.898438 232.597656 62.222656 C 231.46875 63.996094 230.339844 65.609375 229.050781 67.386719 C 227.765625 69.160156 226.636719 70.613281 225.507812 72.066406 C 225.347656 72.226562 225.1875 72.390625 225.027344 72.710938 C 224.703125 73.035156 224.542969 73.359375 224.21875 73.519531 C 223.898438 73.84375 223.574219 74.003906 223.09375 74.164062 C 222.769531 74.328125 222.449219 74.488281 222.125 74.488281 C 221.160156 74.488281 220.195312 74.164062 219.710938 73.679688 C 219.066406 73.035156 218.742188 72.390625 218.421875 71.582031 C 218.097656 70.777344 217.777344 69.96875 217.617188 69.160156 C 217.457031 68.515625 217.132812 67.707031 216.972656 67.0625 C 218.421875 66.417969 219.710938 65.449219 220.835938 64.480469 C 221.804688 63.511719 222.289062 62.058594 222.125 60.445312 C 222.125 60.285156 221.964844 60.121094 221.964844 59.960938 C 221.964844 59.800781 221.804688 59.636719 221.480469 59.800781 C 221.160156 59.960938 220.675781 60.445312 219.710938 61.414062 C 218.742188 62.382812 218.097656 63.511719 217.457031 64.640625 C 217.132812 66.257812 216.8125 67.707031 216.328125 68.839844 Z M 216.328125 68.839844 "/>
<path style=" stroke:none;fill-rule:nonzero;fill:rgb(10.196078%,14.117647%,21.176471%);fill-opacity:1;" d="M 245.484375 62.222656 C 245.160156 62.542969 244.839844 63.191406 244.355469 63.996094 C 243.871094 64.804688 243.226562 65.609375 242.582031 66.578125 C 241.777344 67.546875 240.972656 68.515625 240.167969 69.484375 C 239.363281 70.453125 238.394531 71.421875 237.269531 72.226562 C 236.300781 73.035156 235.171875 73.679688 234.046875 74.164062 C 232.917969 74.648438 231.792969 74.808594 230.664062 74.648438 C 229.535156 74.488281 228.730469 74.164062 228.246094 73.519531 C 227.765625 72.875 227.441406 72.066406 227.28125 71.257812 C 227.121094 70.292969 227.28125 69.484375 227.441406 68.515625 C 227.765625 67.546875 228.085938 66.578125 228.410156 65.773438 C 228.730469 65.125 229.214844 64.320312 229.859375 63.351562 C 230.503906 62.382812 231.148438 61.414062 231.953125 60.605469 C 232.757812 59.800781 233.722656 58.992188 234.691406 58.507812 C 235.65625 58.023438 236.785156 57.703125 237.910156 57.703125 C 238.554688 57.703125 239.039062 57.863281 239.523438 58.1875 C 239.84375 58.347656 240.167969 58.832031 240.167969 59.15625 C 240.328125 59.636719 240.328125 59.960938 240.167969 60.445312 C 240.007812 60.929688 240.007812 61.414062 239.84375 61.738281 C 239.683594 62.382812 239.199219 63.027344 238.71875 63.996094 C 238.074219 64.964844 237.429688 65.773438 236.625 66.742188 C 235.816406 67.707031 234.851562 68.515625 233.886719 69.324219 C 232.917969 70.128906 231.792969 70.777344 230.664062 71.257812 C 230.664062 71.742188 230.824219 72.066406 230.984375 72.550781 C 231.148438 72.875 231.46875 73.035156 232.113281 72.875 C 232.433594 72.875 233.078125 72.550781 233.722656 72.226562 C 234.53125 71.742188 235.335938 71.257812 235.980469 70.777344 C 236.785156 70.128906 237.589844 69.484375 238.394531 68.839844 C 239.039062 68.191406 239.683594 67.546875 240.328125 66.902344 L 244.03125 62.382812 C 244.195312 62.222656 244.355469 62.058594 244.515625 62.058594 C 244.675781 61.898438 245 61.898438 245.160156 61.898438 C 245.644531 61.738281 245.804688 61.898438 245.484375 62.222656 Z M 231.953125 66.417969 C 231.792969 66.742188 231.628906 67.222656 231.308594 67.871094 C 230.984375 68.515625 230.824219 69.324219 230.664062 70.128906 C 231.792969 69.324219 232.757812 68.515625 233.5625 67.546875 C 234.53125 66.417969 235.496094 65.449219 236.300781 64.15625 C 237.105469 63.027344 237.589844 62.058594 237.75 61.253906 C 238.074219 60.445312 237.75 59.960938 237.105469 59.960938 C 236.785156 59.960938 236.300781 60.121094 235.816406 60.445312 C 235.335938 60.929688 234.851562 61.414062 234.53125 62.058594 C 234.046875 62.707031 233.5625 63.511719 233.242188 64.15625 C 232.757812 64.964844 232.433594 65.609375 231.953125 66.417969 Z M 231.953125 66.417969 "/>
<path style=" stroke:none;fill-rule:nonzero;fill:rgb(10.196078%,14.117647%,21.176471%);fill-opacity:1;" d="M 251.441406 60.929688 C 250.960938 62.058594 250.476562 63.191406 249.832031 64.15625 C 249.027344 65.449219 248.382812 66.742188 247.738281 67.871094 C 247.253906 68.839844 246.769531 69.808594 246.449219 70.9375 C 246.125 71.742188 246.449219 72.226562 247.09375 72.226562 C 247.414062 72.226562 248.058594 71.742188 248.867188 70.9375 C 249.671875 70.128906 250.476562 69.160156 251.28125 68.03125 C 252.246094 66.902344 253.054688 65.773438 253.859375 64.640625 C 254.664062 63.511719 255.308594 62.542969 255.953125 62.058594 C 256.113281 61.898438 256.273438 61.738281 256.4375 61.738281 C 256.597656 61.738281 256.917969 61.574219 257.082031 61.574219 C 257.5625 61.574219 257.722656 61.738281 257.402344 62.058594 C 256.917969 62.867188 256.273438 63.835938 255.308594 65.125 C 254.34375 66.417969 253.375 67.871094 252.410156 69.160156 C 251.441406 70.453125 250.316406 71.582031 249.1875 72.710938 C 248.058594 73.679688 246.933594 74.328125 245.644531 74.328125 C 244.675781 74.328125 244.03125 74.164062 243.710938 73.679688 C 243.386719 73.195312 243.226562 72.550781 243.386719 71.742188 C 243.550781 70.777344 243.710938 69.808594 244.195312 69 C 244.675781 68.03125 245.160156 66.902344 245.484375 65.933594 C 245.964844 64.964844 246.449219 63.996094 246.769531 63.191406 C 247.09375 62.542969 247.414062 61.898438 247.738281 61.089844 C 247.738281 60.769531 247.578125 60.769531 247.09375 60.769531 C 246.609375 60.769531 246.289062 60.929688 246.125 61.414062 C 245.964844 61.574219 245.804688 61.738281 245.644531 61.898438 C 245.484375 62.058594 245.320312 62.222656 245.160156 62.382812 C 244.675781 62.867188 244.355469 63.027344 243.871094 63.027344 C 243.386719 63.027344 243.386719 62.707031 243.710938 62.382812 L 244.03125 61.898438 C 244.515625 61.089844 244.839844 60.121094 244.839844 59.316406 C 245 58.507812 245 57.863281 244.839844 57.054688 C 244.839844 56.894531 245 56.734375 245.320312 56.734375 C 245.644531 56.570312 245.964844 56.570312 246.449219 56.410156 C 246.769531 56.410156 247.09375 56.25 247.414062 56.410156 C 247.738281 56.410156 247.738281 56.570312 247.578125 56.734375 C 247.253906 57.378906 247.414062 58.023438 248.058594 58.671875 C 248.222656 58.832031 248.382812 58.832031 248.542969 58.832031 L 249.347656 58.832031 C 249.671875 58.832031 249.832031 58.832031 250.152344 58.832031 C 250.316406 58.832031 250.316406 58.832031 250.476562 58.832031 C 250.636719 58.832031 250.636719 58.992188 250.636719 58.992188 C 251.441406 59.800781 251.605469 60.445312 251.441406 60.929688 Z M 251.441406 60.929688 "/>
<path style=" stroke:none;fill-rule:nonzero;fill:rgb(10.196078%,14.117647%,21.176471%);fill-opacity:1;" d="M 268.035156 63.511719 C 267.066406 64.640625 266.101562 65.773438 264.972656 66.902344 C 263.683594 68.03125 262.394531 69 260.785156 69.484375 C 260.625 69.96875 260.300781 70.613281 259.980469 71.097656 C 259.65625 71.582031 259.335938 72.066406 258.851562 72.550781 C 258.367188 73.035156 257.886719 73.519531 257.402344 74.003906 C 256.917969 74.488281 256.113281 74.808594 255.148438 74.972656 C 254.019531 75.132812 253.054688 75.132812 252.570312 74.648438 C 251.925781 74.164062 251.605469 73.679688 251.441406 73.035156 C 251.28125 72.390625 251.441406 71.742188 251.925781 71.097656 C 252.410156 70.453125 253.054688 69.96875 254.019531 69.644531 C 254.503906 69.484375 254.984375 69.324219 255.46875 69.160156 C 255.953125 69 256.4375 69 256.917969 68.839844 C 257.242188 67.707031 257.402344 66.578125 257.5625 65.449219 C 257.722656 64.320312 257.722656 63.511719 257.886719 63.027344 C 257.886719 62.542969 258.046875 62.222656 258.046875 61.738281 C 258.046875 61.574219 257.886719 61.574219 257.402344 62.058594 L 257.242188 62.222656 L 257.082031 62.382812 C 256.597656 62.867188 256.273438 63.027344 255.792969 63.027344 C 255.308594 63.027344 255.308594 62.707031 255.628906 62.382812 L 256.4375 61.574219 L 256.4375 61.414062 C 256.917969 60.929688 257.242188 60.285156 257.5625 59.636719 C 257.886719 58.992188 258.207031 58.347656 258.367188 57.539062 C 258.367188 57.378906 258.691406 57.054688 259.011719 56.894531 C 259.496094 56.734375 259.820312 56.570312 260.300781 56.410156 C 260.625 56.25 261.105469 56.25 261.429688 56.410156 L 261.589844 56.410156 L 261.75 56.570312 L 261.75 56.894531 C 261.589844 57.863281 261.429688 58.832031 261.429688 59.800781 C 261.429688 60.769531 261.429688 61.898438 261.429688 62.867188 C 261.429688 63.671875 261.429688 64.320312 261.429688 64.964844 C 261.429688 65.609375 261.429688 66.417969 261.269531 67.0625 C 262.394531 66.417969 263.523438 65.609375 264.488281 64.804688 C 265.457031 63.835938 266.421875 62.707031 267.390625 61.738281 C 267.550781 61.574219 267.710938 61.414062 267.871094 61.414062 C 268.035156 61.414062 268.355469 61.253906 268.515625 61.253906 C 269 61.253906 269.160156 61.414062 268.839844 61.738281 Z M 254.179688 73.359375 C 254.664062 73.359375 255.148438 73.035156 255.628906 72.550781 C 256.113281 71.90625 256.4375 71.257812 256.597656 70.613281 C 255.953125 70.777344 255.308594 70.9375 254.664062 71.257812 C 254.34375 71.421875 253.859375 71.742188 253.535156 71.90625 C 253.375 72.066406 253.214844 72.226562 253.054688 72.550781 C 253.054688 72.710938 252.890625 72.710938 252.890625 72.875 C 252.890625 73.035156 253.054688 73.035156 253.054688 73.195312 C 253.375 73.359375 253.699219 73.359375 254.179688 73.359375 Z M 254.179688 73.359375 "/>
<path style=" stroke:none;fill-rule:nonzero;fill:rgb(90.980392%,29.411765%,38.039216%);fill-opacity:1;" d="M 30.28125 15.089844 L 20.296875 15.089844 C 17.394531 15.089844 14.980469 17.511719 14.980469 20.417969 L 14.980469 30.425781 C 14.980469 33.328125 17.394531 35.75 20.296875 35.75 L 30.28125 35.75 C 33.183594 35.75 35.597656 33.328125 35.597656 30.425781 L 35.597656 20.417969 C 35.597656 17.511719 33.183594 15.089844 30.28125 15.089844 Z M 30.28125 15.089844 "/>
<path style=" stroke:none;fill-rule:nonzero;fill:rgb(100%,76.078431%,5.098039%);fill-opacity:1;" d="M 66.6875 15.089844 L 49.613281 15.089844 C 48.644531 15.089844 47.839844 15.898438 47.839844 16.867188 L 47.839844 33.976562 C 47.839844 34.945312 48.644531 35.75 49.613281 35.75 L 66.847656 35.75 C 67.8125 35.75 68.621094 34.945312 68.621094 33.976562 L 68.621094 17.027344 C 68.621094 15.898438 67.8125 15.089844 66.6875 15.089844 Z M 66.6875 15.089844 "/>
<path style=" stroke:none;fill-rule:evenodd;fill:rgb(36.862745%,65.490196%,27.45098%);fill-opacity:1;" d="M 23.355469 48.339844 C 24 47.210938 25.289062 46.886719 26.417969 47.535156 C 26.738281 47.695312 27.0625 48.015625 27.222656 48.339844 L 31.089844 55.121094 L 34.953125 61.898438 C 35.597656 63.027344 35.277344 64.320312 34.148438 64.964844 C 33.828125 65.125 33.34375 65.289062 33.019531 65.289062 L 17.394531 65.289062 C 16.109375 65.289062 15.140625 64.320312 15.140625 63.027344 C 15.140625 62.707031 15.300781 62.222656 15.464844 61.898438 L 19.328125 55.121094 Z M 23.355469 48.339844 "/>
</g>
</svg>
