<?xml version="1.0" encoding="UTF-8"?>
<svg xmlns="http://www.w3.org/2000/svg" xmlns:xlink="http://www.w3.org/1999/xlink" width="270px" height="px" viewBox="0 0 270 270" version="1.1">
<defs>
<clipPath id="clip1">
  <path d="M 19.347656 95.90625 L 82 95.90625 L 82 155 L 19.347656 155 Z M 19.347656 95.90625 "/>
</clipPath>
<clipPath id="clip2">
  <path d="M 226 112 L 250.652344 112 L 250.652344 139 L 226 139 Z M 226 112 "/>
</clipPath>
<clipPath id="clip3">
  <path d="M 136 145 L 159 145 L 159 174.09375 L 136 174.09375 Z M 136 145 "/>
</clipPath>
<clipPath id="clip4">
  <path d="M 235 144 L 250.652344 144 L 250.652344 160 L 235 160 Z M 235 144 "/>
</clipPath>
</defs>
<g id="surface1">
<g clip-path="url(#clip1)" clip-rule="nonzero">
<path style=" stroke:none;fill-rule:nonzero;fill:rgb(0%,0%,0%);fill-opacity:1;" d="M 23.289062 154.644531 C 21.691406 154.644531 20.253906 153.6875 19.640625 152.214844 C 19.445312 151.738281 19.34375 151.226562 19.34375 150.710938 L 19.34375 99.832031 C 19.34375 98.789062 19.757812 97.789062 20.496094 97.054688 C 21.238281 96.320312 22.238281 95.90625 23.285156 95.90625 L 77.300781 95.90625 C 77.824219 95.894531 78.34375 95.988281 78.832031 96.183594 C 80.324219 96.773438 81.304688 98.21875 81.304688 99.828125 C 81.304688 101.433594 80.324219 102.878906 78.832031 103.472656 C 78.34375 103.660156 77.824219 103.753906 77.300781 103.742188 L 27.230469 103.742188 L 27.230469 150.703125 C 27.226562 152.292969 26.269531 153.726562 24.800781 154.332031 C 24.320312 154.53125 23.808594 154.632812 23.289062 154.632812 Z M 23.289062 154.644531 "/>
</g>
<path style=" stroke:none;fill-rule:nonzero;fill:rgb(0%,0%,0%);fill-opacity:1;" d="M 95.984375 172.15625 L 45.402344 172.15625 C 44.347656 172.175781 43.324219 171.769531 42.566406 171.03125 C 41.617188 170.101562 41.199219 168.753906 41.464844 167.453125 C 41.726562 166.148438 42.632812 165.070312 43.871094 164.582031 C 44.359375 164.390625 44.878906 164.296875 45.402344 164.304688 L 92.046875 164.304688 L 92.046875 121.351562 C 92.101562 119.214844 93.851562 117.515625 95.988281 117.515625 C 98.125 117.515625 99.871094 119.214844 99.929688 121.351562 L 99.929688 168.230469 C 99.925781 169.273438 99.511719 170.273438 98.769531 171.011719 C 98.03125 171.746094 97.027344 172.160156 95.984375 172.15625 Z M 95.984375 172.15625 "/>
<path style=" stroke:none;fill-rule:nonzero;fill:rgb(0%,0%,0%);fill-opacity:1;" d="M 70.691406 159.945312 C 70.742188 159.941406 70.792969 159.917969 70.828125 159.882812 C 70.863281 159.84375 70.878906 159.796875 70.878906 159.746094 C 70.878906 159.695312 70.863281 159.648438 70.828125 159.613281 C 70.796875 159.570312 70.75 159.546875 70.699219 159.546875 C 70.648438 159.546875 70.601562 159.570312 70.570312 159.613281 C 70.535156 159.648438 70.515625 159.695312 70.515625 159.746094 C 70.515625 159.796875 70.535156 159.84375 70.570312 159.882812 C 70.605469 159.917969 70.648438 159.941406 70.699219 159.945312 Z M 70.691406 159.945312 "/>
<path style=" stroke:none;fill-rule:nonzero;fill:rgb(0%,0%,0%);fill-opacity:1;" d="M 59.210938 154.589844 C 58.167969 154.589844 57.164062 154.179688 56.425781 153.441406 C 55.6875 152.703125 55.269531 151.703125 55.269531 150.660156 L 55.269531 134.566406 C 55.273438 132.394531 57.039062 130.640625 59.210938 130.644531 L 75.410156 130.644531 C 77.578125 130.644531 79.335938 132.402344 79.335938 134.566406 C 79.335938 136.734375 77.578125 138.492188 75.410156 138.492188 L 63.148438 138.492188 L 63.148438 150.667969 C 63.140625 152.835938 61.378906 154.589844 59.210938 154.585938 Z M 59.210938 154.589844 "/>
<path style=" stroke:none;fill-rule:nonzero;fill:rgb(0%,0%,0%);fill-opacity:1;" d="M 82.25 160.839844 C 81.207031 160.839844 80.203125 160.425781 79.464844 159.683594 L 58.507812 138.820312 C 56.976562 137.28125 56.980469 134.792969 58.519531 133.261719 C 60.058594 131.726562 62.546875 131.730469 64.082031 133.269531 L 85.050781 154.140625 C 85.882812 154.972656 86.300781 156.132812 86.183594 157.300781 C 86.066406 158.472656 85.433594 159.527344 84.453125 160.175781 C 83.804688 160.609375 83.042969 160.839844 82.261719 160.839844 Z M 82.25 160.839844 "/>
<path style=" stroke:none;fill-rule:nonzero;fill:rgb(0%,0%,0%);fill-opacity:1;" d="M 119.734375 124.875 L 131.316406 124.875 L 130.015625 130.371094 L 111.074219 130.371094 L 116.59375 106.660156 L 123.996094 106.660156 Z M 119.734375 124.875 "/>
<path style=" stroke:none;fill-rule:nonzero;fill:rgb(0%,0%,0%);fill-opacity:1;" d="M 138.78125 130.734375 C 137.71875 130.746094 136.671875 130.472656 135.75 129.941406 C 134.8125 129.394531 134.054688 128.582031 133.578125 127.605469 C 133.046875 126.578125 132.78125 125.296875 132.78125 123.761719 C 132.78125 122.328125 132.988281 120.898438 133.394531 119.523438 C 133.78125 118.183594 134.375 116.910156 135.152344 115.75 C 135.867188 114.664062 136.808594 113.742188 137.910156 113.050781 C 139.027344 112.371094 140.316406 112.019531 141.625 112.042969 C 142.335938 112.042969 143.039062 112.179688 143.699219 112.4375 C 144.394531 112.707031 145.011719 113.136719 145.503906 113.695312 C 146.023438 114.273438 146.367188 115.0625 146.53125 116.066406 L 147.402344 112.402344 L 154.691406 112.402344 L 150.507812 130.367188 L 143.871094 130.367188 L 144.484375 126.953125 C 143.9375 128.0625 143.117188 129.011719 142.101562 129.71875 C 141.125 130.386719 139.96875 130.738281 138.785156 130.726562 Z M 142.171875 125.523438 C 142.679688 125.519531 143.167969 125.328125 143.542969 124.984375 C 143.984375 124.582031 144.34375 124.097656 144.605469 123.5625 C 144.910156 122.964844 145.140625 122.328125 145.292969 121.675781 C 145.441406 121.050781 145.519531 120.410156 145.527344 119.769531 C 145.539062 119.304688 145.453125 118.847656 145.273438 118.417969 C 145.125 118.070312 144.882812 117.773438 144.570312 117.554688 C 144.242188 117.34375 143.859375 117.238281 143.46875 117.25 C 142.910156 117.242188 142.367188 117.449219 141.953125 117.824219 C 141.503906 118.230469 141.136719 118.722656 140.875 119.265625 C 140.582031 119.847656 140.363281 120.464844 140.222656 121.101562 C 140.089844 121.667969 140.015625 122.25 140.007812 122.832031 C 139.996094 123.320312 140.074219 123.8125 140.242188 124.273438 C 140.375 124.648438 140.621094 124.972656 140.945312 125.207031 C 141.3125 125.429688 141.742188 125.539062 142.171875 125.515625 Z M 142.171875 125.523438 "/>
<path style=" stroke:none;fill-rule:nonzero;fill:rgb(0%,0%,0%);fill-opacity:1;" d="M 153.070312 130.375 L 157.257812 112.410156 L 163.714844 112.410156 L 162.699219 118.734375 L 162.410156 118.121094 C 162.917969 116.183594 163.804688 114.683594 165.082031 113.628906 C 166.355469 112.578125 167.882812 112.050781 169.664062 112.050781 C 170.921875 112.050781 171.96875 112.324219 172.800781 112.875 C 173.644531 113.425781 174.269531 114.253906 174.570312 115.214844 C 174.910156 116.21875 174.910156 117.425781 174.570312 118.839844 L 171.871094 130.375 L 164.578125 130.375 L 167.066406 119.878906 C 167.234375 119.136719 167.171875 118.550781 166.886719 118.125 C 166.597656 117.699219 166.117188 117.480469 165.4375 117.476562 C 164.984375 117.46875 164.539062 117.59375 164.15625 117.835938 C 163.761719 118.097656 163.433594 118.457031 163.210938 118.878906 C 162.925781 119.425781 162.714844 120.007812 162.582031 120.609375 L 160.34375 130.382812 Z M 153.070312 130.375 "/>
<path style=" stroke:none;fill-rule:nonzero;fill:rgb(0%,0%,0%);fill-opacity:1;" d="M 181.503906 130.734375 C 180.441406 130.742188 179.394531 130.472656 178.472656 129.941406 C 177.535156 129.394531 176.777344 128.582031 176.300781 127.605469 C 175.765625 126.578125 175.5 125.296875 175.5 123.761719 C 175.5 122.328125 175.707031 120.898438 176.113281 119.523438 C 176.5 118.183594 177.09375 116.910156 177.867188 115.75 C 178.582031 114.664062 179.523438 113.742188 180.628906 113.050781 C 181.746094 112.371094 183.035156 112.019531 184.34375 112.042969 C 185.054688 112.046875 185.757812 112.179688 186.417969 112.4375 C 187.109375 112.707031 187.730469 113.136719 188.222656 113.695312 C 188.738281 114.273438 189.082031 115.0625 189.25 116.066406 L 191.816406 105.003906 L 199.105469 105.003906 L 193.226562 130.371094 L 186.585938 130.371094 L 187.199219 126.957031 C 186.65625 128.070312 185.835938 129.027344 184.816406 129.734375 C 183.839844 130.402344 182.679688 130.753906 181.496094 130.738281 Z M 184.894531 125.523438 C 185.40625 125.519531 185.902344 125.328125 186.28125 124.984375 C 186.730469 124.589844 187.09375 124.105469 187.347656 123.5625 C 187.640625 122.960938 187.867188 122.328125 188.015625 121.675781 C 188.164062 121.050781 188.242188 120.410156 188.25 119.769531 C 188.261719 119.304688 188.175781 118.847656 187.996094 118.417969 C 187.847656 118.070312 187.605469 117.769531 187.292969 117.554688 C 186.964844 117.34375 186.582031 117.234375 186.191406 117.246094 C 185.632812 117.242188 185.089844 117.449219 184.675781 117.824219 C 184.230469 118.234375 183.863281 118.722656 183.597656 119.265625 C 183.054688 120.378906 182.761719 121.59375 182.734375 122.828125 C 182.722656 123.320312 182.800781 123.808594 182.96875 124.273438 C 183.101562 124.648438 183.347656 124.972656 183.671875 125.207031 C 184.039062 125.429688 184.46875 125.539062 184.898438 125.511719 Z M 184.894531 125.523438 "/>
<path style=" stroke:none;fill-rule:nonzero;fill:rgb(0%,0%,0%);fill-opacity:1;" d="M 207.261719 112.410156 L 203.078125 130.375 L 195.789062 130.375 L 199.972656 112.410156 Z M 204.339844 110.824219 C 203.113281 110.824219 202.167969 110.582031 201.507812 110.101562 C 200.84375 109.621094 200.585938 108.84375 200.730469 107.765625 C 200.898438 106.519531 201.332031 105.644531 202.035156 105.144531 C 202.734375 104.644531 203.746094 104.394531 205.066406 104.390625 C 206.316406 104.390625 207.269531 104.636719 207.933594 105.128906 C 208.59375 105.617188 208.851562 106.367188 208.707031 107.371094 C 208.539062 108.710938 208.097656 109.621094 207.375 110.101562 C 206.652344 110.582031 205.644531 110.828125 204.339844 110.835938 Z M 204.339844 110.824219 "/>
<path style=" stroke:none;fill-rule:nonzero;fill:rgb(0%,0%,0%);fill-opacity:1;" d="M 205.710938 130.375 L 209.894531 112.410156 L 216.355469 112.410156 L 215.339844 118.734375 L 215.054688 118.125 C 215.558594 116.183594 216.449219 114.6875 217.726562 113.632812 C 219 112.578125 220.53125 112.050781 222.316406 112.046875 C 223.566406 112.046875 224.609375 112.324219 225.453125 112.875 C 226.296875 113.421875 226.921875 114.25 227.222656 115.210938 C 227.558594 116.214844 227.558594 117.425781 227.222656 118.835938 L 224.519531 130.371094 L 217.230469 130.371094 L 219.707031 119.878906 C 219.875 119.136719 219.8125 118.550781 219.527344 118.125 C 219.238281 117.699219 218.753906 117.480469 218.078125 117.476562 C 217.628906 117.476562 217.191406 117.605469 216.8125 117.847656 C 216.417969 118.113281 216.09375 118.46875 215.867188 118.890625 C 215.582031 119.4375 215.371094 120.019531 215.234375 120.621094 L 213 130.394531 Z M 205.710938 130.375 "/>
<g clip-path="url(#clip2)" clip-rule="nonzero">
<path style=" stroke:none;fill-rule:nonzero;fill:rgb(0%,0%,0%);fill-opacity:1;" d="M 234.933594 138.105469 C 233.859375 138.109375 232.785156 137.976562 231.742188 137.710938 C 230.757812 137.460938 229.824219 137.042969 228.984375 136.46875 C 228.183594 135.925781 227.535156 135.191406 227.09375 134.332031 C 226.644531 133.464844 226.433594 132.449219 226.460938 131.28125 L 233.75 130.738281 C 233.726562 131.625 233.847656 132.332031 234.113281 132.859375 C 234.378906 133.386719 234.957031 133.648438 235.847656 133.648438 C 236.304688 133.65625 236.75 133.523438 237.128906 133.273438 C 237.546875 132.96875 237.886719 132.574219 238.121094 132.117188 C 238.460938 131.457031 238.707031 130.746094 238.84375 130.015625 L 240.328125 123.65625 L 240.582031 123.835938 C 240.222656 125.800781 239.511719 127.304688 238.453125 128.347656 C 237.394531 129.386719 236.035156 129.910156 234.375 129.910156 C 233.308594 129.925781 232.253906 129.652344 231.328125 129.121094 C 230.402344 128.570312 229.65625 127.765625 229.179688 126.800781 C 228.652344 125.78125 228.386719 124.535156 228.386719 123.050781 C 228.382812 121.675781 228.585938 120.308594 228.984375 118.992188 C 229.355469 117.71875 229.941406 116.519531 230.714844 115.445312 C 231.441406 114.433594 232.375 113.585938 233.457031 112.964844 C 234.5625 112.347656 235.808594 112.03125 237.078125 112.050781 C 237.917969 112.050781 238.746094 112.25 239.496094 112.628906 C 240.296875 113.042969 240.953125 113.6875 241.386719 114.476562 C 241.878906 115.328125 242.101562 116.4375 242.050781 117.800781 L 241.296875 118.914062 L 242.78125 112.410156 L 250.070312 112.410156 L 246.171875 129.195312 C 245.667969 131.445312 244.921875 133.21875 243.933594 134.511719 C 242.992188 135.769531 241.710938 136.730469 240.238281 137.28125 C 238.75 137.824219 236.980469 138.101562 234.933594 138.105469 Z M 237.75 124.769531 C 238.40625 124.777344 239.035156 124.496094 239.464844 123.996094 C 239.957031 123.441406 240.324219 122.785156 240.542969 122.074219 C 240.792969 121.320312 240.921875 120.535156 240.921875 119.738281 C 240.929688 119.289062 240.84375 118.84375 240.667969 118.429688 C 240.515625 118.074219 240.265625 117.773438 239.945312 117.5625 C 239.609375 117.355469 239.21875 117.25 238.824219 117.257812 C 238.121094 117.238281 237.449219 117.535156 236.988281 118.066406 C 236.492188 118.628906 236.125 119.292969 235.90625 120.007812 C 235.679688 120.6875 235.558594 121.394531 235.546875 122.109375 C 235.546875 122.898438 235.71875 123.539062 236.070312 124.03125 C 236.417969 124.523438 236.980469 124.769531 237.75 124.761719 Z M 237.75 124.769531 "/>
</g>
<path style=" stroke:none;fill-rule:nonzero;fill:rgb(0%,0%,0%);fill-opacity:1;" d="M 131.96875 150.121094 C 131.578125 150.625 131.078125 151.230469 130.472656 151.933594 C 129.144531 153.453125 127.644531 154.816406 126.007812 155.996094 C 125.222656 156.570312 124.363281 157.035156 123.449219 157.371094 C 122.789062 158.121094 122.003906 158.753906 121.132812 159.246094 C 120.324219 159.707031 119.386719 159.890625 118.460938 159.773438 C 118.179688 159.726562 117.902344 159.648438 117.636719 159.539062 C 117.167969 161.019531 116.6875 162.539062 116.199219 164.101562 C 115.707031 165.660156 115.25 167.09375 114.820312 168.398438 C 114.386719 169.707031 114.027344 170.816406 113.738281 171.734375 C 113.449219 172.652344 113.261719 173.1875 113.175781 173.339844 C 113.097656 173.457031 112.898438 173.546875 112.585938 173.609375 C 112.265625 173.667969 111.941406 173.6875 111.617188 173.667969 C 111.316406 173.65625 111.019531 173.59375 110.738281 173.492188 C 110.484375 173.394531 110.375 173.289062 110.414062 173.171875 C 110.492188 173.054688 110.683594 172.535156 110.972656 171.621094 C 111.261719 170.707031 111.617188 169.554688 112.027344 168.167969 C 112.441406 166.78125 112.890625 165.253906 113.378906 163.578125 C 113.867188 161.902344 114.347656 160.246094 114.816406 158.609375 C 115.289062 156.96875 115.738281 155.441406 116.167969 154.015625 C 116.597656 152.59375 116.949219 151.429688 117.222656 150.539062 C 117.507812 149.605469 117.742188 148.660156 117.929688 147.703125 C 118.085938 146.867188 118.183594 146.371094 118.21875 146.21875 C 118.257812 146.0625 118.445312 145.949219 118.777344 145.898438 C 119.125 145.835938 119.480469 145.816406 119.835938 145.835938 C 120.164062 145.851562 120.488281 145.910156 120.804688 146.011719 C 121.074219 146.113281 121.207031 146.21875 121.207031 146.335938 C 121.109375 146.609375 121.039062 146.894531 121.003906 147.183594 C 120.945312 147.554688 120.867188 147.992188 120.796875 148.5 C 121.355469 147.785156 121.988281 147.128906 122.679688 146.539062 C 123.3125 145.964844 124.121094 145.625 124.976562 145.574219 C 125.992188 145.539062 126.660156 145.820312 126.972656 146.421875 C 127.292969 147.074219 127.425781 147.804688 127.355469 148.527344 C 127.289062 149.34375 127.121094 150.152344 126.855469 150.925781 C 126.578125 151.726562 126.382812 152.304688 126.265625 152.65625 C 126.03125 153.164062 125.785156 153.671875 125.53125 154.175781 C 125.277344 154.679688 124.996094 155.167969 124.679688 155.640625 C 125.976562 154.839844 127.160156 153.878906 128.207031 152.773438 C 129.378906 151.570312 130.457031 150.277344 131.4375 148.914062 C 131.554688 148.777344 131.703125 148.671875 131.875 148.605469 C 132.042969 148.539062 132.222656 148.515625 132.402344 148.53125 C 132.816406 148.554688 132.921875 148.699219 132.726562 148.964844 Z M 118.871094 158.425781 C 119.304688 158.503906 119.753906 158.230469 120.222656 157.605469 C 119.558594 157.476562 118.972656 157.101562 118.578125 156.554688 L 118.226562 157.664062 C 118.226562 158.171875 118.441406 158.425781 118.871094 158.425781 Z M 121.574219 149.007812 C 121.378906 149.261719 121.210938 149.539062 121.074219 149.828125 L 120.519531 150.9375 C 120.363281 151.328125 120.207031 151.699219 120.050781 152.050781 C 119.890625 152.40625 119.773438 152.777344 119.699219 153.160156 C 119.613281 153.476562 119.566406 153.800781 119.554688 154.125 C 119.53125 154.488281 119.5625 154.851562 119.640625 155.207031 C 119.71875 155.554688 119.867188 155.882812 120.078125 156.167969 C 120.28125 156.457031 120.585938 156.65625 120.925781 156.726562 C 121.390625 156.085938 121.804688 155.410156 122.160156 154.703125 C 122.546875 153.941406 122.9375 153.152344 123.335938 152.335938 C 123.636719 151.628906 123.902344 150.90625 124.128906 150.175781 C 124.324219 149.558594 124.480469 148.933594 124.597656 148.300781 C 124.6875 147.878906 124.71875 147.445312 124.6875 147.011719 C 124.648438 146.703125 124.542969 146.546875 124.398438 146.546875 C 124.085938 146.601562 123.792969 146.730469 123.546875 146.925781 C 123.238281 147.152344 122.953125 147.410156 122.695312 147.691406 C 122.445312 147.949219 122.207031 148.222656 121.988281 148.507812 C 121.859375 148.679688 121.71875 148.847656 121.574219 149.003906 Z M 121.574219 149.007812 "/>
<path style=" stroke:none;fill-rule:nonzero;fill:rgb(0%,0%,0%);fill-opacity:1;" d="M 137.316406 145.492188 C 137.78125 145.53125 138.226562 145.691406 138.609375 145.960938 C 138.84375 145.917969 139.078125 145.898438 139.3125 145.902344 C 139.582031 145.902344 139.847656 145.910156 140.105469 145.929688 C 140.324219 145.945312 140.542969 145.984375 140.753906 146.046875 C 140.929688 146.109375 141.023438 146.195312 141.023438 146.320312 C 140.800781 146.671875 140.613281 147.042969 140.464844 147.429688 C 140.207031 148.015625 139.914062 148.695312 139.582031 149.476562 C 139.253906 150.253906 138.917969 151.09375 138.582031 151.992188 C 138.25 152.890625 137.96875 153.730469 137.730469 154.507812 C 137.523438 155.167969 137.367188 155.847656 137.261719 156.53125 C 137.183594 157.097656 137.222656 157.417969 137.378906 157.496094 C 137.457031 157.535156 137.78125 157.203125 138.347656 156.503906 C 138.917969 155.800781 139.574219 154.972656 140.316406 154.015625 C 141.058594 153.0625 141.792969 152.097656 142.519531 151.121094 C 143.246094 150.144531 143.824219 149.40625 144.257812 148.898438 C 144.5 148.625 144.859375 148.480469 145.226562 148.519531 C 145.636719 148.539062 145.746094 148.683594 145.550781 148.949219 C 144.570312 150.433594 143.550781 151.894531 142.496094 153.339844 C 141.4375 154.78125 140.4375 156.128906 139.5 157.375 C 139.363281 157.5625 139.21875 157.738281 139.066406 157.902344 C 138.832031 158.148438 138.589844 158.382812 138.332031 158.605469 C 138.054688 158.835938 137.761719 159.042969 137.449219 159.21875 C 137.183594 159.378906 136.878906 159.46875 136.566406 159.480469 C 135.628906 159.480469 135.03125 159.199219 134.777344 158.632812 C 134.523438 158.066406 134.433594 157.335938 134.507812 156.441406 C 133.933594 157.203125 133.285156 157.902344 132.570312 158.53125 C 131.898438 159.164062 131.027344 159.535156 130.109375 159.585938 C 129.128906 159.621094 128.460938 159.40625 128.109375 158.941406 C 127.75 158.445312 127.550781 157.855469 127.53125 157.246094 C 127.492188 156.570312 127.570312 155.894531 127.765625 155.25 C 127.898438 154.738281 128.066406 154.230469 128.265625 153.738281 C 128.667969 152.746094 129.171875 151.796875 129.761719 150.90625 C 130.398438 149.929688 131.113281 149.007812 131.910156 148.15625 C 132.65625 147.347656 133.527344 146.660156 134.492188 146.132812 C 135.351562 145.640625 136.332031 145.417969 137.316406 145.484375 Z M 133.441406 156.078125 C 133.589844 155.875 133.722656 155.660156 133.847656 155.4375 L 134.34375 154.558594 C 134.523438 154.25 134.699219 153.945312 134.875 153.652344 C 135.050781 153.359375 135.195312 153.113281 135.308594 152.921875 L 135.484375 152.394531 C 135.71875 151.613281 135.984375 150.863281 136.277344 150.144531 C 136.570312 149.421875 136.855469 148.789062 137.128906 148.242188 L 137.128906 148.121094 C 137.285156 147.730469 137.445312 147.3125 137.601562 146.863281 C 137.757812 146.414062 137.636719 146.214844 137.246094 146.25 C 136.816406 146.25 136.367188 146.464844 135.898438 146.894531 C 135.371094 147.386719 134.898438 147.9375 134.488281 148.53125 C 134.019531 149.195312 133.546875 149.9375 133.078125 150.753906 L 131.667969 153.207031 C 130.882812 154.6875 130.394531 155.898438 130.199219 156.832031 C 130.003906 157.765625 130.199219 158.195312 130.785156 158.117188 C 131.335938 158.039062 131.875 157.730469 132.40625 157.183594 C 132.9375 156.632812 133.28125 156.265625 133.4375 156.078125 Z M 133.441406 156.078125 "/>
<g clip-path="url(#clip3)" clip-rule="nonzero">
<path style=" stroke:none;fill-rule:nonzero;fill:rgb(0%,0%,0%);fill-opacity:1;" d="M 150.121094 145.492188 C 150.746094 145.570312 151.238281 145.78125 151.589844 146.136719 C 152.054688 146.058594 152.535156 146.070312 153 146.164062 C 153.507812 146.261719 153.742188 146.40625 153.703125 146.597656 C 153.375 147.136719 153.101562 147.703125 152.878906 148.292969 C 152.566406 149.074219 152.234375 149.953125 151.882812 150.925781 C 151.53125 151.902344 151.179688 152.914062 150.824219 153.96875 C 150.472656 155.023438 150.15625 155.980469 149.878906 156.832031 C 151.445312 155.703125 152.832031 154.339844 153.992188 152.796875 C 154.621094 152.015625 155.207031 151.265625 155.753906 150.542969 C 156.300781 149.824219 156.730469 149.265625 157.046875 148.875 C 157.167969 148.742188 157.316406 148.636719 157.484375 148.570312 C 157.652344 148.503906 157.835938 148.480469 158.015625 148.496094 C 158.425781 148.515625 158.535156 148.660156 158.335938 148.929688 C 157.867188 149.671875 157.398438 150.371094 156.929688 151.035156 L 155.519531 153.023438 C 154.6875 154.125 153.730469 155.125 152.671875 156.007812 C 151.632812 156.867188 150.566406 157.664062 149.46875 158.40625 C 149.449219 158.429688 149.433594 158.457031 149.421875 158.488281 C 149.410156 158.515625 149.40625 158.550781 149.410156 158.582031 C 148.980469 160.453125 148.636719 162.304688 148.382812 164.136719 C 148.164062 165.816406 147.777344 167.472656 147.238281 169.078125 C 146.726562 170.539062 145.992188 171.730469 145.035156 172.648438 C 144.074219 173.566406 142.675781 174.042969 140.835938 174.082031 C 139.773438 174.082031 138.980469 173.875 138.457031 173.46875 C 137.941406 173.074219 137.546875 172.546875 137.3125 171.945312 C 137.078125 171.359375 136.96875 170.734375 136.988281 170.101562 C 136.992188 169.59375 137.042969 169.082031 137.132812 168.582031 C 137.34375 167.507812 137.761719 166.484375 138.367188 165.570312 C 138.96875 164.667969 139.691406 163.851562 140.507812 163.140625 C 141.378906 162.378906 142.3125 161.691406 143.296875 161.089844 C 144.316406 160.46875 145.355469 159.824219 146.410156 159.160156 C 146.488281 158.734375 146.578125 158.332031 146.679688 157.960938 C 146.785156 157.589844 146.886719 157.210938 147.003906 156.820312 C 146.449219 157.492188 145.828125 158.109375 145.15625 158.664062 C 144.523438 159.207031 143.726562 159.527344 142.890625 159.570312 C 141.914062 159.609375 141.25 159.394531 140.894531 158.925781 C 140.535156 158.433594 140.328125 157.84375 140.308594 157.230469 C 140.269531 156.5625 140.34375 155.890625 140.535156 155.25 C 140.679688 154.734375 140.855469 154.226562 141.0625 153.730469 C 141.464844 152.738281 141.96875 151.789062 142.558594 150.894531 C 143.195312 149.917969 143.910156 149 144.707031 148.148438 C 145.449219 147.335938 146.324219 146.652344 147.289062 146.121094 C 148.148438 145.640625 149.128906 145.421875 150.113281 145.496094 Z M 140.429688 173.160156 C 141.25 173.160156 141.953125 172.789062 142.542969 172.046875 C 143.132812 171.308594 143.628906 170.324219 144.039062 169.09375 C 144.484375 167.738281 144.859375 166.363281 145.15625 164.96875 C 145.488281 163.449219 145.8125 161.929688 146.125 160.410156 C 144.453125 161.398438 142.871094 162.53125 141.398438 163.800781 C 140.011719 165.007812 139.0625 166.585938 138.550781 168.539062 C 138.4375 169.066406 138.378906 169.605469 138.375 170.144531 C 138.371094 170.640625 138.441406 171.132812 138.582031 171.609375 C 138.703125 172.03125 138.9375 172.414062 139.257812 172.71875 C 139.574219 173.015625 139.996094 173.171875 140.433594 173.160156 Z M 146.242188 156.078125 C 146.613281 155.574219 146.949219 155.046875 147.242188 154.492188 C 147.632812 153.789062 147.945312 153.246094 148.1875 152.855469 L 148.304688 152.386719 C 148.523438 151.613281 148.789062 150.851562 149.097656 150.105469 C 149.386719 149.40625 149.671875 148.78125 149.949219 148.234375 L 149.949219 148.121094 C 150.105469 147.730469 150.261719 147.3125 150.417969 146.863281 C 150.578125 146.414062 150.457031 146.214844 150.066406 146.25 C 149.632812 146.25 149.1875 146.464844 148.714844 146.894531 C 148.191406 147.386719 147.71875 147.9375 147.308594 148.53125 C 146.835938 149.195312 146.367188 149.9375 145.898438 150.753906 L 144.488281 153.207031 C 143.703125 154.6875 143.214844 155.898438 143.019531 156.832031 C 142.820312 157.765625 143.019531 158.195312 143.605469 158.117188 C 144.15625 158.039062 144.695312 157.730469 145.226562 157.183594 C 145.757812 156.632812 146.09375 156.265625 146.238281 156.078125 Z M 146.242188 156.078125 "/>
</g>
<path style=" stroke:none;fill-rule:nonzero;fill:rgb(0%,0%,0%);fill-opacity:1;" d="M 169.265625 148.945312 C 169.03125 149.253906 168.699219 149.75 168.269531 150.429688 C 167.835938 151.109375 167.308594 151.859375 166.675781 152.679688 C 166.046875 153.496094 165.351562 154.335938 164.589844 155.195312 C 163.84375 156.039062 163.019531 156.8125 162.128906 157.503906 C 161.285156 158.164062 160.359375 158.703125 159.367188 159.113281 C 158.449219 159.496094 157.449219 159.632812 156.460938 159.515625 C 155.519531 159.398438 154.828125 159.078125 154.375 158.550781 C 153.921875 158.019531 153.636719 157.367188 153.554688 156.675781 C 153.460938 155.894531 153.519531 155.097656 153.730469 154.339844 C 153.933594 153.523438 154.222656 152.730469 154.582031 151.96875 C 154.894531 151.382812 155.304688 150.691406 155.816406 149.894531 C 156.347656 149.066406 156.957031 148.292969 157.636719 147.585938 C 158.320312 146.863281 159.113281 146.25 159.984375 145.773438 C 160.847656 145.304688 161.824219 145.082031 162.804688 145.128906 C 163.394531 145.171875 163.835938 145.296875 164.128906 145.507812 C 164.40625 145.710938 164.609375 146 164.707031 146.328125 C 164.804688 146.679688 164.816406 147.050781 164.738281 147.410156 C 164.65625 147.796875 164.558594 148.191406 164.449219 148.578125 C 164.289062 149.085938 163.957031 149.71875 163.449219 150.480469 C 162.894531 151.292969 162.273438 152.066406 161.597656 152.785156 C 160.851562 153.585938 160.046875 154.328125 159.1875 155.007812 C 158.351562 155.683594 157.433594 156.253906 156.457031 156.703125 C 156.445312 157.074219 156.539062 157.4375 156.726562 157.757812 C 156.90625 158.027344 157.207031 158.128906 157.640625 158.046875 C 157.953125 158.007812 158.421875 157.8125 159.050781 157.460938 C 159.738281 157.070312 160.40625 156.636719 161.046875 156.171875 C 161.769531 155.652344 162.464844 155.097656 163.132812 154.507812 C 163.738281 153.980469 164.300781 153.402344 164.804688 152.777344 L 167.976562 148.859375 C 168.222656 148.585938 168.578125 148.4375 168.945312 148.457031 C 169.355469 148.46875 169.460938 148.632812 169.265625 148.945312 Z M 157.636719 152.453125 C 157.515625 152.722656 157.339844 153.152344 157.109375 153.742188 C 156.867188 154.347656 156.6875 154.972656 156.578125 155.617188 C 157.5 154.945312 158.34375 154.183594 159.105469 153.335938 C 159.945312 152.433594 160.714844 151.464844 161.398438 150.441406 C 162.027344 149.484375 162.449219 148.65625 162.664062 147.953125 C 162.875 147.253906 162.6875 146.882812 162.105469 146.84375 C 161.789062 146.804688 161.4375 146.960938 161.046875 147.308594 C 160.601562 147.71875 160.210938 148.183594 159.871094 148.683594 C 159.480469 149.25 159.085938 149.867188 158.695312 150.527344 C 158.304688 151.191406 157.953125 151.828125 157.636719 152.449219 Z M 157.636719 152.453125 "/>
<path style=" stroke:none;fill-rule:nonzero;fill:rgb(0%,0%,0%);fill-opacity:1;" d="M 184.710938 153.90625 C 184.675781 154.179688 184.605469 154.445312 184.507812 154.699219 C 184.363281 155.101562 184.238281 155.539062 184.125 155.984375 C 184.015625 156.433594 183.910156 156.851562 183.835938 157.214844 C 183.761719 157.574219 183.777344 157.789062 183.894531 157.828125 C 184.011719 157.828125 184.394531 157.457031 185.039062 156.714844 C 185.6875 155.976562 186.410156 155.117188 187.210938 154.144531 L 189.621094 151.21875 C 190.421875 150.242188 191.019531 149.503906 191.414062 148.996094 C 191.53125 148.859375 191.679688 148.753906 191.851562 148.6875 C 192.019531 148.621094 192.203125 148.597656 192.382812 148.613281 C 192.785156 148.636719 192.921875 148.78125 192.761719 149.046875 C 192.570312 149.316406 192.253906 149.785156 191.816406 150.453125 C 191.378906 151.117188 190.871094 151.851562 190.289062 152.644531 C 189.703125 153.445312 189.066406 154.273438 188.382812 155.132812 C 187.695312 155.988281 187.019531 156.769531 186.355469 157.472656 C 185.773438 158.101562 185.132812 158.679688 184.449219 159.203125 C 183.839844 159.652344 183.320312 159.875 182.894531 159.875 C 182.03125 159.800781 181.414062 159.574219 181.042969 159.203125 C 180.675781 158.839844 180.472656 158.339844 180.484375 157.824219 C 180.539062 157.023438 180.671875 156.230469 180.890625 155.457031 C 181.125 154.582031 181.40625 153.683594 181.738281 152.765625 C 182.074219 151.847656 182.40625 150.933594 182.738281 150.015625 C 183.070312 149.101562 183.355469 148.253906 183.589844 147.472656 C 183.585938 147.328125 183.566406 147.183594 183.53125 147.039062 C 183.492188 146.863281 183.335938 146.835938 183.0625 146.953125 L 181.621094 148.121094 C 180.800781 148.816406 180.132812 149.671875 179.65625 150.636719 C 179.273438 152.089844 178.804688 153.515625 178.246094 154.90625 C 177.65625 156.390625 177.089844 157.714844 176.542969 158.886719 C 176.425781 159.113281 176.226562 159.292969 175.984375 159.382812 C 175.667969 159.527344 175.332031 159.617188 174.984375 159.652344 C 174.640625 159.691406 174.292969 159.671875 173.957031 159.589844 C 173.644531 159.511719 173.46875 159.375 173.429688 159.1875 C 173.742188 158.332031 174.101562 157.40625 174.507812 156.410156 C 174.917969 155.410156 175.300781 154.40625 175.652344 153.394531 C 176.007812 152.382812 176.3125 151.371094 176.566406 150.355469 C 176.808594 149.417969 176.9375 148.457031 176.945312 147.488281 C 176.90625 147.371094 176.859375 147.253906 176.804688 147.140625 C 176.746094 147.023438 176.578125 147.003906 176.304688 147.078125 C 176.1875 147.121094 176 147.277344 175.746094 147.546875 C 175.449219 147.871094 175.175781 148.214844 174.921875 148.574219 C 174.632812 148.980469 174.351562 149.410156 174.070312 149.859375 C 173.820312 150.257812 173.605469 150.679688 173.425781 151.117188 C 173.148438 152.371094 172.746094 153.597656 172.222656 154.773438 C 171.695312 155.960938 171.097656 157.21875 170.429688 158.542969 C 170.3125 158.777344 170.066406 158.992188 169.695312 159.1875 C 169.347656 159.375 168.96875 159.503906 168.578125 159.566406 C 168.246094 159.628906 167.902344 159.609375 167.582031 159.507812 C 167.289062 159.410156 167.160156 159.226562 167.199219 158.953125 C 167.550781 158.097656 167.941406 157.230469 168.375 156.359375 C 168.804688 155.484375 169.1875 154.605469 169.519531 153.726562 C 169.847656 152.859375 170.113281 151.96875 170.3125 151.066406 C 170.507812 150.183594 170.585938 149.277344 170.546875 148.375 C 170.585938 148.28125 170.585938 148.179688 170.546875 148.085938 C 170.507812 148.007812 170.390625 148.066406 170.195312 148.261719 C 170 148.417969 169.820312 148.59375 169.667969 148.789062 C 169.507812 148.984375 169.378906 149.160156 169.261719 149.316406 C 168.90625 149.746094 168.535156 149.929688 168.144531 149.871094 C 167.753906 149.8125 167.695312 149.605469 167.96875 149.257812 C 168.289062 148.777344 168.644531 148.316406 169.027344 147.882812 C 169.414062 147.433594 169.808594 146.992188 170.203125 146.566406 C 170.457031 146.316406 170.753906 146.121094 171.082031 145.980469 C 171.402344 145.832031 171.753906 145.75 172.109375 145.746094 C 172.410156 145.738281 172.710938 145.800781 172.992188 145.921875 C 173.238281 146.03125 173.421875 146.246094 173.488281 146.507812 C 173.601562 147.164062 173.660156 147.828125 173.664062 148.496094 C 174.359375 147.417969 175.234375 146.46875 176.25 145.6875 C 176.835938 145.273438 177.53125 145.039062 178.246094 145.011719 C 178.953125 144.992188 179.460938 145.21875 179.777344 145.6875 C 179.988281 146.011719 180.121094 146.382812 180.15625 146.769531 C 180.214844 147.285156 180.203125 147.804688 180.125 148.320312 C 180.59375 147.734375 181.117188 147.199219 181.683594 146.710938 C 182.121094 146.324219 182.582031 145.964844 183.0625 145.632812 C 183.453125 145.398438 183.882812 145.230469 184.328125 145.132812 C 184.734375 145.042969 185.148438 145.003906 185.558594 145.015625 C 185.894531 145.023438 186.222656 145.121094 186.503906 145.304688 C 186.621094 145.375 186.71875 145.472656 186.785156 145.59375 C 186.847656 145.710938 186.882812 145.84375 186.886719 145.976562 C 186.921875 146.328125 186.863281 146.824219 186.710938 147.460938 C 186.554688 148.101562 186.359375 148.792969 186.125 149.539062 C 185.886719 150.28125 185.644531 151.039062 185.390625 151.820312 C 185.132812 152.597656 184.910156 153.296875 184.710938 153.90625 Z M 184.710938 153.90625 "/>
<path style=" stroke:none;fill-rule:nonzero;fill:rgb(0%,0%,0%);fill-opacity:1;" d="M 197.28125 145.601562 C 197.746094 145.640625 198.195312 145.804688 198.578125 146.070312 C 198.808594 146.027344 199.042969 146.007812 199.28125 146.011719 C 199.550781 146.011719 199.820312 146.023438 200.074219 146.042969 C 200.292969 146.054688 200.507812 146.09375 200.71875 146.15625 C 200.894531 146.21875 200.988281 146.304688 200.988281 146.429688 C 200.769531 146.78125 200.582031 147.152344 200.429688 147.539062 C 200.171875 148.121094 199.878906 148.804688 199.546875 149.585938 C 199.214844 150.367188 198.882812 151.207031 198.550781 152.101562 C 198.214844 153 197.929688 153.839844 197.699219 154.617188 C 197.488281 155.277344 197.332031 155.953125 197.226562 156.640625 C 197.148438 157.207031 197.1875 157.527344 197.34375 157.605469 C 197.425781 157.644531 197.746094 157.3125 198.316406 156.609375 C 198.882812 155.910156 199.539062 155.082031 200.28125 154.125 C 201.023438 153.171875 201.757812 152.207031 202.484375 151.230469 C 203.210938 150.253906 203.789062 149.511719 204.222656 149.007812 C 204.339844 148.871094 204.492188 148.765625 204.660156 148.699219 C 204.828125 148.632812 205.011719 148.609375 205.191406 148.625 C 205.597656 148.648438 205.710938 148.792969 205.515625 149.058594 C 204.535156 150.542969 203.519531 152.003906 202.460938 153.449219 C 201.402344 154.890625 200.40625 156.234375 199.464844 157.484375 C 199.332031 157.667969 199.1875 157.84375 199.03125 158.011719 C 198.800781 158.257812 198.554688 158.492188 198.292969 158.710938 C 198.023438 158.945312 197.726562 159.152344 197.414062 159.328125 C 197.148438 159.488281 196.84375 159.578125 196.535156 159.589844 C 195.59375 159.589844 194.996094 159.304688 194.742188 158.742188 C 194.488281 158.175781 194.398438 157.445312 194.472656 156.546875 C 193.902344 157.316406 193.25 158.019531 192.535156 158.652344 C 191.863281 159.285156 190.992188 159.65625 190.074219 159.707031 C 189.09375 159.746094 188.425781 159.53125 188.074219 159.0625 C 187.714844 158.570312 187.511719 157.976562 187.496094 157.367188 C 187.457031 156.695312 187.535156 156.023438 187.730469 155.378906 C 187.875 154.863281 188.050781 154.351562 188.257812 153.859375 C 188.660156 152.863281 189.164062 151.914062 189.757812 151.023438 C 190.390625 150.046875 191.105469 149.125 191.902344 148.273438 C 192.644531 147.460938 193.519531 146.777344 194.484375 146.25 C 195.335938 145.769531 196.308594 145.546875 197.28125 145.609375 Z M 193.40625 156.195312 C 193.554688 155.988281 193.6875 155.773438 193.8125 155.550781 C 193.96875 155.28125 194.136719 154.988281 194.3125 154.671875 C 194.488281 154.359375 194.664062 154.058594 194.839844 153.765625 C 195.015625 153.472656 195.164062 153.226562 195.273438 153.035156 L 195.453125 152.507812 C 195.6875 151.730469 195.949219 150.980469 196.242188 150.257812 C 196.535156 149.535156 196.820312 148.90625 197.101562 148.363281 L 197.101562 148.246094 C 197.257812 147.859375 197.414062 147.4375 197.570312 146.988281 C 197.726562 146.539062 197.609375 146.335938 197.21875 146.375 C 196.789062 146.375 196.335938 146.589844 195.867188 147.019531 C 195.34375 147.515625 194.871094 148.0625 194.457031 148.65625 C 193.988281 149.320312 193.519531 150.0625 193.046875 150.878906 L 191.640625 153.332031 C 190.855469 154.8125 190.363281 156.019531 190.171875 156.957031 C 189.976562 157.890625 190.167969 158.320312 190.75 158.242188 C 191.300781 158.164062 191.839844 157.851562 192.371094 157.308594 C 192.902344 156.761719 193.246094 156.390625 193.40625 156.195312 Z M 193.40625 156.195312 "/>
<path style=" stroke:none;fill-rule:nonzero;fill:rgb(0%,0%,0%);fill-opacity:1;" d="M 205.390625 154.667969 C 205.113281 155.726562 204.878906 156.652344 204.683594 157.449219 C 204.488281 158.242188 204.414062 158.738281 204.449219 158.933594 C 204.367188 159.089844 204.164062 159.203125 203.832031 159.253906 C 203.484375 159.3125 203.128906 159.332031 202.777344 159.3125 C 202.445312 159.300781 202.117188 159.242188 201.804688 159.136719 C 201.535156 159.039062 201.398438 158.914062 201.398438 158.757812 C 201.511719 158.390625 201.601562 158.023438 201.667969 157.644531 C 201.765625 157.136719 201.894531 156.554688 202.050781 155.890625 C 202.089844 155.335938 202.1875 154.785156 202.34375 154.253906 C 202.496094 153.707031 202.65625 153.121094 202.8125 152.496094 C 203.011719 151.792969 203.257812 151.097656 203.542969 150.421875 C 203.917969 149.507812 204.347656 148.492188 204.835938 147.378906 C 205.324219 146.265625 205.835938 145.125 206.363281 143.957031 C 206.894531 142.789062 207.382812 141.695312 207.832031 140.683594 C 208.285156 139.671875 208.664062 138.8125 208.980469 138.109375 C 209.292969 137.40625 209.488281 136.980469 209.566406 136.824219 C 209.644531 136.703125 209.839844 136.617188 210.15625 136.558594 C 210.484375 136.5 210.820312 136.480469 211.152344 136.5 C 211.460938 136.511719 211.765625 136.558594 212.0625 136.644531 C 212.316406 136.722656 212.425781 136.820312 212.382812 136.933594 C 212.191406 137.292969 212.011719 137.664062 211.855469 138.042969 C 211.585938 138.667969 211.246094 139.449219 210.828125 140.386719 C 210.414062 141.320312 209.972656 142.371094 209.507812 143.542969 C 209.039062 144.710938 208.570312 145.902344 208.097656 147.109375 C 208.449219 146.800781 208.792969 146.507812 209.125 146.234375 C 209.457031 145.964844 209.742188 145.746094 209.976562 145.589844 C 210.757812 145.082031 211.550781 144.886719 212.359375 145.003906 C 213.167969 145.121094 213.640625 145.433594 213.796875 145.941406 C 213.953125 146.410156 213.980469 147.042969 213.886719 147.84375 C 213.777344 148.671875 213.515625 149.476562 213.121094 150.210938 C 212.703125 151 212.144531 151.703125 211.476562 152.289062 C 210.789062 152.894531 209.941406 153.289062 209.039062 153.425781 C 209.292969 153.859375 209.507812 154.308594 209.683594 154.777344 C 209.839844 155.207031 210 155.605469 210.15625 155.976562 C 210.292969 156.316406 210.472656 156.640625 210.683594 156.941406 C 210.878906 157.214844 211.144531 157.4375 211.445312 157.585938 C 211.484375 157.625 211.640625 157.488281 211.917969 157.179688 C 212.191406 156.871094 212.542969 156.449219 212.972656 155.921875 C 213.40625 155.394531 213.863281 154.800781 214.355469 154.136719 C 214.84375 153.472656 215.34375 152.8125 215.851562 152.148438 C 216.359375 151.484375 216.832031 150.882812 217.261719 150.335938 L 218.320312 148.984375 C 218.5625 148.710938 218.921875 148.566406 219.289062 148.605469 C 219.695312 148.625 219.828125 148.773438 219.667969 149.039062 C 218.691406 150.519531 217.664062 151.992188 216.585938 153.453125 C 215.507812 154.914062 214.5 156.269531 213.558594 157.519531 C 213.480469 157.636719 213.34375 157.808594 213.152344 158.046875 C 212.933594 158.304688 212.6875 158.539062 212.417969 158.746094 C 212.136719 158.976562 211.832031 159.183594 211.511719 159.359375 C 211.246094 159.523438 210.941406 159.617188 210.628906 159.628906 C 209.730469 159.628906 209.035156 159.378906 208.546875 158.871094 C 208.050781 158.359375 207.65625 157.765625 207.371094 157.117188 C 207.074219 156.445312 206.835938 155.75 206.664062 155.039062 C 206.523438 154.421875 206.316406 153.824219 206.046875 153.253906 C 207.246094 152.65625 208.355469 151.886719 209.335938 150.972656 C 210.238281 150.117188 210.628906 148.949219 210.511719 147.464844 C 210.46875 147.324219 210.4375 147.175781 210.421875 147.03125 C 210.402344 146.851562 210.257812 146.820312 209.988281 146.941406 C 209.753906 147.101562 209.253906 147.558594 208.492188 148.316406 C 207.6875 149.136719 207.039062 150.097656 206.582031 151.152344 C 206.101562 152.484375 205.703125 153.65625 205.390625 154.667969 Z M 205.390625 154.667969 "/>
<path style=" stroke:none;fill-rule:nonzero;fill:rgb(0%,0%,0%);fill-opacity:1;" d="M 230.46875 149.054688 C 230.234375 149.367188 229.902344 149.863281 229.46875 150.546875 C 229.039062 151.226562 228.507812 151.976562 227.878906 152.796875 C 227.25 153.617188 226.554688 154.457031 225.796875 155.3125 C 225.046875 156.15625 224.222656 156.929688 223.332031 157.621094 C 222.492188 158.28125 221.5625 158.820312 220.574219 159.226562 C 219.652344 159.609375 218.652344 159.75 217.664062 159.632812 C 216.726562 159.515625 216.03125 159.195312 215.578125 158.667969 C 215.125 158.140625 214.839844 157.488281 214.757812 156.792969 C 214.664062 156.011719 214.722656 155.21875 214.933594 154.460938 C 215.140625 153.648438 215.425781 152.851562 215.785156 152.09375 C 216.097656 151.507812 216.507812 150.816406 217.019531 150.015625 C 217.550781 149.191406 218.160156 148.417969 218.839844 147.707031 C 219.523438 146.984375 220.316406 146.375 221.191406 145.898438 C 222.054688 145.429688 223.027344 145.207031 224.007812 145.253906 C 224.585938 145.292969 225.039062 145.417969 225.328125 145.632812 C 225.613281 145.832031 225.820312 146.121094 225.917969 146.453125 C 226.015625 146.804688 226.023438 147.175781 225.945312 147.53125 C 225.867188 147.921875 225.769531 148.3125 225.65625 148.699219 C 225.5 149.207031 225.164062 149.84375 224.65625 150.601562 C 224.101562 151.417969 223.484375 152.191406 222.808594 152.910156 C 222.0625 153.707031 221.253906 154.453125 220.398438 155.132812 C 219.5625 155.804688 218.644531 156.375 217.667969 156.828125 C 217.652344 157.195312 217.742188 157.5625 217.929688 157.882812 C 218.109375 158.152344 218.410156 158.25 218.84375 158.167969 C 219.15625 158.132812 219.625 157.9375 220.253906 157.585938 C 220.941406 157.191406 221.609375 156.761719 222.25 156.296875 C 222.953125 155.789062 223.648438 155.234375 224.332031 154.628906 C 224.941406 154.105469 225.503906 153.527344 226.007812 152.898438 L 229.179688 148.984375 C 229.300781 148.847656 229.449219 148.738281 229.617188 148.667969 C 229.789062 148.597656 229.972656 148.566406 230.15625 148.574219 C 230.558594 148.582031 230.667969 148.742188 230.46875 149.054688 Z M 218.839844 152.5625 C 218.726562 152.832031 218.546875 153.261719 218.3125 153.851562 C 218.074219 154.457031 217.894531 155.085938 217.785156 155.726562 C 218.703125 155.058594 219.550781 154.292969 220.308594 153.445312 C 221.152344 152.542969 221.921875 151.578125 222.605469 150.550781 C 223.234375 149.59375 223.65625 148.765625 223.871094 148.0625 C 224.082031 147.363281 223.894531 146.992188 223.308594 146.953125 C 222.996094 146.914062 222.644531 147.070312 222.253906 147.421875 C 221.808594 147.832031 221.414062 148.292969 221.078125 148.792969 C 220.6875 149.359375 220.296875 149.972656 219.902344 150.636719 C 219.511719 151.300781 219.160156 151.941406 218.839844 152.5625 Z M 218.839844 152.5625 "/>
<path style=" stroke:none;fill-rule:nonzero;fill:rgb(0%,0%,0%);fill-opacity:1;" d="M 235.519531 147.882812 C 235.109375 148.855469 234.640625 149.804688 234.113281 150.71875 C 233.484375 151.828125 232.902344 152.902344 232.375 153.933594 C 231.925781 154.777344 231.550781 155.65625 231.257812 156.566406 C 231.042969 157.285156 231.207031 157.644531 231.757812 157.644531 C 232.070312 157.644531 232.558594 157.296875 233.226562 156.59375 C 233.890625 155.890625 234.605469 155.074219 235.371094 154.140625 C 236.132812 153.207031 236.875 152.25 237.601562 151.277344 C 238.324219 150.300781 238.90625 149.539062 239.339844 148.992188 C 239.460938 148.859375 239.609375 148.753906 239.777344 148.6875 C 239.945312 148.621094 240.128906 148.59375 240.308594 148.613281 C 240.71875 148.632812 240.828125 148.78125 240.628906 149.046875 C 240.238281 149.671875 239.65625 150.566406 238.875 151.738281 C 238.097656 152.90625 237.253906 154.058594 236.347656 155.1875 C 235.496094 156.269531 234.5625 157.285156 233.558594 158.230469 C 232.601562 159.128906 231.570312 159.578125 230.476562 159.578125 C 229.652344 159.617188 229.105469 159.414062 228.832031 158.964844 C 228.554688 158.515625 228.460938 157.941406 228.542969 157.234375 C 228.652344 156.417969 228.878906 155.621094 229.214844 154.867188 C 229.589844 153.988281 229.980469 153.125 230.390625 152.269531 C 230.804688 151.417969 231.195312 150.617188 231.566406 149.871094 C 231.863281 149.300781 232.128906 148.714844 232.359375 148.117188 C 232.398438 147.882812 232.226562 147.777344 231.859375 147.796875 C 231.511719 147.804688 231.1875 147.992188 231.007812 148.292969 L 230.949219 148.351562 C 230.820312 148.496094 230.699219 148.652344 230.597656 148.820312 C 230.492188 148.984375 230.375 149.140625 230.246094 149.289062 C 229.894531 149.71875 229.519531 149.902344 229.128906 149.84375 C 228.738281 149.785156 228.679688 149.574219 228.953125 149.230469 L 229.242188 148.824219 C 229.632812 148.128906 229.878906 147.363281 229.976562 146.570312 C 230.074219 145.921875 230.082031 145.261719 230.007812 144.613281 C 229.96875 144.496094 230.085938 144.386719 230.359375 144.289062 C 230.65625 144.1875 230.960938 144.109375 231.269531 144.058594 C 231.550781 144.003906 231.835938 143.984375 232.121094 144 C 232.355469 144.019531 232.410156 144.105469 232.296875 144.261719 C 231.984375 144.769531 232.101562 145.316406 232.648438 145.898438 C 232.765625 145.988281 232.910156 146.027344 233.054688 146.015625 L 233.699219 146.015625 C 233.933594 146.015625 234.160156 146.027344 234.375 146.042969 C 234.457031 146.042969 234.539062 146.0625 234.617188 146.097656 C 234.691406 146.132812 234.757812 146.1875 234.808594 146.25 C 235.480469 146.910156 235.714844 147.453125 235.519531 147.882812 Z M 235.519531 147.882812 "/>
<g clip-path="url(#clip4)" clip-rule="nonzero">
<path style=" stroke:none;fill-rule:nonzero;fill:rgb(0%,0%,0%);fill-opacity:1;" d="M 249.851562 150.046875 C 249.039062 151.054688 248.167969 152.011719 247.242188 152.914062 C 246.195312 153.902344 244.96875 154.679688 243.625 155.195312 C 243.429688 155.664062 243.214844 156.121094 242.980469 156.570312 C 242.730469 157.035156 242.414062 157.457031 242.035156 157.828125 C 241.640625 158.21875 241.210938 158.617188 240.742188 159.027344 C 240.273438 159.429688 239.644531 159.71875 238.859375 159.875 C 237.878906 160.066406 237.125 159.988281 236.597656 159.640625 C 236.070312 159.292969 235.765625 158.84375 235.6875 158.289062 C 235.609375 157.738281 235.746094 157.1875 236.097656 156.621094 C 236.449219 156.058594 237.042969 155.640625 237.863281 155.367188 C 238.25 155.210938 238.65625 155.09375 239.066406 155.015625 C 239.472656 154.9375 239.894531 154.859375 240.328125 154.78125 C 240.597656 153.832031 240.785156 152.863281 240.886719 151.886719 C 240.984375 150.929688 241.070312 150.238281 241.152344 149.808594 C 241.214844 149.441406 241.246094 149.070312 241.238281 148.695312 C 241.21875 148.503906 241.054688 148.582031 240.738281 148.929688 L 240.386719 149.28125 C 240.035156 149.710938 239.660156 149.898438 239.269531 149.835938 C 238.878906 149.78125 238.820312 149.574219 239.09375 149.222656 L 239.738281 148.464844 L 239.738281 148.347656 C 240.085938 147.886719 240.390625 147.398438 240.652344 146.886719 C 240.933594 146.316406 241.175781 145.730469 241.386719 145.128906 C 241.425781 144.9375 241.621094 144.757812 241.972656 144.601562 C 242.320312 144.449219 242.683594 144.332031 243.050781 144.25 C 243.371094 144.171875 243.703125 144.171875 244.023438 144.25 C 244.082031 144.261719 244.136719 144.285156 244.1875 144.316406 C 244.238281 144.347656 244.28125 144.390625 244.3125 144.4375 C 244.347656 144.488281 244.367188 144.542969 244.382812 144.601562 C 244.390625 144.660156 244.390625 144.71875 244.382812 144.777344 C 244.183594 145.589844 244.085938 146.425781 244.089844 147.261719 C 244.089844 148.140625 244.109375 149.027344 244.148438 149.925781 C 244.148438 150.550781 244.140625 151.164062 244.121094 151.769531 C 244.101562 152.371094 244.054688 152.984375 243.976562 153.609375 C 244.996094 153.089844 245.933594 152.433594 246.769531 151.652344 C 247.644531 150.808594 248.476562 149.921875 249.261719 148.988281 C 249.382812 148.855469 249.53125 148.75 249.703125 148.683594 C 249.871094 148.617188 250.050781 148.589844 250.230469 148.609375 C 250.636719 148.628906 250.75 148.777344 250.554688 149.042969 Z M 237.871094 158.527344 C 238.339844 158.492188 238.738281 158.242188 239.074219 157.796875 C 239.441406 157.289062 239.726562 156.726562 239.925781 156.132812 C 239.367188 156.25 238.824219 156.4375 238.308594 156.6875 C 237.96875 156.851562 237.652344 157.058594 237.363281 157.300781 C 237.191406 157.445312 237.050781 157.625 236.957031 157.828125 C 236.917969 157.917969 236.886719 158.015625 236.871094 158.113281 C 236.921875 158.214844 236.992188 158.308594 237.074219 158.382812 C 237.171875 158.488281 237.433594 158.535156 237.867188 158.535156 Z M 237.871094 158.527344 "/>
</g>
<path style=" stroke:none;fill-rule:nonzero;fill:rgb(90.980392%,29.411765%,38.039216%);fill-opacity:1;" d="M 45.414062 108.601562 L 36.765625 108.601562 C 35.539062 108.597656 34.363281 109.082031 33.492188 109.949219 C 32.621094 110.816406 32.132812 111.992188 32.128906 113.21875 L 32.128906 121.828125 C 32.136719 124.382812 34.210938 126.449219 36.761719 126.441406 L 45.410156 126.441406 C 47.964844 126.445312 50.039062 124.382812 50.042969 121.828125 L 50.042969 113.21875 C 50.039062 110.664062 47.96875 108.601562 45.414062 108.601562 Z M 45.414062 108.601562 "/>
<path style=" stroke:none;fill-rule:nonzero;fill:rgb(100%,76.078431%,5.098039%);fill-opacity:1;" d="M 76.757812 108.601562 L 61.964844 108.601562 C 61.550781 108.601562 61.15625 108.765625 60.863281 109.058594 C 60.570312 109.351562 60.40625 109.746094 60.40625 110.160156 L 60.40625 124.886719 C 60.40625 125.746094 61.105469 126.441406 61.964844 126.441406 L 76.757812 126.441406 C 77.621094 126.445312 78.320312 125.746094 78.320312 124.886719 L 78.320312 110.160156 C 78.320312 109.300781 77.621094 108.601562 76.757812 108.601562 Z M 76.757812 108.601562 "/>
<path style=" stroke:none;fill-rule:evenodd;fill:rgb(36.862745%,65.490196%,27.45098%);fill-opacity:1;" d="M 39.40625 137.058594 C 39.753906 136.453125 40.394531 136.082031 41.09375 136.082031 C 41.789062 136.082031 42.433594 136.453125 42.78125 137.058594 L 46.136719 142.839844 L 49.488281 148.621094 C 49.832031 149.222656 49.832031 149.960938 49.484375 150.5625 C 49.136719 151.160156 48.496094 151.53125 47.800781 151.527344 L 34.386719 151.527344 C 33.691406 151.53125 33.046875 151.164062 32.699219 150.5625 C 32.351562 149.960938 32.351562 149.222656 32.699219 148.621094 L 36.054688 142.839844 Z M 39.40625 137.058594 "/>
</g>
</svg>
