<?xml version="1.0" encoding="utf-8"?>
<!-- Generator: Adobe Illustrator 26.0.2, SVG Export Plug-In . SVG Version: 6.00 Build 0)  -->
<svg version="1.1" id="Layer_1" xmlns="http://www.w3.org/2000/svg" xmlns:xlink="http://www.w3.org/1999/xlink" x="0px" y="0px"
	 viewBox="0 0 269 70" style="enable-background:new 0 0 269 70;" xml:space="preserve">
<style type="text/css">
	.st0{fill:#FFFFFF;}
	.st1{fill:#E84B61;}
	.st2{fill:#FFC20D;}
	.st3{fill-rule:evenodd;clip-rule:evenodd;fill:#5EA746;}
</style>
<path class="st0" d="M53.8,49.2c-1.6,0-2.8-1.3-2.8-2.8l0,0V9.5c0-1.6,1.3-2.8,2.8-2.8c0,0,0,0,0,0h39c1.6-0.1,2.9,1.1,3,2.7
	s-1.1,2.9-2.7,3c-0.1,0-0.2,0-0.3,0H56.7v34.1C56.7,48,55.4,49.2,53.8,49.2z"/>
<path class="st0" d="M106.4,62.3H69.8c-1.6-0.1-2.8-1.4-2.8-3c0.1-1.5,1.2-2.6,2.6-2.7h34V25.4c-0.1-1.6,1.1-2.9,2.7-3
	s2.9,1.1,3,2.7c0,0.1,0,0.2,0,0.3v34.1C109.3,61.1,108.1,62.3,106.4,62.3L106.4,62.3z"/>
<path d="M88.1,53.1C88.1,53.1,88.1,53.1,88.1,53.1c0.2-0.1,0.2-0.2,0.1-0.2c0,0,0,0,0,0c-0.1,0-0.1,0-0.2,0h-0.1
	c-0.1,0.1-0.1,0.1,0,0.2c0,0,0,0,0,0C87.9,53.1,88,53.1,88.1,53.1L88.1,53.1z"/>
<path class="st0" d="M79.8,49.2c-1.6,0-2.8-1.3-2.8-2.8V34.7c0-1.6,1.3-2.8,2.8-2.9h11.7c1.6,0,2.8,1.3,2.8,2.9
	c0,1.6-1.3,2.8-2.8,2.8h-8.8v8.8C82.6,47.9,81.4,49.2,79.8,49.2C79.8,49.2,79.8,49.2,79.8,49.2z"/>
<path class="st0" d="M96.4,53.8c-0.8,0-1.5-0.3-2-0.8L79.3,37.8c-1-1.2-0.7-3,0.5-4c1-0.8,2.5-0.8,3.5,0l0,0l15.2,15.1
	c1.1,1.1,1.1,2.9,0,4C97.9,53.4,97.2,53.7,96.4,53.8L96.4,53.8z"/>
<path class="st0" d="M123.5,27.7h8.4l-0.9,4h-13.7l4-17.2h5.3L123.5,27.7z"/>
<path class="st0" d="M137.2,31.9c-0.8,0-1.5-0.2-2.2-0.6c-0.7-0.4-1.2-1-1.6-1.7c-0.4-0.9-0.6-1.8-0.6-2.8c0-1,0.1-2.1,0.4-3.1
	c0.3-1,0.7-1.9,1.3-2.7c0.5-0.8,1.2-1.5,2-2c0.8-0.5,1.7-0.8,2.7-0.7c0.5,0,1,0.1,1.5,0.3c1.1,0.4,1.9,1.4,2.1,2.6l0.6-2.7h5.3
	l-3,13h-4.8l0.4-2.5c-0.4,0.8-1,1.5-1.7,2C138.9,31.6,138.1,31.9,137.2,31.9z M139.7,28.1c0.4,0,0.7-0.1,1-0.4
	c0.3-0.3,0.6-0.6,0.8-1c0.2-0.4,0.4-0.9,0.5-1.4c0.1-0.4,0.2-0.9,0.2-1.4c0-0.3,0-0.7-0.2-1c-0.1-0.3-0.3-0.5-0.5-0.6
	c-0.2-0.2-0.5-0.2-0.8-0.2c-0.4,0-0.8,0.1-1.1,0.4c-0.3,0.3-0.6,0.7-0.8,1c-0.2,0.4-0.4,0.9-0.5,1.3c-0.1,0.4-0.2,0.8-0.2,1.3
	c0,0.3,0.1,0.7,0.2,1c0.1,0.3,0.3,0.5,0.5,0.7C139.1,28.1,139.4,28.1,139.7,28.1L139.7,28.1z"/>
<path class="st0" d="M147.6,31.6l3-13h4.7l-0.7,4.6l-0.2-0.5c0.3-1.3,1-2.4,1.9-3.2c0.9-0.8,2.1-1.2,3.3-1.1c0.8,0,1.6,0.2,2.3,0.6
	c0.6,0.4,1.1,1,1.3,1.7c0.2,0.9,0.2,1.8,0,2.6l-2,8.4h-5.3l1.8-7.6c0.1-0.4,0.1-0.9-0.1-1.3c-0.2-0.3-0.6-0.5-1.1-0.5
	c-0.3,0-0.6,0.1-0.9,0.3c-0.3,0.2-0.5,0.5-0.7,0.8c-0.2,0.4-0.4,0.8-0.4,1.2l-1.6,7.1L147.6,31.6z"/>
<path class="st0" d="M168.1,31.9c-0.8,0-1.5-0.2-2.2-0.6c-0.7-0.4-1.2-1-1.6-1.7c-0.4-0.9-0.6-1.8-0.6-2.8c0-1,0.2-2.1,0.4-3.1
	c0.3-1,0.7-1.9,1.3-2.7c0.5-0.8,1.2-1.5,2-2c0.8-0.5,1.7-0.8,2.7-0.7c0.5,0,1,0.1,1.5,0.3c0.5,0.2,1,0.5,1.3,0.9
	c0.4,0.5,0.7,1.1,0.7,1.7l1.9-8h5.3l-4.2,18.4h-4.8l0.4-2.5c-0.4,0.8-1,1.5-1.7,2C169.8,31.7,168.9,31.9,168.1,31.9z M170.5,28.1
	c0.4,0,0.7-0.1,1-0.4c0.3-0.3,0.6-0.6,0.8-1c0.2-0.4,0.4-0.9,0.5-1.4c0.1-0.4,0.2-0.9,0.2-1.4c0-0.3,0-0.7-0.2-1
	c-0.1-0.3-0.3-0.5-0.5-0.6c-0.2-0.2-0.5-0.2-0.8-0.2c-0.4,0-0.8,0.1-1.1,0.4c-0.3,0.3-0.6,0.7-0.8,1c-0.4,0.8-0.6,1.7-0.6,2.6
	c0,0.4,0.1,0.7,0.2,1c0.1,0.3,0.3,0.5,0.5,0.7C169.9,28.1,170.2,28.1,170.5,28.1z"/>
<path class="st0" d="M186.7,18.6l-3,13h-5.3l3-13H186.7z M184.6,17.5c-0.7,0-1.4-0.1-2-0.5c-0.5-0.4-0.7-1.1-0.6-1.7
	c0-0.7,0.4-1.4,0.9-1.9c0.7-0.4,1.4-0.6,2.2-0.5c0.7,0,1.5,0.1,2.1,0.5c0.5,0.4,0.7,1,0.6,1.6c0,0.8-0.4,1.5-1,2
	C186.1,17.4,185.3,17.5,184.6,17.5L184.6,17.5z"/>
<path class="st0" d="M185.6,31.6l3-13h4.7l-0.7,4.6l-0.2-0.5c0.3-1.3,1-2.4,1.9-3.2c0.9-0.8,2.1-1.2,3.3-1.1c0.8,0,1.6,0.2,2.3,0.6
	c0.6,0.4,1.1,1,1.3,1.7c0.2,0.9,0.2,1.8,0,2.6l-2,8.4h-5.3l1.8-7.6c0.1-0.4,0.1-0.9-0.1-1.3c-0.2-0.3-0.6-0.5-1-0.5
	c-0.3,0-0.6,0.1-0.9,0.3c-0.3,0.2-0.5,0.5-0.7,0.8c-0.2,0.4-0.4,0.8-0.4,1.2l-1.6,7.1L185.6,31.6z"/>
<path class="st0" d="M206.7,37.2c-0.8,0-1.5-0.1-2.3-0.3c-0.7-0.2-1.4-0.5-2-0.9c-0.6-0.4-1.1-0.9-1.4-1.5c-0.3-0.7-0.5-1.5-0.4-2.2
	l5.3-0.4c0,0.5,0,1.1,0.3,1.5c0.3,0.4,0.8,0.6,1.3,0.6c0.3,0,0.6-0.1,0.9-0.3c0.3-0.2,0.5-0.5,0.7-0.8c0.2-0.5,0.4-1,0.5-1.5
	l1.1-4.6l0.2,0.1c-0.2,1.2-0.7,2.4-1.5,3.3c-0.8,0.8-1.8,1.2-2.9,1.1c-0.8,0-1.5-0.2-2.2-0.6c-0.7-0.4-1.2-1-1.6-1.7
	c-0.4-0.8-0.6-1.8-0.6-2.7c0-1,0.1-2,0.4-3c0.3-0.9,0.7-1.8,1.3-2.6c0.5-0.7,1.2-1.4,2-1.8c0.8-0.4,1.7-0.7,2.6-0.7
	c0.6,0,1.2,0.1,1.8,0.4c0.6,0.3,1,0.8,1.4,1.3c0.4,0.7,0.6,1.6,0.5,2.4l-0.6,0.8l1.1-4.7h5.3l-2.8,12.2c-0.3,1.4-0.8,2.7-1.6,3.9
	c-0.7,0.9-1.6,1.6-2.7,2C209.3,37.1,208,37.3,206.7,37.2z M208.7,27.6c0.5,0,1-0.2,1.3-0.6c0.4-0.4,0.6-0.9,0.8-1.4
	c0.2-0.5,0.3-1.1,0.3-1.7c0-0.3-0.1-0.7-0.2-1c-0.2-0.5-0.7-0.9-1.3-0.9c-0.5,0-1,0.2-1.3,0.6c-0.4,0.4-0.6,0.9-0.8,1.4
	c-0.2,0.5-0.2,1-0.3,1.5c0,0.5,0.1,1,0.4,1.4C207.8,27.4,208.2,27.6,208.7,27.6L208.7,27.6z"/>
<path class="st0" d="M132.3,46c-0.3,0.4-0.6,0.8-1.1,1.3c-0.5,0.5-1,1-1.5,1.5c-0.6,0.5-1.1,1-1.8,1.4c-0.6,0.4-1.2,0.8-1.8,1
	c-0.5,0.5-1,1-1.7,1.4c-0.6,0.3-1.3,0.5-1.9,0.4c-0.2,0-0.4-0.1-0.6-0.2c-0.3,1.1-0.7,2.2-1,3.3s-0.7,2.2-1,3.1s-0.6,1.8-0.8,2.4
	c-0.1,0.4-0.2,0.8-0.4,1.2c-0.1,0.1-0.3,0.2-0.4,0.2c-0.2,0-0.5,0-0.7,0c-0.2,0-0.4-0.1-0.6-0.1c-0.2-0.1-0.3-0.1-0.2-0.2
	c0.2-0.4,0.3-0.7,0.4-1.1c0.2-0.7,0.5-1.5,0.8-2.5s0.6-2.1,1-3.3s0.7-2.4,1-3.6s0.7-2.3,1-3.3s0.6-1.9,0.8-2.5s0.4-1.4,0.5-2.1
	s0.2-1,0.2-1.1s0.2-0.2,0.4-0.2c0.3,0,0.5,0,0.8,0c0.2,0,0.5,0.1,0.7,0.1c0.2,0.1,0.3,0.2,0.3,0.2c-0.1,0.2-0.1,0.4-0.2,0.6
	c0,0.3-0.1,0.6-0.2,1c0.4-0.5,0.9-1,1.4-1.4c0.5-0.4,1-0.7,1.7-0.7c0.6-0.1,1.1,0.1,1.5,0.6c0.2,0.5,0.3,1,0.3,1.5
	c0,0.6-0.2,1.2-0.4,1.7c-0.2,0.6-0.3,1-0.4,1.3s-0.3,0.7-0.5,1.1c-0.2,0.4-0.4,0.7-0.6,1.1c0.9-0.6,1.8-1.3,2.5-2.1
	c0.8-0.9,1.6-1.8,2.3-2.8c0.2-0.2,0.4-0.3,0.7-0.3c0.3,0,0.4,0.1,0.2,0.3L132.3,46z M122.9,52c0.3,0.1,0.6-0.1,1-0.6
	c-0.5-0.1-0.9-0.4-1.2-0.8l-0.3,0.8C122.4,51.8,122.5,52,122.9,52z M124.9,45.2c-0.1,0.2-0.3,0.4-0.4,0.6l-0.4,0.8l-0.3,0.8
	c-0.1,0.3-0.2,0.5-0.3,0.8c-0.1,0.2-0.1,0.5-0.1,0.7c0,0.3,0,0.5,0.1,0.8c0.1,0.3,0.2,0.5,0.3,0.7c0.1,0.2,0.4,0.3,0.6,0.4
	c0.3-0.5,0.6-1,0.9-1.5c0.3-0.5,0.6-1.1,0.8-1.7c0.2-0.5,0.4-1,0.6-1.6c0.1-0.4,0.3-0.9,0.3-1.4c0.1-0.3,0.1-0.6,0.1-0.9
	c0-0.2-0.1-0.3-0.2-0.3c-0.2,0-0.4,0.1-0.6,0.3c-0.2,0.2-0.4,0.3-0.6,0.5c-0.2,0.2-0.4,0.4-0.5,0.6L124.9,45.2L124.9,45.2z"/>
<path class="st0" d="M136.2,42.6c0.3,0,0.7,0.1,0.9,0.3c0.2,0,0.3,0,0.5,0c0.2,0,0.4,0,0.6,0c0.2,0,0.3,0,0.5,0.1
	c0.1,0,0.2,0.1,0.2,0.2c-0.2,0.3-0.3,0.5-0.4,0.8l-0.6,1.5c-0.2,0.6-0.5,1.2-0.7,1.8s-0.4,1.3-0.6,1.8c-0.1,0.5-0.3,1-0.3,1.5
	c-0.1,0.4,0,0.7,0.1,0.7s0.3-0.2,0.7-0.7s0.9-1.1,1.4-1.8s1.1-1.4,1.6-2.1s0.9-1.2,1.3-1.6c0.2-0.2,0.4-0.3,0.7-0.3
	c0.3,0,0.4,0.1,0.2,0.3c-0.7,1.1-1.4,2.1-2.2,3.2s-1.5,2-2.2,2.9c-0.1,0.1-0.2,0.3-0.3,0.4s-0.4,0.3-0.5,0.5
	c-0.2,0.2-0.4,0.3-0.6,0.4c-0.2,0.1-0.4,0.2-0.6,0.2c-0.7,0-1.1-0.2-1.3-0.6c-0.2-0.5-0.3-1.1-0.2-1.6c-0.4,0.6-0.9,1.1-1.4,1.5
	c-0.5,0.5-1.1,0.7-1.8,0.8c-0.5,0.1-1.1-0.1-1.4-0.5c-0.3-0.4-0.4-0.8-0.4-1.2c0-0.5,0-1,0.2-1.5c0.1-0.4,0.2-0.7,0.4-1.1
	c0.3-0.7,0.7-1.4,1.1-2.1c0.5-0.7,1-1.4,1.5-2c0.5-0.6,1.2-1.1,1.9-1.5C134.8,42.7,135.5,42.6,136.2,42.6z M133.4,50.3
	c0.1-0.2,0.2-0.3,0.3-0.5l0.4-0.6l0.4-0.7l0.3-0.5l0.1-0.4c0.2-0.6,0.4-1.1,0.6-1.6s0.4-1,0.6-1.4v-0.1c0.1-0.3,0.2-0.6,0.3-0.9
	s0-0.5-0.3-0.5c-0.4,0-0.7,0.2-1,0.5c-0.4,0.4-0.7,0.8-1,1.2c-0.3,0.5-0.7,1-1,1.6l-1,1.8c-0.5,0.8-0.9,1.7-1.1,2.6
	c-0.1,0.7,0,1,0.4,0.9c0.5-0.1,0.9-0.3,1.2-0.7C133,50.7,133.2,50.4,133.4,50.3L133.4,50.3z"/>
<path class="st0" d="M145.4,42.6c0.4,0,0.8,0.2,1.1,0.5c0.3-0.1,0.7-0.1,1,0c0.4,0.1,0.5,0.2,0.5,0.3c-0.2,0.4-0.4,0.8-0.6,1.2
	c-0.2,0.6-0.5,1.2-0.7,1.9s-0.5,1.4-0.8,2.2l-0.7,2.1c1.1-0.8,2.2-1.8,3-2.9c0.4-0.6,0.9-1.1,1.3-1.6l0.9-1.2
	c0.2-0.2,0.4-0.3,0.7-0.3c0.3,0,0.4,0.1,0.2,0.3c-0.3,0.5-0.7,1.1-1,1.5l-1,1.4c-0.6,0.8-1.3,1.5-2,2.2c-0.8,0.6-1.5,1.2-2.4,1.8
	v0.1c0,0,0,0,0,0.1c-0.3,1.4-0.6,2.7-0.7,4c-0.2,1.2-0.4,2.4-0.8,3.6c-0.3,1-0.9,1.9-1.6,2.6c-0.8,0.7-1.9,1.1-3,1
	c-0.6,0-1.2-0.1-1.7-0.4c-0.4-0.3-0.7-0.7-0.8-1.1c-0.2-0.4-0.2-0.9-0.2-1.3c0-0.4,0-0.7,0.1-1.1c0.2-0.8,0.5-1.5,0.9-2.2
	c0.4-0.6,1-1.2,1.6-1.8c0.6-0.6,1.3-1.1,2-1.5l2.2-1.4c0.1-0.3,0.1-0.6,0.2-0.9s0.1-0.5,0.2-0.8c-0.4,0.5-0.8,0.9-1.3,1.3
	c-0.5,0.4-1,0.6-1.6,0.7c-0.5,0.1-1.1-0.1-1.4-0.5c-0.3-0.4-0.4-0.8-0.4-1.2c0-0.5,0-1,0.2-1.4c0.1-0.4,0.2-0.7,0.4-1.1
	c0.3-0.7,0.6-1.4,1-2c0.4-0.7,1-1.4,1.5-2c0.5-0.6,1.2-1.1,1.9-1.5C144,42.7,144.7,42.6,145.4,42.6z M138.4,62.7
	c0.6,0,1.2-0.3,1.5-0.8c0.5-0.6,0.8-1.4,1.1-2.1c0.3-1,0.6-2,0.8-3c0.2-1.1,0.5-2.2,0.7-3.3c-1.2,0.7-2.4,1.5-3.4,2.5
	c-1,0.9-1.7,2.1-2.1,3.4c-0.1,0.4-0.1,0.8-0.1,1.2c0,0.4,0,0.7,0.1,1.1c0.1,0.3,0.2,0.6,0.5,0.8C137.8,62.6,138.1,62.7,138.4,62.7
	L138.4,62.7z M142.6,50.3c0.3-0.4,0.5-0.7,0.7-1.1c0.3-0.5,0.5-0.9,0.7-1.2l0.1-0.3c0.2-0.6,0.4-1.1,0.6-1.7c0.2-0.5,0.4-1,0.6-1.4
	v-0.1c0.1-0.3,0.2-0.6,0.3-0.9s0-0.5-0.3-0.5c-0.4,0-0.7,0.2-1,0.5c-0.4,0.4-0.7,0.8-1,1.2c-0.3,0.5-0.7,1-1,1.6l-1,1.8
	c-0.5,0.8-0.8,1.7-1.1,2.6c-0.1,0.7,0,1,0.4,0.9c0.5-0.1,0.9-0.3,1.2-0.7C142.3,50.7,142.5,50.4,142.6,50.3L142.6,50.3z"/>
<path class="st0" d="M159.3,45.1c-0.2,0.2-0.4,0.6-0.7,1.1c-0.3,0.5-0.7,1-1.1,1.6s-1,1.2-1.5,1.8c-0.5,0.6-1.1,1.2-1.8,1.7
	c-0.6,0.5-1.3,0.9-2,1.2c-0.7,0.3-1.4,0.4-2.1,0.3c-0.6,0-1.1-0.3-1.5-0.7c-0.3-0.4-0.5-0.9-0.6-1.4c-0.1-0.6-0.1-1.2,0.1-1.7
	c0.1-0.6,0.3-1.2,0.6-1.7c0.2-0.4,0.5-0.9,0.9-1.5c0.4-0.6,0.8-1.2,1.3-1.7c0.5-0.5,1.1-1,1.7-1.3c0.6-0.3,1.3-0.5,2-0.5
	c0.3,0,0.7,0.1,0.9,0.3c0.2,0.1,0.4,0.3,0.4,0.6c0.1,0.3,0.1,0.5,0,0.8c-0.1,0.3-0.1,0.6-0.2,0.8c-0.2,0.5-0.4,1-0.7,1.4
	c-0.4,0.6-0.8,1.2-1.3,1.7c-0.5,0.6-1,1.1-1.6,1.6c-0.6,0.5-1.3,0.9-2,1.2c0,0.3,0.1,0.5,0.2,0.8c0.1,0.2,0.4,0.3,0.6,0.2
	c0.4-0.1,0.7-0.2,1-0.4c0.5-0.3,1-0.6,1.4-0.9c0.5-0.4,1-0.8,1.5-1.2c0.4-0.4,0.8-0.8,1.2-1.3l2.3-2.8c0.1-0.1,0.2-0.2,0.3-0.2
	c0.1,0,0.2-0.1,0.4-0.1C159.3,44.8,159.4,44.9,159.3,45.1z M150.9,47.7c-0.1,0.2-0.2,0.5-0.4,0.9c-0.2,0.4-0.3,0.9-0.4,1.4
	c0.7-0.5,1.3-1,1.8-1.7c0.6-0.7,1.2-1.4,1.6-2.1c0.4-0.6,0.7-1.2,0.9-1.8c0.2-0.5,0-0.8-0.4-0.8c-0.3,0-0.6,0.1-0.8,0.3
	c-0.3,0.3-0.6,0.6-0.9,1c-0.3,0.4-0.6,0.9-0.9,1.3S151.1,47.2,150.9,47.7L150.9,47.7z"/>
<path class="st0" d="M170.4,48.7c0,0.2-0.1,0.4-0.1,0.6c-0.1,0.3-0.2,0.6-0.3,0.9c-0.1,0.3-0.1,0.6-0.2,0.9s0,0.4,0,0.4
	s0.4-0.3,0.8-0.8s1-1.2,1.6-1.9l1.8-2.1c0.6-0.7,1-1.2,1.3-1.6c0.2-0.2,0.4-0.3,0.7-0.3c0.3,0,0.4,0.1,0.3,0.3s-0.4,0.5-0.7,1
	s-0.7,1-1.1,1.6s-0.9,1.2-1.4,1.8s-1,1.2-1.5,1.7c-0.4,0.5-0.9,0.9-1.4,1.3c-0.3,0.3-0.7,0.4-1.1,0.5c-0.5,0-1-0.2-1.3-0.5
	c-0.3-0.3-0.4-0.6-0.4-1c0-0.6,0.1-1.2,0.3-1.7c0.2-0.6,0.4-1.3,0.6-2l0.7-2c0.2-0.7,0.4-1.3,0.6-1.8c0-0.1,0-0.2,0-0.3
	c0-0.1-0.1-0.1-0.3-0.1l-1,0.8c-0.6,0.5-1.1,1.1-1.4,1.8c-0.3,1.1-0.6,2.1-1,3.1c-0.4,1.1-0.8,2-1.2,2.9c-0.1,0.2-0.2,0.3-0.4,0.4
	c-0.2,0.1-0.5,0.2-0.7,0.2c-0.2,0-0.5,0-0.7,0c-0.2,0-0.4-0.2-0.4-0.3c0.2-0.6,0.5-1.3,0.8-2s0.6-1.5,0.8-2.2s0.5-1.5,0.6-2.2
	c0.2-0.7,0.3-1.4,0.3-2.1c0-0.1-0.1-0.2-0.1-0.3c0-0.1-0.2-0.1-0.4,0c-0.2,0.1-0.3,0.2-0.4,0.3c-0.2,0.2-0.4,0.5-0.6,0.7
	c-0.2,0.3-0.4,0.6-0.6,0.9c-0.2,0.3-0.3,0.6-0.5,0.9c-0.2,0.9-0.5,1.8-0.9,2.7c-0.4,0.9-0.8,1.8-1.3,2.7c-0.1,0.2-0.3,0.4-0.5,0.5
	c-0.3,0.1-0.5,0.2-0.8,0.3c-0.2,0.1-0.5,0.1-0.7,0c-0.2,0-0.3-0.2-0.3-0.4c0,0,0,0,0,0c0.2-0.6,0.5-1.3,0.9-1.9s0.6-1.3,0.8-1.9
	c0.2-0.6,0.4-1.3,0.6-1.9c0.1-0.6,0.2-1.3,0.2-2c0-0.1,0-0.1,0-0.2c0-0.1-0.1,0-0.2,0.1c-0.1,0.1-0.3,0.2-0.4,0.4
	c-0.1,0.1-0.2,0.3-0.3,0.4c-0.2,0.3-0.5,0.4-0.8,0.4c-0.3,0-0.3-0.2-0.1-0.4c0.2-0.3,0.5-0.7,0.8-1c0.3-0.3,0.6-0.6,0.9-1
	c0.2-0.2,0.4-0.3,0.6-0.4c0.2-0.1,0.5-0.2,0.7-0.2c0.2,0,0.4,0,0.6,0.1c0.1,0,0.2,0.1,0.2,0.2c0.1,0.1,0.1,0.2,0.1,0.3
	c0.1,0.5,0.1,1,0.1,1.4c0.5-0.8,1.1-1.4,1.9-2c0.4-0.3,0.9-0.5,1.4-0.5c0.4,0,0.9,0.1,1.1,0.5c0.2,0.2,0.2,0.5,0.3,0.8
	c0.1,0.4,0.1,0.8,0,1.1c0.3-0.4,0.7-0.8,1.1-1.2c0.3-0.3,0.7-0.5,1-0.8c0.3-0.2,0.6-0.3,0.9-0.4c0.3-0.1,0.6-0.1,0.9-0.1
	c0.2,0,0.5,0.1,0.7,0.2c0.1,0,0.2,0.1,0.2,0.2c0,0.1,0,0.2-0.1,0.3c0,0.4,0,0.7-0.1,1.1c-0.1,0.5-0.3,1-0.4,1.5s-0.3,1.1-0.5,1.7
	S170.6,48.3,170.4,48.7z"/>
<path class="st0" d="M179.5,42.7c0.3,0,0.7,0.1,0.9,0.3c0.2,0,0.3,0,0.5,0c0.2,0,0.4,0,0.6,0c0.2,0,0.3,0,0.5,0.1
	c0.1,0,0.2,0.1,0.2,0.2c-0.2,0.3-0.3,0.5-0.4,0.8l-0.6,1.5c-0.2,0.6-0.5,1.2-0.7,1.8s-0.4,1.3-0.6,1.8c-0.2,0.5-0.3,1-0.3,1.5
	c-0.1,0.4,0,0.6,0.1,0.7s0.3-0.2,0.7-0.7s0.9-1.1,1.4-1.8l1.6-2.1c0.5-0.7,0.9-1.2,1.2-1.6c0.2-0.2,0.4-0.3,0.7-0.3
	c0.3,0,0.4,0.1,0.2,0.3c-0.7,1.1-1.4,2.1-2.2,3.2s-1.5,2-2.2,2.9c-0.1,0.1-0.2,0.3-0.3,0.4c-0.2,0.2-0.3,0.4-0.5,0.5
	c-0.2,0.2-0.4,0.3-0.6,0.5c-0.2,0.1-0.4,0.2-0.6,0.2c-0.7,0-1.1-0.2-1.3-0.6c-0.2-0.5-0.3-1.1-0.2-1.6c-0.4,0.6-0.9,1.1-1.4,1.5
	c-0.5,0.5-1.1,0.7-1.8,0.8c-0.5,0.1-1.1-0.1-1.4-0.5c-0.3-0.4-0.4-0.8-0.4-1.2c0-0.5,0-1,0.2-1.5c0.1-0.4,0.2-0.7,0.4-1.1
	c0.3-0.7,0.6-1.4,1.1-2c0.5-0.7,1-1.4,1.6-2c0.5-0.6,1.2-1.1,1.9-1.5C178.1,42.9,178.8,42.7,179.5,42.7z M176.7,50.4
	c0.1-0.2,0.2-0.3,0.3-0.5l0.4-0.6l0.4-0.7l0.3-0.5l0.1-0.4c0.2-0.6,0.4-1.1,0.6-1.6c0.2-0.5,0.4-1,0.6-1.4v-0.1
	c0.1-0.3,0.2-0.6,0.3-0.9s0-0.5-0.2-0.4c-0.4,0-0.7,0.2-1,0.5c-0.4,0.4-0.7,0.7-1,1.2c-0.3,0.5-0.7,1-1,1.6l-1,1.8
	c-0.5,0.8-0.8,1.7-1.1,2.6c-0.1,0.7,0,1,0.4,0.9c0.5-0.1,0.9-0.3,1.2-0.7C176.4,50.8,176.6,50.5,176.7,50.4L176.7,50.4z"/>
<path class="st0" d="M185.3,49.3c-0.2,0.8-0.4,1.4-0.5,2c-0.1,0.3-0.2,0.7-0.2,1.1c-0.1,0.1-0.3,0.2-0.4,0.2c-0.3,0-0.5,0-0.8,0
	c-0.2,0-0.5-0.1-0.7-0.1c-0.2-0.1-0.3-0.2-0.3-0.3c0.1-0.3,0.1-0.5,0.2-0.8c0.1-0.4,0.2-0.8,0.3-1.3c0-0.4,0.1-0.8,0.2-1.2
	c0.1-0.4,0.2-0.8,0.3-1.3c0.1-0.5,0.3-1,0.5-1.5c0.3-0.7,0.6-1.4,0.9-2.2s0.7-1.6,1.1-2.5s0.7-1.6,1.1-2.4s0.6-1.4,0.8-1.9l0.4-0.9
	c0.1-0.1,0.3-0.2,0.4-0.2c0.2,0,0.5,0,0.7,0c0.2,0,0.4,0,0.6,0.1c0.2,0.1,0.3,0.1,0.2,0.2c-0.1,0.3-0.3,0.5-0.4,0.8l-0.7,1.7
	c-0.3,0.7-0.6,1.4-0.9,2.3s-0.7,1.7-1,2.6c0.2-0.2,0.5-0.4,0.7-0.6s0.4-0.3,0.6-0.5c0.5-0.4,1.1-0.5,1.7-0.4c0.6,0.1,0.9,0.3,1,0.7
	c0.1,0.4,0.1,0.9,0.1,1.4c-0.1,0.6-0.3,1.2-0.6,1.7c-0.3,0.6-0.7,1.1-1.2,1.5c-0.5,0.4-1.1,0.7-1.8,0.8c0.2,0.3,0.3,0.7,0.5,1
	c0.1,0.3,0.2,0.6,0.3,0.9c0.1,0.2,0.2,0.5,0.4,0.7c0.1,0.2,0.3,0.4,0.6,0.5c0,0,0.1-0.1,0.3-0.3s0.4-0.5,0.8-0.9s0.6-0.8,1-1.3
	s0.7-1,1.1-1.4l1-1.3l0.8-1c0.2-0.2,0.4-0.3,0.7-0.3c0.3,0,0.4,0.1,0.3,0.3c-0.7,1.1-1.4,2.2-2.2,3.2l-2.2,3l-0.3,0.4
	c-0.2,0.2-0.3,0.4-0.5,0.5c-0.2,0.2-0.4,0.3-0.6,0.4c-0.2,0.1-0.4,0.2-0.6,0.2c-0.6,0-1.1-0.2-1.5-0.5c-0.4-0.4-0.6-0.8-0.9-1.3
	c-0.2-0.5-0.4-1-0.5-1.5c-0.1-0.4-0.2-0.9-0.4-1.3c0.9-0.4,1.7-1,2.4-1.7c0.7-0.7,1-1.7,0.8-2.6c0-0.1,0-0.2-0.1-0.3
	c0-0.1-0.1-0.2-0.3-0.1c-0.4,0.3-0.7,0.6-1.1,1c-0.6,0.6-1,1.3-1.4,2.1C185.9,47.7,185.6,48.5,185.3,49.3z"/>
<path class="st0" d="M203.4,45.2c-0.2,0.2-0.4,0.6-0.7,1.1c-0.4,0.6-0.7,1.1-1.1,1.6c-0.5,0.6-1,1.2-1.5,1.8
	c-0.5,0.6-1.1,1.2-1.8,1.7c-0.6,0.5-1.3,0.9-2,1.2c-0.7,0.3-1.4,0.4-2.1,0.3c-0.6,0-1.1-0.3-1.5-0.7c-0.3-0.4-0.5-0.9-0.6-1.4
	c-0.1-0.6,0-1.1,0.1-1.7c0.1-0.6,0.4-1.2,0.6-1.7c0.2-0.4,0.5-0.9,0.9-1.5c0.4-0.6,0.8-1.2,1.3-1.7c0.5-0.5,1.1-1,1.7-1.3
	c0.6-0.3,1.3-0.5,2-0.5c0.4,0,0.7,0.1,1,0.3c0.2,0.1,0.3,0.4,0.4,0.6c0.1,0.3,0.1,0.5,0,0.8c-0.1,0.3-0.1,0.6-0.2,0.8
	c-0.2,0.5-0.4,1-0.7,1.4c-0.4,0.6-0.8,1.2-1.3,1.7c-0.5,0.6-1.1,1.1-1.7,1.6c-0.6,0.5-1.3,0.9-2,1.2c0,0.3,0.1,0.5,0.2,0.8
	c0.2,0.2,0.4,0.3,0.7,0.2c0.4-0.1,0.7-0.2,1-0.4c0.5-0.3,1-0.6,1.4-0.9c0.5-0.4,1-0.8,1.5-1.2c0.5-0.4,0.9-0.8,1.2-1.2l2.3-2.8
	c0.2-0.2,0.4-0.3,0.7-0.3C203.5,44.9,203.6,45,203.4,45.2z M195.1,47.8c-0.1,0.2-0.2,0.5-0.4,0.9c-0.2,0.4-0.3,0.9-0.4,1.4
	c0.7-0.5,1.3-1,1.8-1.7c0.6-0.7,1.2-1.4,1.7-2.1c0.4-0.6,0.7-1.2,0.9-1.8c0.2-0.5,0-0.8-0.4-0.8c-0.3,0-0.6,0.1-0.8,0.3
	c-0.3,0.3-0.6,0.6-0.8,1c-0.3,0.4-0.6,0.9-0.9,1.3S195.3,47.3,195.1,47.8z"/>
<path class="st0" d="M207.1,44.3c-0.3,0.7-0.6,1.4-1,2.1c-0.4,0.8-0.9,1.6-1.2,2.3c-0.3,0.6-0.6,1.2-0.8,1.9c-0.1,0.5,0,0.8,0.4,0.8
	c0.2,0,0.6-0.2,1.1-0.8s1-1.1,1.6-1.8s1.1-1.4,1.6-2.1l1.3-1.7c0.1-0.1,0.2-0.2,0.3-0.2c0.1,0,0.3-0.1,0.4-0.1
	c0.3,0,0.4,0.1,0.2,0.3c-0.3,0.5-0.7,1.1-1.3,2s-1.2,1.7-1.8,2.5c-0.6,0.8-1.3,1.5-2,2.2c-0.6,0.6-1.4,1-2.2,1
	c-0.4,0.1-0.9-0.1-1.2-0.5c-0.2-0.4-0.3-0.8-0.2-1.2c0.1-0.6,0.2-1.2,0.5-1.7c0.3-0.6,0.6-1.3,0.9-1.9s0.6-1.2,0.8-1.7
	c0.2-0.4,0.4-0.8,0.6-1.3c0-0.2-0.1-0.2-0.4-0.2c-0.1,0-0.3,0-0.4,0.1c-0.1,0.1-0.2,0.2-0.3,0.3l0,0c-0.1,0.1-0.2,0.2-0.3,0.3
	c-0.1,0.1-0.2,0.2-0.2,0.3c-0.2,0.3-0.5,0.4-0.8,0.4c-0.3,0-0.3-0.2-0.1-0.4l0.2-0.3c0.3-0.5,0.5-1.1,0.5-1.6c0.1-0.5,0.1-0.9,0-1.4
	c0-0.1,0-0.2,0.2-0.2c0.2-0.1,0.4-0.1,0.7-0.2c0.2,0,0.4,0,0.6,0c0.2,0,0.2,0.1,0.1,0.2c-0.2,0.4-0.1,0.8,0.2,1.2
	c0.1,0.1,0.2,0.1,0.3,0.1h0.5h0.5c0.1,0,0.1,0,0.2,0c0.1,0,0.1,0.1,0.1,0.1C207.1,43.7,207.2,44,207.1,44.3z"/>
<path class="st0" d="M217.4,45.9c-0.6,0.7-1.2,1.4-1.9,2.1c-0.7,0.7-1.6,1.3-2.6,1.7c-0.1,0.3-0.3,0.7-0.5,1
	c-0.2,0.3-0.4,0.6-0.7,0.9c-0.3,0.3-0.6,0.6-0.9,0.9c-0.4,0.3-0.9,0.5-1.4,0.6c-0.5,0.2-1.1,0.1-1.6-0.2c-0.4-0.2-0.6-0.6-0.6-1
	c-0.1-0.4,0.1-0.9,0.3-1.2c0.3-0.4,0.8-0.8,1.3-0.9c0.3-0.1,0.6-0.2,0.9-0.3l0.9-0.2c0.2-0.7,0.3-1.4,0.4-2.1
	c0.1-0.7,0.1-1.2,0.2-1.5c0-0.3,0.1-0.5,0.1-0.8c0-0.1-0.1-0.1-0.4,0.2l-0.1,0.1l-0.1,0.1c-0.2,0.3-0.5,0.4-0.8,0.4
	c-0.3,0-0.3-0.2-0.1-0.5l0.5-0.5v-0.1c0.2-0.3,0.5-0.7,0.7-1.1c0.2-0.4,0.4-0.8,0.5-1.3c0-0.1,0.2-0.3,0.4-0.4
	c0.3-0.1,0.5-0.2,0.8-0.2c0.2-0.1,0.5-0.1,0.7,0c0,0,0.1,0,0.1,0c0.1,0,0.1,0.1,0.1,0.2v0.1c-0.1,0.6-0.2,1.2-0.2,1.8
	c0,0.6,0,1.3,0,1.9c0,0.5,0,0.9,0,1.3s-0.1,0.9-0.1,1.3c0.7-0.4,1.4-0.9,2-1.4c0.6-0.6,1.2-1.3,1.8-1.9c0.2-0.2,0.4-0.3,0.7-0.3
	c0.3,0,0.4,0.1,0.2,0.3L217.4,45.9z M208.8,52.1c0.4,0,0.7-0.2,0.9-0.5c0.3-0.4,0.5-0.8,0.6-1.2c-0.4,0.1-0.8,0.2-1.2,0.4
	c-0.2,0.1-0.5,0.3-0.7,0.4c-0.1,0.1-0.2,0.2-0.3,0.4c0,0.1,0,0.1-0.1,0.2c0,0.1,0.1,0.1,0.1,0.2C208.3,52,208.5,52.1,208.8,52.1z"/>
<path class="st1" d="M69.8,15.9h-6.2c-1.9,0-3.3,1.5-3.3,3.3v6.2c0,1.9,1.5,3.4,3.3,3.4h6.2c1.9,0,3.3-1.5,3.3-3.4v-6.2
	C73.2,17.4,71.7,15.9,69.8,15.9z"/>
<path class="st2" d="M92.4,15.9H81.8c-0.6,0-1.1,0.5-1.1,1.1c0,0,0,0,0,0l0,0v10.7c0,0.6,0.5,1.1,1.1,1.1c0,0,0,0,0,0h10.7
	c0.6,0,1.1-0.5,1.1-1.1l0,0V17C93.6,16.4,93.1,15.9,92.4,15.9L92.4,15.9z"/>
<path class="st3" d="M65.5,36.5c0.4-0.7,1.3-0.9,1.9-0.5c0.2,0.1,0.4,0.3,0.5,0.5l2.4,4.2l2.4,4.2c0.4,0.7,0.2,1.5-0.5,1.9
	C72,46.9,71.8,47,71.5,47h-9.7c-0.8,0-1.4-0.6-1.4-1.4c0-0.2,0.1-0.5,0.2-0.7l2.4-4.2L65.5,36.5z"/>
<path class="st0" d="M53.8,49.2c-1.6,0-2.8-1.3-2.8-2.8l0,0V9.5c0-1.6,1.3-2.8,2.8-2.8c0,0,0,0,0,0h39c1.6-0.1,2.9,1.1,3,2.7
	s-1.1,2.9-2.7,3c-0.1,0-0.2,0-0.3,0H56.7v34.1C56.7,48,55.4,49.2,53.8,49.2z"/>
<path class="st0" d="M106.4,62.3H69.8c-1.6-0.1-2.8-1.4-2.8-3c0.1-1.5,1.2-2.6,2.6-2.7h34V25.4c-0.1-1.6,1.1-2.9,2.7-3
	s2.9,1.1,3,2.7c0,0.1,0,0.2,0,0.3v34.1C109.3,61.1,108.1,62.3,106.4,62.3L106.4,62.3z"/>
<path d="M88.1,53.1C88.1,53.1,88.1,53.1,88.1,53.1c0.2-0.1,0.2-0.2,0.1-0.2c0,0,0,0,0,0c-0.1,0-0.1,0-0.2,0h-0.1
	c-0.1,0.1-0.1,0.1,0,0.2c0,0,0,0,0,0C87.9,53.1,88,53.1,88.1,53.1L88.1,53.1z"/>
<path class="st0" d="M79.8,49.2c-1.6,0-2.8-1.3-2.8-2.8V34.7c0-1.6,1.3-2.8,2.8-2.9h11.7c1.6,0,2.8,1.3,2.8,2.9
	c0,1.6-1.3,2.8-2.8,2.8h-8.8v8.8C82.6,47.9,81.4,49.2,79.8,49.2C79.8,49.2,79.8,49.2,79.8,49.2z"/>
<path class="st0" d="M96.4,53.8c-0.8,0-1.5-0.3-2-0.8L79.3,37.8c-1-1.2-0.7-3,0.5-4c1-0.8,2.5-0.8,3.5,0l0,0l15.2,15.1
	c1.1,1.1,1.1,2.9,0,4C97.9,53.4,97.2,53.7,96.4,53.8L96.4,53.8z"/>
<path class="st0" d="M123.5,27.7h8.4l-0.9,4h-13.7l4-17.2h5.3L123.5,27.7z"/>
<path class="st0" d="M137.2,31.9c-0.8,0-1.5-0.2-2.2-0.6c-0.7-0.4-1.2-1-1.6-1.7c-0.4-0.9-0.6-1.8-0.6-2.8c0-1,0.1-2.1,0.4-3.1
	c0.3-1,0.7-1.9,1.3-2.7c0.5-0.8,1.2-1.5,2-2c0.8-0.5,1.7-0.8,2.7-0.7c0.5,0,1,0.1,1.5,0.3c1.1,0.4,1.9,1.4,2.1,2.6l0.6-2.7h5.3
	l-3,13h-4.8l0.4-2.5c-0.4,0.8-1,1.5-1.7,2C138.9,31.6,138.1,31.9,137.2,31.9z M139.7,28.1c0.4,0,0.7-0.1,1-0.4
	c0.3-0.3,0.6-0.6,0.8-1c0.2-0.4,0.4-0.9,0.5-1.4c0.1-0.4,0.2-0.9,0.2-1.4c0-0.3,0-0.7-0.2-1c-0.1-0.3-0.3-0.5-0.5-0.6
	c-0.2-0.2-0.5-0.2-0.8-0.2c-0.4,0-0.8,0.1-1.1,0.4c-0.3,0.3-0.6,0.7-0.8,1c-0.2,0.4-0.4,0.9-0.5,1.3c-0.1,0.4-0.2,0.8-0.2,1.3
	c0,0.3,0.1,0.7,0.2,1c0.1,0.3,0.3,0.5,0.5,0.7C139.1,28.1,139.4,28.1,139.7,28.1L139.7,28.1z"/>
<path class="st0" d="M147.6,31.6l3-13h4.7l-0.7,4.6l-0.2-0.5c0.3-1.3,1-2.4,1.9-3.2c0.9-0.8,2.1-1.2,3.3-1.1c0.8,0,1.6,0.2,2.3,0.6
	c0.6,0.4,1.1,1,1.3,1.7c0.2,0.9,0.2,1.8,0,2.6l-2,8.4h-5.3l1.8-7.6c0.1-0.4,0.1-0.9-0.1-1.3c-0.2-0.3-0.6-0.5-1.1-0.5
	c-0.3,0-0.6,0.1-0.9,0.3c-0.3,0.2-0.5,0.5-0.7,0.8c-0.2,0.4-0.4,0.8-0.4,1.2l-1.6,7.1L147.6,31.6z"/>
<path class="st0" d="M168.1,31.9c-0.8,0-1.5-0.2-2.2-0.6c-0.7-0.4-1.2-1-1.6-1.7c-0.4-0.9-0.6-1.8-0.6-2.8c0-1,0.2-2.1,0.4-3.1
	c0.3-1,0.7-1.9,1.3-2.7c0.5-0.8,1.2-1.5,2-2c0.8-0.5,1.7-0.8,2.7-0.7c0.5,0,1,0.1,1.5,0.3c0.5,0.2,1,0.5,1.3,0.9
	c0.4,0.5,0.7,1.1,0.7,1.7l1.9-8h5.3l-4.2,18.4h-4.8l0.4-2.5c-0.4,0.8-1,1.5-1.7,2C169.8,31.7,168.9,31.9,168.1,31.9z M170.5,28.1
	c0.4,0,0.7-0.1,1-0.4c0.3-0.3,0.6-0.6,0.8-1c0.2-0.4,0.4-0.9,0.5-1.4c0.1-0.4,0.2-0.9,0.2-1.4c0-0.3,0-0.7-0.2-1
	c-0.1-0.3-0.3-0.5-0.5-0.6c-0.2-0.2-0.5-0.2-0.8-0.2c-0.4,0-0.8,0.1-1.1,0.4c-0.3,0.3-0.6,0.7-0.8,1c-0.4,0.8-0.6,1.7-0.6,2.6
	c0,0.4,0.1,0.7,0.2,1c0.1,0.3,0.3,0.5,0.5,0.7C169.9,28.1,170.2,28.1,170.5,28.1z"/>
<path class="st0" d="M186.7,18.6l-3,13h-5.3l3-13H186.7z M184.6,17.5c-0.7,0-1.4-0.1-2-0.5c-0.5-0.4-0.7-1.1-0.6-1.7
	c0-0.7,0.4-1.4,0.9-1.9c0.7-0.4,1.4-0.6,2.2-0.5c0.7,0,1.5,0.1,2.1,0.5c0.5,0.4,0.7,1,0.6,1.6c0,0.8-0.4,1.5-1,2
	C186.1,17.4,185.3,17.5,184.6,17.5L184.6,17.5z"/>
<path class="st0" d="M185.6,31.6l3-13h4.7l-0.7,4.6l-0.2-0.5c0.3-1.3,1-2.4,1.9-3.2c0.9-0.8,2.1-1.2,3.3-1.1c0.8,0,1.6,0.2,2.3,0.6
	c0.6,0.4,1.1,1,1.3,1.7c0.2,0.9,0.2,1.8,0,2.6l-2,8.4h-5.3l1.8-7.6c0.1-0.4,0.1-0.9-0.1-1.3c-0.2-0.3-0.6-0.5-1-0.5
	c-0.3,0-0.6,0.1-0.9,0.3c-0.3,0.2-0.5,0.5-0.7,0.8c-0.2,0.4-0.4,0.8-0.4,1.2l-1.6,7.1L185.6,31.6z"/>
<path class="st0" d="M206.7,37.2c-0.8,0-1.5-0.1-2.3-0.3c-0.7-0.2-1.4-0.5-2-0.9c-0.6-0.4-1.1-0.9-1.4-1.5c-0.3-0.7-0.5-1.5-0.4-2.2
	l5.3-0.4c0,0.5,0,1.1,0.3,1.5c0.3,0.4,0.8,0.6,1.3,0.6c0.3,0,0.6-0.1,0.9-0.3c0.3-0.2,0.5-0.5,0.7-0.8c0.2-0.5,0.4-1,0.5-1.5
	l1.1-4.6l0.2,0.1c-0.2,1.2-0.7,2.4-1.5,3.3c-0.8,0.8-1.8,1.2-2.9,1.1c-0.8,0-1.5-0.2-2.2-0.6c-0.7-0.4-1.2-1-1.6-1.7
	c-0.4-0.8-0.6-1.8-0.6-2.7c0-1,0.1-2,0.4-3c0.3-0.9,0.7-1.8,1.3-2.6c0.5-0.7,1.2-1.4,2-1.8c0.8-0.4,1.7-0.7,2.6-0.7
	c0.6,0,1.2,0.1,1.8,0.4c0.6,0.3,1,0.8,1.4,1.3c0.4,0.7,0.6,1.6,0.5,2.4l-0.6,0.8l1.1-4.7h5.3l-2.8,12.2c-0.3,1.4-0.8,2.7-1.6,3.9
	c-0.7,0.9-1.6,1.6-2.7,2C209.3,37.1,208,37.3,206.7,37.2z M208.7,27.6c0.5,0,1-0.2,1.3-0.6c0.4-0.4,0.6-0.9,0.8-1.4
	c0.2-0.5,0.3-1.1,0.3-1.7c0-0.3-0.1-0.7-0.2-1c-0.2-0.5-0.7-0.9-1.3-0.9c-0.5,0-1,0.2-1.3,0.6c-0.4,0.4-0.6,0.9-0.8,1.4
	c-0.2,0.5-0.2,1-0.3,1.5c0,0.5,0.1,1,0.4,1.4C207.8,27.4,208.2,27.6,208.7,27.6L208.7,27.6z"/>
<path class="st0" d="M132.3,46c-0.3,0.4-0.6,0.8-1.1,1.3c-0.5,0.5-1,1-1.5,1.5c-0.6,0.5-1.1,1-1.8,1.4c-0.6,0.4-1.2,0.8-1.8,1
	c-0.5,0.5-1,1-1.7,1.4c-0.6,0.3-1.3,0.5-1.9,0.4c-0.2,0-0.4-0.1-0.6-0.2c-0.3,1.1-0.7,2.2-1,3.3s-0.7,2.2-1,3.1s-0.6,1.8-0.8,2.4
	c-0.1,0.4-0.2,0.8-0.4,1.2c-0.1,0.1-0.3,0.2-0.4,0.2c-0.2,0-0.5,0-0.7,0c-0.2,0-0.4-0.1-0.6-0.1c-0.2-0.1-0.3-0.1-0.2-0.2
	c0.2-0.4,0.3-0.7,0.4-1.1c0.2-0.7,0.5-1.5,0.8-2.5s0.6-2.1,1-3.3s0.7-2.4,1-3.6s0.7-2.3,1-3.3s0.6-1.9,0.8-2.5s0.4-1.4,0.5-2.1
	s0.2-1,0.2-1.1s0.2-0.2,0.4-0.2c0.3,0,0.5,0,0.8,0c0.2,0,0.5,0.1,0.7,0.1c0.2,0.1,0.3,0.2,0.3,0.2c-0.1,0.2-0.1,0.4-0.2,0.6
	c0,0.3-0.1,0.6-0.2,1c0.4-0.5,0.9-1,1.4-1.4c0.5-0.4,1-0.7,1.7-0.7c0.6-0.1,1.1,0.1,1.5,0.6c0.2,0.5,0.3,1,0.3,1.5
	c0,0.6-0.2,1.2-0.4,1.7c-0.2,0.6-0.3,1-0.4,1.3s-0.3,0.7-0.5,1.1c-0.2,0.4-0.4,0.7-0.6,1.1c0.9-0.6,1.8-1.3,2.5-2.1
	c0.8-0.9,1.6-1.8,2.3-2.8c0.2-0.2,0.4-0.3,0.7-0.3c0.3,0,0.4,0.1,0.2,0.3L132.3,46z M122.9,52c0.3,0.1,0.6-0.1,1-0.6
	c-0.5-0.1-0.9-0.4-1.2-0.8l-0.3,0.8C122.4,51.8,122.5,52,122.9,52z M124.9,45.2c-0.1,0.2-0.3,0.4-0.4,0.6l-0.4,0.8l-0.3,0.8
	c-0.1,0.3-0.2,0.5-0.3,0.8c-0.1,0.2-0.1,0.5-0.1,0.7c0,0.3,0,0.5,0.1,0.8c0.1,0.3,0.2,0.5,0.3,0.7c0.1,0.2,0.4,0.3,0.6,0.4
	c0.3-0.5,0.6-1,0.9-1.5c0.3-0.5,0.6-1.1,0.8-1.7c0.2-0.5,0.4-1,0.6-1.6c0.1-0.4,0.3-0.9,0.3-1.4c0.1-0.3,0.1-0.6,0.1-0.9
	c0-0.2-0.1-0.3-0.2-0.3c-0.2,0-0.4,0.1-0.6,0.3c-0.2,0.2-0.4,0.3-0.6,0.5c-0.2,0.2-0.4,0.4-0.5,0.6L124.9,45.2L124.9,45.2z"/>
<path class="st0" d="M136.2,42.6c0.3,0,0.7,0.1,0.9,0.3c0.2,0,0.3,0,0.5,0c0.2,0,0.4,0,0.6,0c0.2,0,0.3,0,0.5,0.1
	c0.1,0,0.2,0.1,0.2,0.2c-0.2,0.3-0.3,0.5-0.4,0.8l-0.6,1.5c-0.2,0.6-0.5,1.2-0.7,1.8s-0.4,1.3-0.6,1.8c-0.1,0.5-0.3,1-0.3,1.5
	c-0.1,0.4,0,0.7,0.1,0.7s0.3-0.2,0.7-0.7s0.9-1.1,1.4-1.8s1.1-1.4,1.6-2.1s0.9-1.2,1.3-1.6c0.2-0.2,0.4-0.3,0.7-0.3
	c0.3,0,0.4,0.1,0.2,0.3c-0.7,1.1-1.4,2.1-2.2,3.2s-1.5,2-2.2,2.9c-0.1,0.1-0.2,0.3-0.3,0.4s-0.4,0.3-0.5,0.5
	c-0.2,0.2-0.4,0.3-0.6,0.4c-0.2,0.1-0.4,0.2-0.6,0.2c-0.7,0-1.1-0.2-1.3-0.6c-0.2-0.5-0.3-1.1-0.2-1.6c-0.4,0.6-0.9,1.1-1.4,1.5
	c-0.5,0.5-1.1,0.7-1.8,0.8c-0.5,0.1-1.1-0.1-1.4-0.5c-0.3-0.4-0.4-0.8-0.4-1.2c0-0.5,0-1,0.2-1.5c0.1-0.4,0.2-0.7,0.4-1.1
	c0.3-0.7,0.7-1.4,1.1-2.1c0.5-0.7,1-1.4,1.5-2c0.5-0.6,1.2-1.1,1.9-1.5C134.8,42.7,135.5,42.6,136.2,42.6z M133.4,50.3
	c0.1-0.2,0.2-0.3,0.3-0.5l0.4-0.6l0.4-0.7l0.3-0.5l0.1-0.4c0.2-0.6,0.4-1.1,0.6-1.6s0.4-1,0.6-1.4v-0.1c0.1-0.3,0.2-0.6,0.3-0.9
	s0-0.5-0.3-0.5c-0.4,0-0.7,0.2-1,0.5c-0.4,0.4-0.7,0.8-1,1.2c-0.3,0.5-0.7,1-1,1.6l-1,1.8c-0.5,0.8-0.9,1.7-1.1,2.6
	c-0.1,0.7,0,1,0.4,0.9c0.5-0.1,0.9-0.3,1.2-0.7C133,50.7,133.2,50.4,133.4,50.3L133.4,50.3z"/>
<path class="st0" d="M145.4,42.6c0.4,0,0.8,0.2,1.1,0.5c0.3-0.1,0.7-0.1,1,0c0.4,0.1,0.5,0.2,0.5,0.3c-0.2,0.4-0.4,0.8-0.6,1.2
	c-0.2,0.6-0.5,1.2-0.7,1.9s-0.5,1.4-0.8,2.2l-0.7,2.1c1.1-0.8,2.2-1.8,3-2.9c0.4-0.6,0.9-1.1,1.3-1.6l0.9-1.2
	c0.2-0.2,0.4-0.3,0.7-0.3c0.3,0,0.4,0.1,0.2,0.3c-0.3,0.5-0.7,1.1-1,1.5l-1,1.4c-0.6,0.8-1.3,1.5-2,2.2c-0.8,0.6-1.5,1.2-2.4,1.8
	v0.1c0,0,0,0,0,0.1c-0.3,1.4-0.6,2.7-0.7,4c-0.2,1.2-0.4,2.4-0.8,3.6c-0.3,1-0.9,1.9-1.6,2.6c-0.8,0.7-1.9,1.1-3,1
	c-0.6,0-1.2-0.1-1.7-0.4c-0.4-0.3-0.7-0.7-0.8-1.1c-0.2-0.4-0.2-0.9-0.2-1.3c0-0.4,0-0.7,0.1-1.1c0.2-0.8,0.5-1.5,0.9-2.2
	c0.4-0.6,1-1.2,1.6-1.8c0.6-0.6,1.3-1.1,2-1.5l2.2-1.4c0.1-0.3,0.1-0.6,0.2-0.9s0.1-0.5,0.2-0.8c-0.4,0.5-0.8,0.9-1.3,1.3
	c-0.5,0.4-1,0.6-1.6,0.7c-0.5,0.1-1.1-0.1-1.4-0.5c-0.3-0.4-0.4-0.8-0.4-1.2c0-0.5,0-1,0.2-1.4c0.1-0.4,0.2-0.7,0.4-1.1
	c0.3-0.7,0.6-1.4,1-2c0.4-0.7,1-1.4,1.5-2c0.5-0.6,1.2-1.1,1.9-1.5C144,42.7,144.7,42.6,145.4,42.6z M138.4,62.7
	c0.6,0,1.2-0.3,1.5-0.8c0.5-0.6,0.8-1.4,1.1-2.1c0.3-1,0.6-2,0.8-3c0.2-1.1,0.5-2.2,0.7-3.3c-1.2,0.7-2.4,1.5-3.4,2.5
	c-1,0.9-1.7,2.1-2.1,3.4c-0.1,0.4-0.1,0.8-0.1,1.2c0,0.4,0,0.7,0.1,1.1c0.1,0.3,0.2,0.6,0.5,0.8C137.8,62.6,138.1,62.7,138.4,62.7
	L138.4,62.7z M142.6,50.3c0.3-0.4,0.5-0.7,0.7-1.1c0.3-0.5,0.5-0.9,0.7-1.2l0.1-0.3c0.2-0.6,0.4-1.1,0.6-1.7c0.2-0.5,0.4-1,0.6-1.4
	v-0.1c0.1-0.3,0.2-0.6,0.3-0.9s0-0.5-0.3-0.5c-0.4,0-0.7,0.2-1,0.5c-0.4,0.4-0.7,0.8-1,1.2c-0.3,0.5-0.7,1-1,1.6l-1,1.8
	c-0.5,0.8-0.8,1.7-1.1,2.6c-0.1,0.7,0,1,0.4,0.9c0.5-0.1,0.9-0.3,1.2-0.7C142.3,50.7,142.5,50.4,142.6,50.3L142.6,50.3z"/>
<path class="st0" d="M159.3,45.1c-0.2,0.2-0.4,0.6-0.7,1.1c-0.3,0.5-0.7,1-1.1,1.6s-1,1.2-1.5,1.8c-0.5,0.6-1.1,1.2-1.8,1.7
	c-0.6,0.5-1.3,0.9-2,1.2c-0.7,0.3-1.4,0.4-2.1,0.3c-0.6,0-1.1-0.3-1.5-0.7c-0.3-0.4-0.5-0.9-0.6-1.4c-0.1-0.6-0.1-1.2,0.1-1.7
	c0.1-0.6,0.3-1.2,0.6-1.7c0.2-0.4,0.5-0.9,0.9-1.5c0.4-0.6,0.8-1.2,1.3-1.7c0.5-0.5,1.1-1,1.7-1.3c0.6-0.3,1.3-0.5,2-0.5
	c0.3,0,0.7,0.1,0.9,0.3c0.2,0.1,0.4,0.3,0.4,0.6c0.1,0.3,0.1,0.5,0,0.8c-0.1,0.3-0.1,0.6-0.2,0.8c-0.2,0.5-0.4,1-0.7,1.4
	c-0.4,0.6-0.8,1.2-1.3,1.7c-0.5,0.6-1,1.1-1.6,1.6c-0.6,0.5-1.3,0.9-2,1.2c0,0.3,0.1,0.5,0.2,0.8c0.1,0.2,0.4,0.3,0.6,0.2
	c0.4-0.1,0.7-0.2,1-0.4c0.5-0.3,1-0.6,1.4-0.9c0.5-0.4,1-0.8,1.5-1.2c0.4-0.4,0.8-0.8,1.2-1.3l2.3-2.8c0.1-0.1,0.2-0.2,0.3-0.2
	c0.1,0,0.2-0.1,0.4-0.1C159.3,44.8,159.4,44.9,159.3,45.1z M150.9,47.7c-0.1,0.2-0.2,0.5-0.4,0.9c-0.2,0.4-0.3,0.9-0.4,1.4
	c0.7-0.5,1.3-1,1.8-1.7c0.6-0.7,1.2-1.4,1.6-2.1c0.4-0.6,0.7-1.2,0.9-1.8c0.2-0.5,0-0.8-0.4-0.8c-0.3,0-0.6,0.1-0.8,0.3
	c-0.3,0.3-0.6,0.6-0.9,1c-0.3,0.4-0.6,0.9-0.9,1.3S151.1,47.2,150.9,47.7L150.9,47.7z"/>
<path class="st0" d="M170.4,48.7c0,0.2-0.1,0.4-0.1,0.6c-0.1,0.3-0.2,0.6-0.3,0.9c-0.1,0.3-0.1,0.6-0.2,0.9s0,0.4,0,0.4
	s0.4-0.3,0.8-0.8s1-1.2,1.6-1.9l1.8-2.1c0.6-0.7,1-1.2,1.3-1.6c0.2-0.2,0.4-0.3,0.7-0.3c0.3,0,0.4,0.1,0.3,0.3s-0.4,0.5-0.7,1
	s-0.7,1-1.1,1.6s-0.9,1.2-1.4,1.8s-1,1.2-1.5,1.7c-0.4,0.5-0.9,0.9-1.4,1.3c-0.3,0.3-0.7,0.4-1.1,0.5c-0.5,0-1-0.2-1.3-0.5
	c-0.3-0.3-0.4-0.6-0.4-1c0-0.6,0.1-1.2,0.3-1.7c0.2-0.6,0.4-1.3,0.6-2l0.7-2c0.2-0.7,0.4-1.3,0.6-1.8c0-0.1,0-0.2,0-0.3
	c0-0.1-0.1-0.1-0.3-0.1l-1,0.8c-0.6,0.5-1.1,1.1-1.4,1.8c-0.3,1.1-0.6,2.1-1,3.1c-0.4,1.1-0.8,2-1.2,2.9c-0.1,0.2-0.2,0.3-0.4,0.4
	c-0.2,0.1-0.5,0.2-0.7,0.2c-0.2,0-0.5,0-0.7,0c-0.2,0-0.4-0.2-0.4-0.3c0.2-0.6,0.5-1.3,0.8-2s0.6-1.5,0.8-2.2s0.5-1.5,0.6-2.2
	c0.2-0.7,0.3-1.4,0.3-2.1c0-0.1-0.1-0.2-0.1-0.3c0-0.1-0.2-0.1-0.4,0c-0.2,0.1-0.3,0.2-0.4,0.3c-0.2,0.2-0.4,0.5-0.6,0.7
	c-0.2,0.3-0.4,0.6-0.6,0.9c-0.2,0.3-0.3,0.6-0.5,0.9c-0.2,0.9-0.5,1.8-0.9,2.7c-0.4,0.9-0.8,1.8-1.3,2.7c-0.1,0.2-0.3,0.4-0.5,0.5
	c-0.3,0.1-0.5,0.2-0.8,0.3c-0.2,0.1-0.5,0.1-0.7,0c-0.2,0-0.3-0.2-0.3-0.4c0,0,0,0,0,0c0.2-0.6,0.5-1.3,0.9-1.9s0.6-1.3,0.8-1.9
	c0.2-0.6,0.4-1.3,0.6-1.9c0.1-0.6,0.2-1.3,0.2-2c0-0.1,0-0.1,0-0.2c0-0.1-0.1,0-0.2,0.1c-0.1,0.1-0.3,0.2-0.4,0.4
	c-0.1,0.1-0.2,0.3-0.3,0.4c-0.2,0.3-0.5,0.4-0.8,0.4c-0.3,0-0.3-0.2-0.1-0.4c0.2-0.3,0.5-0.7,0.8-1c0.3-0.3,0.6-0.6,0.9-1
	c0.2-0.2,0.4-0.3,0.6-0.4c0.2-0.1,0.5-0.2,0.7-0.2c0.2,0,0.4,0,0.6,0.1c0.1,0,0.2,0.1,0.2,0.2c0.1,0.1,0.1,0.2,0.1,0.3
	c0.1,0.5,0.1,1,0.1,1.4c0.5-0.8,1.1-1.4,1.9-2c0.4-0.3,0.9-0.5,1.4-0.5c0.4,0,0.9,0.1,1.1,0.5c0.2,0.2,0.2,0.5,0.3,0.8
	c0.1,0.4,0.1,0.8,0,1.1c0.3-0.4,0.7-0.8,1.1-1.2c0.3-0.3,0.7-0.5,1-0.8c0.3-0.2,0.6-0.3,0.9-0.4c0.3-0.1,0.6-0.1,0.9-0.1
	c0.2,0,0.5,0.1,0.7,0.2c0.1,0,0.2,0.1,0.2,0.2c0,0.1,0,0.2-0.1,0.3c0,0.4,0,0.7-0.1,1.1c-0.1,0.5-0.3,1-0.4,1.5s-0.3,1.1-0.5,1.7
	S170.6,48.3,170.4,48.7z"/>
<path class="st0" d="M179.5,42.7c0.3,0,0.7,0.1,0.9,0.3c0.2,0,0.3,0,0.5,0c0.2,0,0.4,0,0.6,0c0.2,0,0.3,0,0.5,0.1
	c0.1,0,0.2,0.1,0.2,0.2c-0.2,0.3-0.3,0.5-0.4,0.8l-0.6,1.5c-0.2,0.6-0.5,1.2-0.7,1.8s-0.4,1.3-0.6,1.8c-0.2,0.5-0.3,1-0.3,1.5
	c-0.1,0.4,0,0.6,0.1,0.7s0.3-0.2,0.7-0.7s0.9-1.1,1.4-1.8l1.6-2.1c0.5-0.7,0.9-1.2,1.2-1.6c0.2-0.2,0.4-0.3,0.7-0.3
	c0.3,0,0.4,0.1,0.2,0.3c-0.7,1.1-1.4,2.1-2.2,3.2s-1.5,2-2.2,2.9c-0.1,0.1-0.2,0.3-0.3,0.4c-0.2,0.2-0.3,0.4-0.5,0.5
	c-0.2,0.2-0.4,0.3-0.6,0.5c-0.2,0.1-0.4,0.2-0.6,0.2c-0.7,0-1.1-0.2-1.3-0.6c-0.2-0.5-0.3-1.1-0.2-1.6c-0.4,0.6-0.9,1.1-1.4,1.5
	c-0.5,0.5-1.1,0.7-1.8,0.8c-0.5,0.1-1.1-0.1-1.4-0.5c-0.3-0.4-0.4-0.8-0.4-1.2c0-0.5,0-1,0.2-1.5c0.1-0.4,0.2-0.7,0.4-1.1
	c0.3-0.7,0.6-1.4,1.1-2c0.5-0.7,1-1.4,1.6-2c0.5-0.6,1.2-1.1,1.9-1.5C178.1,42.9,178.8,42.7,179.5,42.7z M176.7,50.4
	c0.1-0.2,0.2-0.3,0.3-0.5l0.4-0.6l0.4-0.7l0.3-0.5l0.1-0.4c0.2-0.6,0.4-1.1,0.6-1.6c0.2-0.5,0.4-1,0.6-1.4v-0.1
	c0.1-0.3,0.2-0.6,0.3-0.9s0-0.5-0.2-0.4c-0.4,0-0.7,0.2-1,0.5c-0.4,0.4-0.7,0.7-1,1.2c-0.3,0.5-0.7,1-1,1.6l-1,1.8
	c-0.5,0.8-0.8,1.7-1.1,2.6c-0.1,0.7,0,1,0.4,0.9c0.5-0.1,0.9-0.3,1.2-0.7C176.4,50.8,176.6,50.5,176.7,50.4L176.7,50.4z"/>
<path class="st0" d="M185.3,49.3c-0.2,0.8-0.4,1.4-0.5,2c-0.1,0.3-0.2,0.7-0.2,1.1c-0.1,0.1-0.3,0.2-0.4,0.2c-0.3,0-0.5,0-0.8,0
	c-0.2,0-0.5-0.1-0.7-0.1c-0.2-0.1-0.3-0.2-0.3-0.3c0.1-0.3,0.1-0.5,0.2-0.8c0.1-0.4,0.2-0.8,0.3-1.3c0-0.4,0.1-0.8,0.2-1.2
	c0.1-0.4,0.2-0.8,0.3-1.3c0.1-0.5,0.3-1,0.5-1.5c0.3-0.7,0.6-1.4,0.9-2.2s0.7-1.6,1.1-2.5s0.7-1.6,1.1-2.4s0.6-1.4,0.8-1.9l0.4-0.9
	c0.1-0.1,0.3-0.2,0.4-0.2c0.2,0,0.5,0,0.7,0c0.2,0,0.4,0,0.6,0.1c0.2,0.1,0.3,0.1,0.2,0.2c-0.1,0.3-0.3,0.5-0.4,0.8l-0.7,1.7
	c-0.3,0.7-0.6,1.4-0.9,2.3s-0.7,1.7-1,2.6c0.2-0.2,0.5-0.4,0.7-0.6s0.4-0.3,0.6-0.5c0.5-0.4,1.1-0.5,1.7-0.4c0.6,0.1,0.9,0.3,1,0.7
	c0.1,0.4,0.1,0.9,0.1,1.4c-0.1,0.6-0.3,1.2-0.6,1.7c-0.3,0.6-0.7,1.1-1.2,1.5c-0.5,0.4-1.1,0.7-1.8,0.8c0.2,0.3,0.3,0.7,0.5,1
	c0.1,0.3,0.2,0.6,0.3,0.9c0.1,0.2,0.2,0.5,0.4,0.7c0.1,0.2,0.3,0.4,0.6,0.5c0,0,0.1-0.1,0.3-0.3s0.4-0.5,0.8-0.9s0.6-0.8,1-1.3
	s0.7-1,1.1-1.4l1-1.3l0.8-1c0.2-0.2,0.4-0.3,0.7-0.3c0.3,0,0.4,0.1,0.3,0.3c-0.7,1.1-1.4,2.2-2.2,3.2l-2.2,3l-0.3,0.4
	c-0.2,0.2-0.3,0.4-0.5,0.5c-0.2,0.2-0.4,0.3-0.6,0.4c-0.2,0.1-0.4,0.2-0.6,0.2c-0.6,0-1.1-0.2-1.5-0.5c-0.4-0.4-0.6-0.8-0.9-1.3
	c-0.2-0.5-0.4-1-0.5-1.5c-0.1-0.4-0.2-0.9-0.4-1.3c0.9-0.4,1.7-1,2.4-1.7c0.7-0.7,1-1.7,0.8-2.6c0-0.1,0-0.2-0.1-0.3
	c0-0.1-0.1-0.2-0.3-0.1c-0.4,0.3-0.7,0.6-1.1,1c-0.6,0.6-1,1.3-1.4,2.1C185.9,47.7,185.6,48.5,185.3,49.3z"/>
<path class="st0" d="M203.4,45.2c-0.2,0.2-0.4,0.6-0.7,1.1c-0.4,0.6-0.7,1.1-1.1,1.6c-0.5,0.6-1,1.2-1.5,1.8
	c-0.5,0.6-1.1,1.2-1.8,1.7c-0.6,0.5-1.3,0.9-2,1.2c-0.7,0.3-1.4,0.4-2.1,0.3c-0.6,0-1.1-0.3-1.5-0.7c-0.3-0.4-0.5-0.9-0.6-1.4
	c-0.1-0.6,0-1.1,0.1-1.7c0.1-0.6,0.4-1.2,0.6-1.7c0.2-0.4,0.5-0.9,0.9-1.5c0.4-0.6,0.8-1.2,1.3-1.7c0.5-0.5,1.1-1,1.7-1.3
	c0.6-0.3,1.3-0.5,2-0.5c0.4,0,0.7,0.1,1,0.3c0.2,0.1,0.3,0.4,0.4,0.6c0.1,0.3,0.1,0.5,0,0.8c-0.1,0.3-0.1,0.6-0.2,0.8
	c-0.2,0.5-0.4,1-0.7,1.4c-0.4,0.6-0.8,1.2-1.3,1.7c-0.5,0.6-1.1,1.1-1.7,1.6c-0.6,0.5-1.3,0.9-2,1.2c0,0.3,0.1,0.5,0.2,0.8
	c0.2,0.2,0.4,0.3,0.7,0.2c0.4-0.1,0.7-0.2,1-0.4c0.5-0.3,1-0.6,1.4-0.9c0.5-0.4,1-0.8,1.5-1.2c0.5-0.4,0.9-0.8,1.2-1.2l2.3-2.8
	c0.2-0.2,0.4-0.3,0.7-0.3C203.5,44.9,203.6,45,203.4,45.2z M195.1,47.8c-0.1,0.2-0.2,0.5-0.4,0.9c-0.2,0.4-0.3,0.9-0.4,1.4
	c0.7-0.5,1.3-1,1.8-1.7c0.6-0.7,1.2-1.4,1.7-2.1c0.4-0.6,0.7-1.2,0.9-1.8c0.2-0.5,0-0.8-0.4-0.8c-0.3,0-0.6,0.1-0.8,0.3
	c-0.3,0.3-0.6,0.6-0.8,1c-0.3,0.4-0.6,0.9-0.9,1.3S195.3,47.3,195.1,47.8z"/>
<path class="st0" d="M207.1,44.3c-0.3,0.7-0.6,1.4-1,2.1c-0.4,0.8-0.9,1.6-1.2,2.3c-0.3,0.6-0.6,1.2-0.8,1.9c-0.1,0.5,0,0.8,0.4,0.8
	c0.2,0,0.6-0.2,1.1-0.8s1-1.1,1.6-1.8s1.1-1.4,1.6-2.1l1.3-1.7c0.1-0.1,0.2-0.2,0.3-0.2c0.1,0,0.3-0.1,0.4-0.1
	c0.3,0,0.4,0.1,0.2,0.3c-0.3,0.5-0.7,1.1-1.3,2s-1.2,1.7-1.8,2.5c-0.6,0.8-1.3,1.5-2,2.2c-0.6,0.6-1.4,1-2.2,1
	c-0.4,0.1-0.9-0.1-1.2-0.5c-0.2-0.4-0.3-0.8-0.2-1.2c0.1-0.6,0.2-1.2,0.5-1.7c0.3-0.6,0.6-1.3,0.9-1.9s0.6-1.2,0.8-1.7
	c0.2-0.4,0.4-0.8,0.6-1.3c0-0.2-0.1-0.2-0.4-0.2c-0.1,0-0.3,0-0.4,0.1c-0.1,0.1-0.2,0.2-0.3,0.3l0,0c-0.1,0.1-0.2,0.2-0.3,0.3
	c-0.1,0.1-0.2,0.2-0.2,0.3c-0.2,0.3-0.5,0.4-0.8,0.4c-0.3,0-0.3-0.2-0.1-0.4l0.2-0.3c0.3-0.5,0.5-1.1,0.5-1.6c0.1-0.5,0.1-0.9,0-1.4
	c0-0.1,0-0.2,0.2-0.2c0.2-0.1,0.4-0.1,0.7-0.2c0.2,0,0.4,0,0.6,0c0.2,0,0.2,0.1,0.1,0.2c-0.2,0.4-0.1,0.8,0.2,1.2
	c0.1,0.1,0.2,0.1,0.3,0.1h0.5h0.5c0.1,0,0.1,0,0.2,0c0.1,0,0.1,0.1,0.1,0.1C207.1,43.7,207.2,44,207.1,44.3z"/>
<path class="st0" d="M217.4,45.9c-0.6,0.7-1.2,1.4-1.9,2.1c-0.7,0.7-1.6,1.3-2.6,1.7c-0.1,0.3-0.3,0.7-0.5,1
	c-0.2,0.3-0.4,0.6-0.7,0.9c-0.3,0.3-0.6,0.6-0.9,0.9c-0.4,0.3-0.9,0.5-1.4,0.6c-0.5,0.2-1.1,0.1-1.6-0.2c-0.4-0.2-0.6-0.6-0.6-1
	c-0.1-0.4,0.1-0.9,0.3-1.2c0.3-0.4,0.8-0.8,1.3-0.9c0.3-0.1,0.6-0.2,0.9-0.3l0.9-0.2c0.2-0.7,0.3-1.4,0.4-2.1
	c0.1-0.7,0.1-1.2,0.2-1.5c0-0.3,0.1-0.5,0.1-0.8c0-0.1-0.1-0.1-0.4,0.2l-0.1,0.1l-0.1,0.1c-0.2,0.3-0.5,0.4-0.8,0.4
	c-0.3,0-0.3-0.2-0.1-0.5l0.5-0.5v-0.1c0.2-0.3,0.5-0.7,0.7-1.1c0.2-0.4,0.4-0.8,0.5-1.3c0-0.1,0.2-0.3,0.4-0.4
	c0.3-0.1,0.5-0.2,0.8-0.2c0.2-0.1,0.5-0.1,0.7,0c0,0,0.1,0,0.1,0c0.1,0,0.1,0.1,0.1,0.2v0.1c-0.1,0.6-0.2,1.2-0.2,1.8
	c0,0.6,0,1.3,0,1.9c0,0.5,0,0.9,0,1.3s-0.1,0.9-0.1,1.3c0.7-0.4,1.4-0.9,2-1.4c0.6-0.6,1.2-1.3,1.8-1.9c0.2-0.2,0.4-0.3,0.7-0.3
	c0.3,0,0.4,0.1,0.2,0.3L217.4,45.9z M208.8,52.1c0.4,0,0.7-0.2,0.9-0.5c0.3-0.4,0.5-0.8,0.6-1.2c-0.4,0.1-0.8,0.2-1.2,0.4
	c-0.2,0.1-0.5,0.3-0.7,0.4c-0.1,0.1-0.2,0.2-0.3,0.4c0,0.1,0,0.1-0.1,0.2c0,0.1,0.1,0.1,0.1,0.2C208.3,52,208.5,52.1,208.8,52.1z"/>
<path class="st1" d="M69.8,15.9h-6.2c-1.9,0-3.3,1.5-3.3,3.3v6.2c0,1.9,1.5,3.4,3.3,3.4h6.2c1.9,0,3.3-1.5,3.3-3.4v-6.2
	C73.2,17.4,71.7,15.9,69.8,15.9z"/>
<path class="st2" d="M92.4,15.9H81.8c-0.6,0-1.1,0.5-1.1,1.1c0,0,0,0,0,0l0,0v10.7c0,0.6,0.5,1.1,1.1,1.1c0,0,0,0,0,0h10.7
	c0.6,0,1.1-0.5,1.1-1.1l0,0V17C93.6,16.4,93.1,15.9,92.4,15.9L92.4,15.9z"/>
<path class="st3" d="M65.5,36.5c0.4-0.7,1.3-0.9,1.9-0.5c0.2,0.1,0.4,0.3,0.5,0.5l2.4,4.2l2.4,4.2c0.4,0.7,0.2,1.5-0.5,1.9
	C72,46.9,71.8,47,71.5,47h-9.7c-0.8,0-1.4-0.6-1.4-1.4c0-0.2,0.1-0.5,0.2-0.7l2.4-4.2L65.5,36.5z"/>
</svg>
