<?xml version="1.0" encoding="UTF-8"?>
<svg xmlns="http://www.w3.org/2000/svg" xmlns:xlink="http://www.w3.org/1999/xlink" width="270px" height="px" viewBox="0 0 269 92" version="1.1">
<g id="surface1">
<path style=" stroke:none;fill-rule:nonzero;fill:rgb(100%,100%,100%);fill-opacity:1;" d="M 4.511719 68.851562 C 1.933594 68.851562 0 66.753906 0 64.332031 L 0 4.738281 C 0 2.152344 2.09375 0.214844 4.511719 0.214844 L 67.371094 0.214844 C 69.949219 0.0546875 72.046875 1.992188 72.207031 4.574219 C 72.367188 7.160156 70.433594 9.257812 67.855469 9.421875 C 67.691406 9.421875 67.53125 9.421875 67.371094 9.421875 L 9.1875 9.421875 L 9.1875 64.492188 C 9.1875 66.914062 7.089844 68.851562 4.511719 68.851562 Z M 4.511719 68.851562 "/>
<path style=" stroke:none;fill-rule:nonzero;fill:rgb(100%,100%,100%);fill-opacity:1;" d="M 89.289062 90.007812 L 30.300781 90.007812 C 27.722656 89.847656 25.789062 87.746094 25.789062 85.164062 C 25.949219 82.742188 27.722656 80.964844 29.976562 80.804688 L 84.777344 80.804688 L 84.777344 30.414062 C 84.617188 27.832031 86.550781 25.730469 89.128906 25.570312 C 91.707031 25.410156 93.804688 27.347656 93.964844 29.929688 C 93.964844 30.09375 93.964844 30.253906 93.964844 30.414062 L 93.964844 85.488281 C 93.964844 88.070312 92.03125 90.007812 89.289062 90.007812 Z M 89.289062 90.007812 "/>
<path style=" stroke:none;fill-rule:nonzero;fill:rgb(0%,0%,0%);fill-opacity:1;" d="M 59.796875 75.152344 C 60.117188 74.988281 60.117188 74.828125 59.957031 74.828125 C 59.796875 74.828125 59.796875 74.828125 59.632812 74.828125 L 59.472656 74.828125 C 59.3125 74.988281 59.3125 74.988281 59.472656 75.152344 C 59.472656 75.152344 59.632812 75.152344 59.796875 75.152344 Z M 59.796875 75.152344 "/>
<path style=" stroke:none;fill-rule:nonzero;fill:rgb(100%,100%,100%);fill-opacity:1;" d="M 46.417969 68.851562 C 43.839844 68.851562 41.90625 66.753906 41.90625 64.332031 L 41.90625 45.433594 C 41.90625 42.851562 44 40.914062 46.417969 40.75 L 65.277344 40.75 C 67.855469 40.75 69.789062 42.851562 69.789062 45.433594 C 69.789062 48.019531 67.691406 49.957031 65.277344 49.957031 L 51.09375 49.957031 L 51.09375 64.167969 C 50.929688 66.753906 48.996094 68.851562 46.417969 68.851562 Z M 46.417969 68.851562 "/>
<path style=" stroke:none;fill-rule:nonzero;fill:rgb(100%,100%,100%);fill-opacity:1;" d="M 73.171875 76.28125 C 71.882812 76.28125 70.753906 75.796875 69.949219 74.988281 L 45.613281 50.441406 C 44 48.503906 44.484375 45.597656 46.417969 43.980469 C 48.03125 42.6875 50.449219 42.6875 52.058594 43.980469 L 76.558594 68.367188 C 78.332031 70.144531 78.332031 73.050781 76.558594 74.828125 C 75.589844 75.636719 74.460938 76.121094 73.171875 76.28125 Z M 73.171875 76.28125 "/>
<path style=" stroke:none;fill-rule:nonzero;fill:rgb(100%,100%,100%);fill-opacity:1;" d="M 116.851562 34.128906 L 130.390625 34.128906 L 128.941406 40.589844 L 106.859375 40.589844 L 113.304688 12.8125 L 121.847656 12.8125 Z M 116.851562 34.128906 "/>
<path style=" stroke:none;fill-rule:nonzero;fill:rgb(100%,100%,100%);fill-opacity:1;" d="M 138.933594 40.914062 C 137.644531 40.914062 136.515625 40.589844 135.386719 39.945312 C 134.257812 39.296875 133.453125 38.328125 132.808594 37.199219 C 132.164062 35.746094 131.839844 34.292969 131.839844 32.675781 C 131.839844 31.0625 132 29.285156 132.484375 27.667969 C 132.96875 26.054688 133.613281 24.601562 134.582031 23.308594 C 135.386719 22.015625 136.515625 20.886719 137.804688 20.078125 C 139.09375 19.273438 140.542969 18.789062 142.15625 18.949219 C 142.960938 18.949219 143.765625 19.109375 144.574219 19.433594 C 146.347656 20.078125 147.636719 21.695312 147.957031 23.632812 L 148.925781 19.273438 L 157.46875 19.273438 L 152.632812 40.265625 L 144.894531 40.265625 L 145.539062 36.230469 C 144.894531 37.519531 143.929688 38.652344 142.800781 39.460938 C 141.671875 40.429688 140.382812 40.914062 138.933594 40.914062 Z M 142.960938 34.777344 C 143.605469 34.777344 144.089844 34.613281 144.574219 34.128906 C 145.058594 33.644531 145.539062 33.160156 145.863281 32.515625 C 146.183594 31.867188 146.507812 31.0625 146.667969 30.253906 C 146.828125 29.609375 146.992188 28.800781 146.992188 27.992188 C 146.992188 27.507812 146.992188 26.863281 146.667969 26.378906 C 146.507812 25.894531 146.183594 25.570312 145.863281 25.410156 C 145.539062 25.085938 145.058594 25.085938 144.574219 25.085938 C 143.929688 25.085938 143.285156 25.246094 142.800781 25.730469 C 142.316406 26.214844 141.832031 26.863281 141.511719 27.347656 C 141.1875 27.992188 140.867188 28.800781 140.707031 29.445312 C 140.542969 30.09375 140.382812 30.738281 140.382812 31.546875 C 140.382812 32.03125 140.542969 32.675781 140.707031 33.160156 C 140.867188 33.644531 141.1875 33.96875 141.511719 34.292969 C 141.996094 34.777344 142.476562 34.777344 142.960938 34.777344 Z M 142.960938 34.777344 "/>
<path style=" stroke:none;fill-rule:nonzero;fill:rgb(100%,100%,100%);fill-opacity:1;" d="M 155.695312 40.429688 L 160.53125 19.433594 L 168.105469 19.433594 L 166.976562 26.863281 L 166.652344 26.054688 C 167.136719 23.957031 168.265625 22.179688 169.714844 20.886719 C 171.167969 19.59375 173.101562 18.949219 175.035156 19.109375 C 176.324219 19.109375 177.613281 19.433594 178.742188 20.078125 C 179.710938 20.726562 180.515625 21.695312 180.835938 22.824219 C 181.160156 24.277344 181.160156 25.730469 180.835938 27.023438 L 177.613281 40.589844 L 169.070312 40.589844 L 171.972656 28.316406 C 172.132812 27.667969 172.132812 26.863281 171.8125 26.214844 C 171.488281 25.730469 170.84375 25.410156 170.039062 25.410156 C 169.554688 25.410156 169.070312 25.570312 168.589844 25.894531 C 168.105469 26.214844 167.78125 26.699219 167.460938 27.183594 C 167.136719 27.832031 166.816406 28.476562 166.816406 29.125 L 164.238281 40.589844 Z M 155.695312 40.429688 "/>
<path style=" stroke:none;fill-rule:nonzero;fill:rgb(100%,100%,100%);fill-opacity:1;" d="M 188.734375 40.914062 C 187.445312 40.914062 186.316406 40.589844 185.1875 39.945312 C 184.0625 39.296875 183.253906 38.328125 182.609375 37.199219 C 181.964844 35.746094 181.644531 34.292969 181.644531 32.675781 C 181.644531 31.0625 181.964844 29.285156 182.289062 27.667969 C 182.773438 26.054688 183.417969 24.601562 184.382812 23.308594 C 185.1875 22.015625 186.316406 20.886719 187.605469 20.078125 C 188.894531 19.273438 190.347656 18.789062 191.957031 18.949219 C 192.765625 18.949219 193.570312 19.109375 194.375 19.433594 C 195.183594 19.757812 195.988281 20.242188 196.472656 20.886719 C 197.117188 21.695312 197.601562 22.664062 197.601562 23.632812 L 200.660156 10.710938 L 209.203125 10.710938 L 202.433594 40.429688 L 194.699219 40.429688 L 195.34375 36.390625 C 194.699219 37.683594 193.730469 38.8125 192.601562 39.621094 C 191.476562 40.589844 190.023438 40.914062 188.734375 40.914062 Z M 192.601562 34.777344 C 193.25 34.777344 193.730469 34.613281 194.214844 34.128906 C 194.699219 33.644531 195.183594 33.160156 195.503906 32.515625 C 195.828125 31.867188 196.148438 31.0625 196.308594 30.253906 C 196.472656 29.609375 196.632812 28.800781 196.632812 27.992188 C 196.632812 27.507812 196.632812 26.863281 196.308594 26.378906 C 196.148438 25.894531 195.828125 25.570312 195.503906 25.410156 C 195.183594 25.085938 194.699219 25.085938 194.214844 25.085938 C 193.570312 25.085938 192.925781 25.246094 192.441406 25.730469 C 191.957031 26.214844 191.476562 26.863281 191.152344 27.347656 C 190.507812 28.640625 190.1875 30.09375 190.1875 31.546875 C 190.1875 32.191406 190.347656 32.675781 190.507812 33.160156 C 190.667969 33.644531 190.992188 33.96875 191.3125 34.292969 C 191.636719 34.777344 192.121094 34.777344 192.601562 34.777344 Z M 192.601562 34.777344 "/>
<path style=" stroke:none;fill-rule:nonzero;fill:rgb(100%,100%,100%);fill-opacity:1;" d="M 218.714844 19.433594 L 213.878906 40.429688 L 205.335938 40.429688 L 210.171875 19.433594 Z M 215.328125 17.65625 C 214.199219 17.65625 213.074219 17.496094 212.105469 16.847656 C 211.300781 16.203125 210.976562 15.074219 211.136719 14.105469 C 211.136719 12.972656 211.78125 11.84375 212.589844 11.035156 C 213.71875 10.390625 214.84375 10.066406 216.136719 10.226562 C 217.261719 10.226562 218.550781 10.390625 219.519531 11.035156 C 220.324219 11.679688 220.648438 12.648438 220.488281 13.621094 C 220.488281 14.910156 219.84375 16.042969 218.875 16.847656 C 217.746094 17.496094 216.457031 17.65625 215.328125 17.65625 Z M 215.328125 17.65625 "/>
<path style=" stroke:none;fill-rule:nonzero;fill:rgb(100%,100%,100%);fill-opacity:1;" d="M 216.941406 40.429688 L 221.777344 19.433594 L 229.351562 19.433594 L 228.222656 26.863281 L 227.902344 26.054688 C 228.382812 23.957031 229.511719 22.179688 230.960938 20.886719 C 232.414062 19.59375 234.347656 18.949219 236.28125 19.109375 C 237.570312 19.109375 238.859375 19.433594 239.988281 20.078125 C 240.957031 20.726562 241.761719 21.695312 242.082031 22.824219 C 242.40625 24.277344 242.40625 25.730469 242.082031 27.023438 L 238.859375 40.589844 L 230.316406 40.589844 L 233.21875 28.316406 C 233.378906 27.667969 233.378906 26.863281 233.058594 26.214844 C 232.734375 25.730469 232.089844 25.410156 231.445312 25.410156 C 230.960938 25.410156 230.480469 25.570312 229.996094 25.894531 C 229.511719 26.214844 229.191406 26.699219 228.867188 27.183594 C 228.546875 27.832031 228.222656 28.476562 228.222656 29.125 L 225.644531 40.589844 Z M 216.941406 40.429688 "/>
<path style=" stroke:none;fill-rule:nonzero;fill:rgb(100%,100%,100%);fill-opacity:1;" d="M 250.949219 49.472656 C 249.660156 49.472656 248.53125 49.3125 247.242188 48.988281 C 246.113281 48.664062 244.984375 48.179688 244.019531 47.535156 C 243.050781 46.886719 242.246094 46.082031 241.761719 45.113281 C 241.277344 43.980469 240.957031 42.6875 241.117188 41.558594 L 249.660156 40.914062 C 249.660156 41.71875 249.660156 42.6875 250.144531 43.335938 C 250.625 43.980469 251.433594 44.304688 252.238281 44.304688 C 252.722656 44.304688 253.203125 44.144531 253.6875 43.820312 C 254.171875 43.496094 254.496094 43.011719 254.816406 42.527344 C 255.140625 41.71875 255.460938 40.914062 255.621094 40.105469 L 257.394531 32.675781 L 257.71875 32.835938 C 257.394531 34.777344 256.589844 36.714844 255.300781 38.167969 C 254.011719 39.460938 252.398438 40.105469 250.625 39.945312 C 249.335938 39.945312 248.207031 39.621094 247.082031 38.976562 C 245.953125 38.328125 245.144531 37.359375 244.5 36.230469 C 243.855469 34.9375 243.535156 33.320312 243.535156 31.867188 C 243.535156 30.253906 243.695312 28.640625 244.179688 27.023438 C 244.664062 25.570312 245.308594 24.117188 246.273438 22.824219 C 247.082031 21.695312 248.207031 20.5625 249.496094 19.917969 C 250.789062 19.273438 252.238281 18.789062 253.6875 18.789062 C 254.65625 18.789062 255.621094 18.949219 256.589844 19.433594 C 257.554688 19.917969 258.203125 20.726562 258.847656 21.53125 C 259.492188 22.664062 259.8125 24.117188 259.652344 25.410156 L 258.683594 26.699219 L 260.457031 19.109375 L 269 19.109375 L 264.488281 38.8125 C 264.003906 41.074219 263.199219 43.171875 261.910156 45.113281 C 260.78125 46.566406 259.328125 47.695312 257.554688 48.339844 C 255.140625 49.3125 253.042969 49.632812 250.949219 49.472656 Z M 254.171875 33.96875 C 254.976562 33.96875 255.785156 33.644531 256.265625 33 C 256.910156 32.351562 257.234375 31.546875 257.554688 30.738281 C 257.878906 29.929688 258.039062 28.960938 258.039062 27.992188 C 258.039062 27.507812 257.878906 26.863281 257.71875 26.378906 C 257.394531 25.570312 256.589844 24.925781 255.621094 24.925781 C 254.816406 24.925781 254.011719 25.246094 253.527344 25.894531 C 252.882812 26.539062 252.558594 27.347656 252.238281 28.152344 C 251.914062 28.960938 251.914062 29.769531 251.753906 30.578125 C 251.753906 31.382812 251.914062 32.191406 252.398438 32.835938 C 252.722656 33.644531 253.367188 33.96875 254.171875 33.96875 Z M 254.171875 33.96875 "/>
<path style=" stroke:none;fill-rule:nonzero;fill:rgb(100%,100%,100%);fill-opacity:1;" d="M 131.035156 63.683594 C 130.550781 64.332031 130.066406 64.976562 129.261719 65.785156 C 128.457031 66.589844 127.648438 67.398438 126.84375 68.207031 C 125.878906 69.015625 125.070312 69.820312 123.941406 70.46875 C 122.976562 71.113281 122.007812 71.757812 121.042969 72.082031 C 120.234375 72.890625 119.429688 73.699219 118.300781 74.34375 C 117.335938 74.828125 116.207031 75.152344 115.238281 74.988281 C 114.917969 74.988281 114.59375 74.828125 114.273438 74.667969 C 113.789062 76.441406 113.144531 78.21875 112.660156 79.996094 C 112.175781 81.773438 111.53125 83.546875 111.050781 85.003906 C 110.566406 86.457031 110.082031 87.910156 109.757812 88.878906 C 109.597656 89.523438 109.4375 90.171875 109.113281 90.816406 C 108.953125 90.976562 108.632812 91.140625 108.46875 91.140625 C 108.148438 91.140625 107.664062 91.140625 107.34375 91.140625 C 107.019531 91.140625 106.699219 90.976562 106.375 90.976562 C 106.050781 90.816406 105.890625 90.816406 106.050781 90.65625 C 106.375 90.007812 106.535156 89.523438 106.699219 88.878906 C 107.019531 87.746094 107.503906 86.457031 107.988281 84.839844 C 108.46875 83.226562 108.953125 81.449219 109.597656 79.511719 C 110.242188 77.574219 110.726562 75.636719 111.210938 73.699219 C 111.695312 71.757812 112.339844 69.984375 112.820312 68.367188 C 113.304688 66.753906 113.789062 65.300781 114.113281 64.332031 C 114.433594 63.359375 114.757812 62.070312 114.917969 60.9375 C 115.078125 59.808594 115.238281 59.324219 115.238281 59.164062 C 115.238281 59 115.5625 58.839844 115.882812 58.839844 C 116.367188 58.839844 116.691406 58.839844 117.171875 58.839844 C 117.496094 58.839844 117.980469 59 118.300781 59 C 118.625 59.164062 118.785156 59.324219 118.785156 59.324219 C 118.625 59.648438 118.625 59.96875 118.464844 60.292969 C 118.464844 60.777344 118.300781 61.261719 118.140625 61.90625 C 118.785156 61.101562 119.589844 60.292969 120.398438 59.648438 C 121.203125 59 122.007812 58.515625 123.136719 58.515625 C 124.105469 58.355469 124.910156 58.679688 125.554688 59.484375 C 125.878906 60.292969 126.039062 61.101562 126.039062 61.90625 C 126.039062 62.875 125.714844 63.847656 125.394531 64.652344 C 125.070312 65.621094 124.910156 66.269531 124.75 66.753906 C 124.585938 67.238281 124.265625 67.882812 123.941406 68.527344 C 123.621094 69.175781 123.296875 69.660156 122.976562 70.304688 C 124.425781 69.335938 125.878906 68.207031 127.003906 66.914062 C 128.292969 65.460938 129.585938 64.007812 130.710938 62.390625 C 131.035156 62.070312 131.355469 61.90625 131.839844 61.90625 C 132.324219 61.90625 132.484375 62.070312 132.164062 62.390625 Z M 115.882812 73.375 C 116.367188 73.535156 116.851562 73.210938 117.496094 72.40625 C 116.691406 72.242188 116.046875 71.757812 115.5625 71.113281 L 115.078125 72.40625 C 115.078125 73.050781 115.238281 73.375 115.882812 73.375 Z M 119.109375 62.390625 C 118.945312 62.714844 118.625 63.039062 118.464844 63.359375 L 117.820312 64.652344 L 117.335938 65.945312 C 117.171875 66.429688 117.011719 66.753906 116.851562 67.238281 C 116.691406 67.558594 116.691406 68.042969 116.691406 68.367188 C 116.691406 68.851562 116.691406 69.175781 116.851562 69.660156 C 117.011719 70.144531 117.171875 70.46875 117.335938 70.789062 C 117.496094 71.113281 117.980469 71.273438 118.300781 71.4375 C 118.785156 70.628906 119.269531 69.820312 119.753906 69.015625 C 120.234375 68.207031 120.71875 67.238281 121.042969 66.269531 C 121.363281 65.460938 121.6875 64.652344 122.007812 63.683594 C 122.171875 63.039062 122.492188 62.230469 122.492188 61.421875 C 122.652344 60.9375 122.652344 60.453125 122.652344 59.96875 C 122.652344 59.648438 122.492188 59.484375 122.332031 59.484375 C 122.007812 59.484375 121.6875 59.648438 121.363281 59.96875 C 121.042969 60.292969 120.71875 60.453125 120.398438 60.777344 C 120.074219 61.101562 119.753906 61.421875 119.589844 61.746094 Z M 119.109375 62.390625 "/>
<path style=" stroke:none;fill-rule:nonzero;fill:rgb(100%,100%,100%);fill-opacity:1;" d="M 137.320312 58.191406 C 137.804688 58.191406 138.449219 58.355469 138.769531 58.679688 C 139.09375 58.679688 139.253906 58.679688 139.578125 58.679688 C 139.898438 58.679688 140.222656 58.679688 140.542969 58.679688 C 140.867188 58.679688 141.027344 58.679688 141.351562 58.839844 C 141.511719 58.839844 141.671875 59 141.671875 59.164062 C 141.351562 59.648438 141.1875 59.96875 141.027344 60.453125 L 140.058594 62.875 C 139.738281 63.847656 139.253906 64.816406 138.933594 65.785156 C 138.609375 66.753906 138.289062 67.882812 137.964844 68.691406 C 137.804688 69.5 137.480469 70.304688 137.480469 71.113281 C 137.320312 71.757812 137.480469 72.242188 137.644531 72.242188 C 137.804688 72.242188 138.125 71.921875 138.769531 71.113281 C 139.414062 70.304688 140.222656 69.335938 141.027344 68.207031 C 141.832031 67.074219 142.800781 65.945312 143.605469 64.816406 C 144.414062 63.683594 145.058594 62.875 145.703125 62.230469 C 146.023438 61.90625 146.347656 61.746094 146.828125 61.746094 C 147.3125 61.746094 147.472656 61.90625 147.152344 62.230469 C 146.023438 64.007812 144.894531 65.621094 143.605469 67.398438 C 142.316406 69.175781 141.1875 70.628906 140.058594 72.082031 C 139.898438 72.242188 139.738281 72.566406 139.578125 72.726562 C 139.414062 72.890625 138.933594 73.210938 138.769531 73.535156 C 138.449219 73.859375 138.125 74.019531 137.804688 74.183594 C 137.480469 74.34375 137.160156 74.503906 136.835938 74.503906 C 135.707031 74.503906 135.0625 74.183594 134.742188 73.535156 C 134.417969 72.726562 134.257812 71.757812 134.417969 70.953125 C 133.773438 71.921875 132.96875 72.726562 132.164062 73.375 C 131.355469 74.183594 130.390625 74.503906 129.261719 74.667969 C 128.457031 74.828125 127.488281 74.503906 127.003906 73.859375 C 126.523438 73.210938 126.359375 72.566406 126.359375 71.921875 C 126.359375 71.113281 126.359375 70.304688 126.683594 69.5 C 126.84375 68.851562 127.003906 68.367188 127.328125 67.722656 C 127.8125 66.589844 128.457031 65.460938 129.101562 64.332031 C 129.90625 63.199219 130.710938 62.070312 131.519531 61.101562 C 132.324219 60.132812 133.453125 59.324219 134.582031 58.679688 C 135.0625 58.355469 136.191406 58.191406 137.320312 58.191406 Z M 132.808594 70.628906 C 132.96875 70.304688 133.128906 70.144531 133.292969 69.820312 L 133.9375 68.851562 L 134.582031 67.722656 L 135.0625 66.914062 L 135.226562 66.269531 C 135.546875 65.300781 135.871094 64.492188 136.191406 63.683594 C 136.515625 62.875 136.835938 62.070312 137.160156 61.421875 L 137.160156 61.261719 C 137.320312 60.777344 137.480469 60.292969 137.644531 59.808594 C 137.804688 59.324219 137.644531 59 137.160156 59 C 136.515625 59 136.03125 59.324219 135.546875 59.808594 C 134.902344 60.453125 134.417969 61.101562 133.9375 61.746094 C 133.453125 62.554688 132.808594 63.359375 132.324219 64.332031 L 130.710938 67.238281 C 129.90625 68.527344 129.261719 69.984375 128.941406 71.4375 C 128.777344 72.566406 128.941406 73.050781 129.585938 72.890625 C 130.390625 72.726562 131.035156 72.40625 131.519531 71.757812 C 132.164062 71.273438 132.484375 70.789062 132.808594 70.628906 Z M 132.808594 70.628906 "/>
<path style=" stroke:none;fill-rule:nonzero;fill:rgb(100%,100%,100%);fill-opacity:1;" d="M 152.148438 58.191406 C 152.792969 58.191406 153.4375 58.515625 153.921875 59 C 154.40625 58.839844 155.050781 58.839844 155.535156 59 C 156.179688 59.164062 156.339844 59.324219 156.339844 59.484375 C 156.015625 60.132812 155.695312 60.777344 155.371094 61.421875 C 155.050781 62.390625 154.566406 63.359375 154.242188 64.492188 C 153.921875 65.621094 153.4375 66.753906 152.953125 68.042969 L 151.828125 71.4375 C 153.597656 70.144531 155.371094 68.527344 156.660156 66.753906 C 157.304688 65.785156 158.113281 64.976562 158.757812 64.167969 L 160.207031 62.230469 C 160.53125 61.90625 160.851562 61.746094 161.335938 61.746094 C 161.820312 61.746094 161.980469 61.90625 161.65625 62.230469 C 161.175781 63.039062 160.53125 64.007812 160.046875 64.652344 L 158.433594 66.914062 C 157.46875 68.207031 156.339844 69.335938 155.210938 70.46875 C 153.921875 71.4375 152.792969 72.40625 151.34375 73.375 L 151.34375 73.535156 C 151.34375 73.535156 151.34375 73.535156 151.34375 73.699219 C 150.859375 75.957031 150.375 78.058594 150.214844 80.15625 C 149.890625 82.09375 149.570312 84.035156 148.925781 85.972656 C 148.441406 87.585938 147.472656 89.039062 146.347656 90.171875 C 145.058594 91.300781 143.285156 91.945312 141.511719 91.785156 C 140.542969 91.785156 139.578125 91.625 138.769531 91.140625 C 138.125 90.65625 137.644531 90.007812 137.480469 89.363281 C 137.160156 88.71875 137.160156 87.910156 137.160156 87.261719 C 137.160156 86.617188 137.160156 86.132812 137.320312 85.488281 C 137.644531 84.195312 138.125 83.0625 138.769531 81.933594 C 139.414062 80.964844 140.382812 79.996094 141.351562 79.027344 C 142.316406 78.058594 143.445312 77.25 144.574219 76.605469 L 148.121094 74.34375 C 148.28125 73.859375 148.28125 73.375 148.441406 72.890625 C 148.601562 72.40625 148.601562 72.082031 148.765625 71.597656 C 148.121094 72.40625 147.472656 73.050781 146.667969 73.699219 C 145.863281 74.34375 145.058594 74.667969 144.089844 74.828125 C 143.285156 74.988281 142.316406 74.667969 141.832031 74.019531 C 141.351562 73.375 141.1875 72.726562 141.1875 72.082031 C 141.1875 71.273438 141.1875 70.46875 141.511719 69.820312 C 141.671875 69.175781 141.832031 68.691406 142.15625 68.042969 C 142.640625 66.914062 143.121094 65.785156 143.765625 64.816406 C 144.414062 63.683594 145.378906 62.554688 146.183594 61.585938 C 146.992188 60.617188 148.121094 59.808594 149.246094 59.164062 C 149.890625 58.355469 151.019531 58.191406 152.148438 58.191406 Z M 140.867188 90.65625 C 141.832031 90.65625 142.800781 90.171875 143.285156 89.363281 C 144.089844 88.394531 144.574219 87.101562 145.058594 85.972656 C 145.539062 84.355469 146.023438 82.742188 146.347656 81.125 C 146.667969 79.351562 147.152344 77.574219 147.472656 75.796875 C 145.539062 76.925781 143.605469 78.21875 141.996094 79.835938 C 140.382812 81.289062 139.253906 83.226562 138.609375 85.324219 C 138.449219 85.972656 138.449219 86.617188 138.449219 87.261719 C 138.449219 87.910156 138.449219 88.394531 138.609375 89.039062 C 138.769531 89.523438 138.933594 90.007812 139.414062 90.332031 C 139.898438 90.492188 140.382812 90.65625 140.867188 90.65625 Z M 147.636719 70.628906 C 148.121094 69.984375 148.441406 69.5 148.765625 68.851562 C 149.246094 68.042969 149.570312 67.398438 149.890625 66.914062 L 150.054688 66.429688 C 150.375 65.460938 150.699219 64.652344 151.019531 63.683594 C 151.34375 62.875 151.664062 62.070312 151.988281 61.421875 L 151.988281 61.261719 C 152.148438 60.777344 152.308594 60.292969 152.472656 59.808594 C 152.632812 59.324219 152.472656 59 151.988281 59 C 151.34375 59 150.859375 59.324219 150.375 59.808594 C 149.730469 60.453125 149.246094 61.101562 148.765625 61.746094 C 148.28125 62.554688 147.636719 63.359375 147.152344 64.332031 L 145.539062 67.238281 C 144.734375 68.527344 144.25 69.984375 143.765625 71.4375 C 143.605469 72.566406 143.765625 73.050781 144.414062 72.890625 C 145.21875 72.726562 145.863281 72.40625 146.347656 71.757812 C 147.152344 71.273438 147.472656 70.789062 147.636719 70.628906 Z M 147.636719 70.628906 "/>
<path style=" stroke:none;fill-rule:nonzero;fill:rgb(100%,100%,100%);fill-opacity:1;" d="M 174.550781 62.230469 C 174.230469 62.554688 173.90625 63.199219 173.421875 64.007812 C 172.941406 64.816406 172.296875 65.621094 171.652344 66.589844 C 171.007812 67.558594 170.039062 68.527344 169.234375 69.5 C 168.425781 70.46875 167.460938 71.4375 166.332031 72.242188 C 165.363281 73.050781 164.238281 73.699219 163.109375 74.183594 C 161.980469 74.667969 160.851562 74.828125 159.722656 74.667969 C 158.757812 74.667969 157.949219 74.183594 157.304688 73.535156 C 156.824219 72.890625 156.5 72.082031 156.339844 71.273438 C 156.179688 70.304688 156.179688 69.335938 156.5 68.527344 C 156.660156 67.558594 156.984375 66.589844 157.46875 65.785156 C 157.789062 65.136719 158.273438 64.332031 158.917969 63.359375 C 159.5625 62.390625 160.207031 61.421875 161.011719 60.617188 C 161.820312 59.808594 162.785156 59 163.753906 58.515625 C 164.71875 58.03125 165.847656 57.707031 166.976562 57.707031 C 167.460938 57.707031 168.105469 57.871094 168.425781 58.191406 C 168.75 58.355469 169.070312 58.679688 169.070312 59.164062 C 169.234375 59.648438 169.234375 59.96875 169.070312 60.453125 C 168.910156 60.9375 168.910156 61.421875 168.75 61.746094 C 168.425781 62.554688 168.105469 63.359375 167.621094 64.007812 C 166.976562 64.976562 166.332031 65.945312 165.527344 66.753906 C 164.71875 67.722656 163.914062 68.527344 162.949219 69.335938 C 161.980469 70.144531 160.851562 70.789062 159.722656 71.273438 C 159.722656 71.757812 159.886719 72.082031 160.046875 72.566406 C 160.207031 72.890625 160.691406 73.050781 161.011719 72.890625 C 161.65625 72.726562 162.140625 72.566406 162.625 72.242188 C 163.429688 71.757812 164.238281 71.273438 164.882812 70.789062 C 165.6875 70.144531 166.492188 69.5 167.300781 68.851562 C 167.945312 68.207031 168.589844 67.558594 169.234375 66.753906 L 172.941406 62.230469 C 173.101562 62.070312 173.261719 61.90625 173.421875 61.90625 C 173.585938 61.90625 173.746094 61.746094 174.066406 61.746094 C 174.550781 61.746094 174.714844 61.90625 174.550781 62.230469 Z M 161.011719 66.429688 C 160.851562 66.753906 160.691406 67.238281 160.367188 67.882812 C 160.046875 68.527344 159.886719 69.335938 159.722656 70.144531 C 160.851562 69.335938 161.820312 68.527344 162.625 67.398438 C 163.59375 66.269531 164.558594 65.136719 165.203125 64.007812 C 165.847656 63.039062 166.332031 62.070312 166.652344 61.101562 C 166.976562 60.292969 166.652344 59.808594 166.007812 59.808594 C 165.527344 59.808594 165.042969 59.96875 164.71875 60.292969 C 164.238281 60.777344 163.753906 61.261719 163.269531 61.90625 C 162.785156 62.554688 162.300781 63.359375 161.820312 64.007812 C 161.335938 64.652344 161.335938 65.621094 161.011719 66.429688 Z M 161.011719 66.429688 "/>
<path style=" stroke:none;fill-rule:nonzero;fill:rgb(100%,100%,100%);fill-opacity:1;" d="M 192.441406 68.042969 C 192.441406 68.367188 192.28125 68.691406 192.28125 69.015625 C 192.121094 69.5 191.957031 69.984375 191.796875 70.46875 C 191.636719 70.953125 191.636719 71.4375 191.476562 71.921875 C 191.3125 72.40625 191.476562 72.566406 191.476562 72.566406 C 191.476562 72.566406 192.121094 72.082031 192.765625 71.273438 C 193.410156 70.46875 194.375 69.335938 195.34375 68.207031 L 198.246094 64.816406 C 199.210938 63.683594 199.855469 62.875 200.339844 62.230469 C 200.660156 61.90625 200.984375 61.746094 201.46875 61.746094 C 201.953125 61.746094 202.113281 61.90625 201.953125 62.230469 C 201.789062 62.554688 201.308594 63.039062 200.824219 63.847656 C 200.339844 64.652344 199.695312 65.460938 199.050781 66.429688 C 198.40625 67.398438 197.601562 68.367188 196.792969 69.335938 C 195.988281 70.304688 195.183594 71.273438 194.375 72.082031 C 193.730469 72.890625 192.925781 73.535156 192.121094 74.183594 C 191.636719 74.667969 190.992188 74.828125 190.347656 74.988281 C 189.542969 74.988281 188.734375 74.667969 188.25 74.183594 C 187.769531 73.699219 187.605469 73.210938 187.605469 72.566406 C 187.605469 71.597656 187.769531 70.628906 188.089844 69.820312 C 188.414062 68.851562 188.734375 67.722656 189.058594 66.589844 L 190.1875 63.359375 C 190.507812 62.230469 190.832031 61.261719 191.152344 60.453125 C 191.152344 60.292969 191.152344 60.132812 191.152344 59.96875 C 191.152344 59.808594 190.992188 59.808594 190.667969 59.808594 L 189.058594 61.101562 C 188.089844 61.90625 187.285156 62.875 186.800781 64.007812 C 186.316406 65.785156 185.835938 67.398438 185.1875 69.015625 C 184.542969 70.789062 183.898438 72.242188 183.253906 73.699219 C 183.09375 74.019531 182.933594 74.183594 182.609375 74.34375 C 182.289062 74.503906 181.804688 74.667969 181.480469 74.667969 C 181.160156 74.667969 180.675781 74.667969 180.355469 74.667969 C 180.03125 74.667969 179.710938 74.34375 179.710938 74.183594 C 180.03125 73.210938 180.515625 72.082031 181 70.953125 C 181.480469 69.820312 181.964844 68.527344 182.289062 67.398438 C 182.609375 66.269531 183.09375 64.976562 183.253906 63.847656 C 183.578125 62.714844 183.738281 61.585938 183.738281 60.453125 C 183.738281 60.292969 183.578125 60.132812 183.578125 59.96875 C 183.578125 59.808594 183.253906 59.808594 182.933594 59.96875 C 182.609375 60.132812 182.449219 60.292969 182.289062 60.453125 C 181.964844 60.777344 181.644531 61.261719 181.320312 61.585938 C 181 62.070312 180.675781 62.554688 180.355469 63.039062 C 180.03125 63.523438 179.871094 64.007812 179.546875 64.492188 C 179.226562 65.945312 178.742188 67.398438 178.097656 68.851562 C 177.453125 70.304688 176.808594 71.757812 176.003906 73.210938 C 175.839844 73.535156 175.519531 73.859375 175.195312 74.019531 C 174.714844 74.183594 174.390625 74.34375 173.90625 74.503906 C 173.585938 74.667969 173.101562 74.667969 172.777344 74.503906 C 172.457031 74.503906 172.296875 74.183594 172.296875 73.859375 C 172.617188 72.890625 173.101562 71.757812 173.746094 70.789062 C 174.390625 69.820312 174.714844 68.691406 175.035156 67.722656 C 175.359375 66.753906 175.679688 65.621094 176.003906 64.652344 C 176.164062 63.683594 176.324219 62.554688 176.324219 61.421875 C 176.324219 61.261719 176.324219 61.261719 176.324219 61.101562 C 176.324219 60.9375 176.164062 61.101562 176.003906 61.261719 C 175.839844 61.421875 175.519531 61.585938 175.359375 61.90625 C 175.195312 62.070312 175.035156 62.390625 174.875 62.554688 C 174.550781 63.039062 174.066406 63.199219 173.585938 63.199219 C 173.101562 63.199219 173.101562 62.875 173.421875 62.554688 C 173.746094 62.070312 174.230469 61.421875 174.714844 60.9375 C 175.195312 60.453125 175.679688 59.96875 176.164062 59.324219 C 176.484375 59 176.808594 58.839844 177.128906 58.679688 C 177.453125 58.515625 177.9375 58.355469 178.257812 58.355469 C 178.582031 58.355469 178.902344 58.355469 179.226562 58.515625 C 179.386719 58.515625 179.546875 58.679688 179.546875 58.839844 C 179.710938 59 179.710938 59.164062 179.710938 59.324219 C 179.871094 60.132812 179.871094 60.9375 179.871094 61.585938 C 180.675781 60.292969 181.644531 59.324219 182.933594 58.355469 C 183.578125 57.871094 184.382812 57.546875 185.1875 57.546875 C 185.835938 57.546875 186.640625 57.707031 186.960938 58.355469 C 187.285156 58.679688 187.285156 59.164062 187.445312 59.648438 C 187.605469 60.292969 187.605469 60.9375 187.445312 61.421875 C 187.929688 60.777344 188.574219 60.132812 189.21875 59.484375 C 189.703125 59 190.347656 58.679688 190.832031 58.191406 C 191.3125 57.871094 191.796875 57.707031 192.28125 57.546875 C 192.765625 57.386719 193.25 57.386719 193.730469 57.386719 C 194.054688 57.386719 194.539062 57.546875 194.859375 57.707031 C 195.019531 57.707031 195.183594 57.871094 195.183594 58.03125 C 195.183594 58.191406 195.183594 58.355469 195.019531 58.515625 C 195.019531 59.164062 195.019531 59.648438 194.859375 60.292969 C 194.699219 61.101562 194.375 61.90625 194.214844 62.714844 C 194.054688 63.523438 193.730469 64.492188 193.410156 65.460938 C 193.085938 66.429688 192.765625 67.398438 192.441406 68.042969 Z M 192.441406 68.042969 "/>
<path style=" stroke:none;fill-rule:nonzero;fill:rgb(100%,100%,100%);fill-opacity:1;" d="M 207.109375 58.355469 C 207.59375 58.355469 208.238281 58.515625 208.558594 58.839844 C 208.882812 58.839844 209.042969 58.839844 209.367188 58.839844 C 209.6875 58.839844 210.011719 58.839844 210.332031 58.839844 C 210.65625 58.839844 210.816406 58.839844 211.136719 59 C 211.300781 59 211.460938 59.164062 211.460938 59.324219 C 211.136719 59.808594 210.976562 60.132812 210.816406 60.617188 L 209.847656 63.039062 C 209.527344 64.007812 209.042969 64.976562 208.722656 65.945312 C 208.398438 66.914062 208.074219 68.042969 207.753906 68.851562 C 207.429688 69.660156 207.269531 70.46875 207.269531 71.273438 C 207.109375 71.921875 207.269531 72.242188 207.429688 72.40625 C 207.59375 72.566406 207.914062 72.082031 208.558594 71.273438 C 209.203125 70.46875 210.011719 69.5 210.816406 68.367188 L 213.394531 64.976562 C 214.199219 63.847656 214.84375 63.039062 215.328125 62.390625 C 215.652344 62.070312 215.972656 61.90625 216.457031 61.90625 C 216.941406 61.90625 217.101562 62.070312 216.78125 62.390625 C 215.652344 64.167969 214.523438 65.785156 213.234375 67.558594 C 211.945312 69.335938 210.816406 70.789062 209.6875 72.242188 C 209.527344 72.40625 209.367188 72.726562 209.203125 72.890625 C 208.882812 73.210938 208.722656 73.535156 208.398438 73.699219 C 208.074219 74.019531 207.753906 74.183594 207.429688 74.503906 C 207.109375 74.667969 206.785156 74.828125 206.464844 74.828125 C 205.335938 74.828125 204.691406 74.503906 204.367188 73.859375 C 204.046875 73.050781 203.886719 72.082031 204.046875 71.273438 C 203.402344 72.242188 202.597656 73.050781 201.789062 73.699219 C 200.984375 74.503906 200.015625 74.828125 198.890625 74.988281 C 198.082031 75.152344 197.117188 74.828125 196.632812 74.183594 C 196.148438 73.535156 195.988281 72.890625 195.988281 72.242188 C 195.988281 71.4375 195.988281 70.628906 196.308594 69.820312 C 196.472656 69.175781 196.632812 68.691406 196.953125 68.042969 C 197.4375 66.914062 197.921875 65.785156 198.726562 64.816406 C 199.535156 63.683594 200.339844 62.554688 201.308594 61.585938 C 202.113281 60.617188 203.242188 59.808594 204.367188 59.164062 C 204.851562 58.679688 205.980469 58.355469 207.109375 58.355469 Z M 202.597656 70.789062 C 202.757812 70.46875 202.917969 70.304688 203.078125 69.984375 L 203.722656 69.015625 L 204.367188 67.882812 L 204.851562 67.074219 L 205.015625 66.429688 C 205.335938 65.460938 205.660156 64.652344 205.980469 63.847656 C 206.304688 63.039062 206.625 62.230469 206.949219 61.585938 L 206.949219 61.421875 C 207.109375 60.9375 207.269531 60.453125 207.429688 59.96875 C 207.59375 59.484375 207.429688 59.164062 207.109375 59.324219 C 206.464844 59.324219 205.980469 59.648438 205.496094 60.132812 C 204.851562 60.777344 204.367188 61.261719 203.886719 62.070312 C 203.402344 62.875 202.757812 63.683594 202.273438 64.652344 L 200.660156 67.558594 C 199.855469 68.851562 199.371094 70.304688 198.890625 71.757812 C 198.726562 72.890625 198.890625 73.375 199.535156 73.210938 C 200.339844 73.050781 200.984375 72.726562 201.46875 72.082031 C 202.113281 71.4375 202.433594 70.953125 202.597656 70.789062 Z M 202.597656 70.789062 "/>
<path style=" stroke:none;fill-rule:nonzero;fill:rgb(100%,100%,100%);fill-opacity:1;" d="M 216.457031 69.015625 C 216.136719 70.304688 215.8125 71.273438 215.652344 72.242188 C 215.488281 72.726562 215.328125 73.375 215.328125 74.019531 C 215.167969 74.183594 214.84375 74.34375 214.683594 74.34375 C 214.199219 74.34375 213.878906 74.34375 213.394531 74.34375 C 213.074219 74.34375 212.589844 74.183594 212.265625 74.183594 C 211.945312 74.019531 211.78125 73.859375 211.78125 73.699219 C 211.945312 73.210938 211.945312 72.890625 212.105469 72.40625 C 212.265625 71.757812 212.429688 71.113281 212.589844 70.304688 C 212.589844 69.660156 212.75 69.015625 212.910156 68.367188 C 213.074219 67.722656 213.234375 67.074219 213.394531 66.269531 C 213.554688 65.460938 213.878906 64.652344 214.199219 63.847656 C 214.683594 62.714844 215.167969 61.585938 215.652344 60.292969 C 216.136719 59 216.78125 57.707031 217.425781 56.253906 C 218.070312 54.800781 218.550781 53.671875 219.195312 52.378906 C 219.84375 51.085938 220.164062 50.117188 220.488281 49.3125 L 221.132812 47.855469 C 221.292969 47.695312 221.613281 47.535156 221.777344 47.535156 C 222.097656 47.535156 222.582031 47.535156 222.902344 47.535156 C 223.226562 47.535156 223.550781 47.535156 223.871094 47.695312 C 224.195312 47.855469 224.355469 47.855469 224.195312 48.019531 C 224.03125 48.503906 223.710938 48.828125 223.550781 49.3125 L 222.421875 52.054688 C 221.9375 53.1875 221.453125 54.316406 220.96875 55.769531 C 220.488281 57.222656 219.84375 58.515625 219.359375 59.96875 C 219.679688 59.648438 220.164062 59.324219 220.488281 59 C 220.808594 58.679688 221.132812 58.515625 221.453125 58.191406 C 222.257812 57.546875 223.226562 57.386719 224.195312 57.546875 C 225.160156 57.707031 225.644531 58.03125 225.804688 58.679688 C 225.964844 59.324219 225.964844 60.132812 225.964844 60.9375 C 225.804688 61.90625 225.484375 62.875 225 63.683594 C 224.515625 64.652344 223.871094 65.460938 223.066406 66.105469 C 222.257812 66.753906 221.292969 67.238281 220.164062 67.398438 C 220.488281 67.882812 220.648438 68.527344 220.96875 69.015625 C 221.132812 69.5 221.292969 69.984375 221.453125 70.46875 C 221.613281 70.789062 221.777344 71.273438 222.097656 71.597656 C 222.257812 71.921875 222.582031 72.242188 223.066406 72.40625 C 223.066406 72.40625 223.226562 72.242188 223.550781 71.921875 C 223.871094 71.597656 224.195312 71.113281 224.839844 70.46875 C 225.484375 69.820312 225.804688 69.175781 226.449219 68.367188 C 227.09375 67.558594 227.578125 66.753906 228.222656 66.105469 L 229.835938 64.007812 L 231.125 62.390625 C 231.445312 62.070312 231.769531 61.90625 232.253906 61.90625 C 232.734375 61.90625 232.898438 62.070312 232.734375 62.390625 C 231.609375 64.167969 230.480469 65.945312 229.191406 67.558594 L 225.644531 72.40625 L 225.160156 73.050781 C 224.839844 73.375 224.675781 73.699219 224.355469 73.859375 C 224.03125 74.183594 223.710938 74.34375 223.386719 74.503906 C 223.066406 74.667969 222.742188 74.828125 222.421875 74.828125 C 221.453125 74.828125 220.648438 74.503906 220.003906 74.019531 C 219.359375 73.375 219.035156 72.726562 218.550781 71.921875 C 218.230469 71.113281 217.90625 70.304688 217.746094 69.5 C 217.585938 68.851562 217.425781 68.042969 217.101562 67.398438 C 218.550781 66.753906 219.84375 65.785156 220.96875 64.652344 C 222.097656 63.523438 222.582031 61.90625 222.257812 60.453125 C 222.257812 60.292969 222.257812 60.132812 222.097656 59.96875 C 222.097656 59.808594 221.9375 59.648438 221.613281 59.808594 C 220.96875 60.292969 220.488281 60.777344 219.84375 61.421875 C 218.875 62.390625 218.230469 63.523438 217.585938 64.816406 C 217.425781 66.429688 216.941406 67.722656 216.457031 69.015625 Z M 216.457031 69.015625 "/>
<path style=" stroke:none;fill-rule:nonzero;fill:rgb(100%,100%,100%);fill-opacity:1;" d="M 245.628906 62.390625 C 245.308594 62.714844 244.984375 63.359375 244.5 64.167969 C 243.855469 65.136719 243.375 65.945312 242.730469 66.753906 C 241.921875 67.722656 241.117188 68.691406 240.3125 69.660156 C 239.503906 70.628906 238.539062 71.597656 237.410156 72.40625 C 236.441406 73.210938 235.316406 73.859375 234.1875 74.34375 C 233.058594 74.828125 231.929688 74.988281 230.800781 74.828125 C 229.835938 74.828125 229.027344 74.34375 228.382812 73.699219 C 227.902344 73.050781 227.578125 72.242188 227.417969 71.4375 C 227.253906 70.46875 227.417969 69.660156 227.578125 68.691406 C 227.738281 67.722656 228.222656 66.753906 228.546875 65.945312 C 228.867188 65.300781 229.351562 64.492188 229.996094 63.523438 C 230.640625 62.554688 231.285156 61.585938 232.089844 60.777344 C 232.898438 59.96875 233.863281 59.164062 234.832031 58.679688 C 235.796875 58.191406 236.925781 57.871094 238.054688 57.871094 C 238.699219 57.871094 239.183594 58.03125 239.667969 58.355469 C 239.988281 58.515625 240.148438 59 240.3125 59.324219 C 240.472656 59.808594 240.472656 60.132812 240.3125 60.617188 C 240.148438 61.101562 240.148438 61.585938 239.988281 61.90625 C 239.667969 62.714844 239.34375 63.523438 238.859375 64.167969 C 238.214844 65.136719 237.570312 66.105469 236.765625 66.914062 C 235.960938 67.882812 234.992188 68.691406 234.023438 69.5 C 233.058594 70.304688 231.929688 70.953125 230.800781 71.4375 C 230.800781 71.921875 230.960938 72.242188 231.125 72.726562 C 231.445312 73.050781 231.769531 73.210938 232.253906 73.050781 C 232.898438 72.890625 233.378906 72.726562 233.863281 72.40625 C 234.667969 71.921875 235.476562 71.4375 236.121094 70.953125 C 236.925781 70.304688 237.730469 69.660156 238.539062 69.015625 C 239.34375 68.367188 239.988281 67.722656 240.472656 67.074219 L 244.179688 62.554688 C 244.5 62.230469 244.824219 62.070312 245.308594 62.070312 C 245.789062 61.90625 245.953125 62.070312 245.628906 62.390625 Z M 232.253906 66.589844 C 232.089844 66.914062 231.929688 67.398438 231.609375 68.042969 C 231.285156 68.691406 231.125 69.5 230.960938 70.304688 C 232.089844 69.5 233.058594 68.691406 233.863281 67.558594 C 234.832031 66.429688 235.796875 65.300781 236.605469 64.167969 C 237.25 63.199219 237.730469 62.230469 238.054688 61.261719 C 238.375 60.453125 238.054688 59.96875 237.410156 59.96875 C 236.925781 59.96875 236.441406 60.132812 236.121094 60.453125 C 235.636719 60.9375 235.152344 61.421875 234.832031 62.070312 C 234.347656 62.714844 233.863281 63.523438 233.378906 64.167969 C 232.898438 64.816406 232.574219 65.785156 232.253906 66.589844 Z M 232.253906 66.589844 "/>
<path style=" stroke:none;fill-rule:nonzero;fill:rgb(100%,100%,100%);fill-opacity:1;" d="M 251.59375 60.9375 C 251.109375 62.070312 250.625 63.199219 249.980469 64.332031 C 249.335938 65.621094 248.53125 66.914062 248.046875 68.042969 C 247.5625 69.015625 247.082031 69.984375 246.757812 71.113281 C 246.597656 71.921875 246.757812 72.40625 247.402344 72.40625 C 247.726562 72.40625 248.371094 72.082031 249.175781 71.113281 C 249.980469 70.144531 250.789062 69.335938 251.753906 68.207031 C 252.722656 67.074219 253.527344 65.945312 254.332031 64.816406 L 256.429688 62.070312 C 256.589844 61.90625 256.75 61.746094 256.910156 61.746094 C 257.074219 61.746094 257.394531 61.585938 257.554688 61.585938 C 258.039062 61.585938 258.203125 61.746094 257.878906 62.070312 C 257.394531 62.875 256.75 63.847656 255.785156 65.300781 C 254.816406 66.753906 253.851562 68.042969 252.882812 69.335938 C 251.914062 70.628906 250.789062 71.757812 249.660156 72.890625 C 248.691406 73.859375 247.402344 74.503906 246.113281 74.503906 C 245.46875 74.667969 244.664062 74.34375 244.179688 73.699219 C 243.855469 73.050781 243.695312 72.40625 243.855469 71.757812 C 244.019531 70.789062 244.179688 69.820312 244.664062 69.015625 C 245.144531 68.042969 245.628906 66.914062 246.113281 65.945312 C 246.597656 64.976562 247.082031 64.007812 247.402344 63.199219 C 247.726562 62.554688 248.046875 61.90625 248.371094 61.101562 C 248.371094 60.777344 248.207031 60.777344 247.726562 60.777344 C 247.5625 60.777344 247.242188 60.777344 247.082031 60.9375 C 246.917969 61.101562 246.757812 61.261719 246.597656 61.421875 C 246.4375 61.585938 246.273438 61.746094 246.113281 61.90625 C 245.953125 62.070312 245.789062 62.230469 245.789062 62.390625 C 245.46875 62.875 244.984375 63.039062 244.5 63.039062 C 244.019531 63.039062 244.019531 62.714844 244.339844 62.390625 L 244.664062 61.90625 C 245.144531 61.101562 245.46875 60.132812 245.46875 59.324219 C 245.628906 58.515625 245.628906 57.871094 245.46875 57.0625 C 245.46875 56.902344 245.46875 56.738281 245.789062 56.738281 C 246.113281 56.578125 246.4375 56.578125 246.917969 56.417969 C 247.242188 56.417969 247.5625 56.417969 247.886719 56.417969 C 248.207031 56.417969 248.207031 56.578125 248.046875 56.738281 C 247.726562 57.386719 247.886719 58.03125 248.371094 58.679688 C 248.53125 58.839844 248.691406 58.839844 248.851562 58.839844 L 250.464844 58.839844 C 250.625 58.839844 250.625 58.839844 250.789062 58.839844 C 250.949219 58.839844 250.949219 59 250.949219 59 C 251.59375 59.96875 251.753906 60.453125 251.59375 60.9375 Z M 251.59375 60.9375 "/>
<path style=" stroke:none;fill-rule:nonzero;fill:rgb(100%,100%,100%);fill-opacity:1;" d="M 268.195312 63.523438 C 267.226562 64.652344 266.261719 65.785156 265.132812 66.914062 C 264.003906 68.042969 262.554688 69.015625 260.941406 69.660156 C 260.78125 70.144531 260.457031 70.789062 260.136719 71.273438 C 259.8125 71.757812 259.492188 72.242188 259.007812 72.726562 C 258.523438 73.210938 258.039062 73.699219 257.554688 74.183594 C 256.910156 74.667969 256.105469 74.988281 255.300781 75.152344 C 254.496094 75.472656 253.527344 75.3125 252.722656 74.828125 C 252.078125 74.503906 251.753906 73.859375 251.753906 73.210938 C 251.59375 72.566406 251.914062 71.757812 252.238281 71.273438 C 252.722656 70.628906 253.527344 69.984375 254.332031 69.820312 C 254.816406 69.660156 255.300781 69.5 255.785156 69.335938 L 257.234375 69.015625 C 257.554688 67.882812 257.71875 66.753906 257.878906 65.621094 C 258.039062 64.492188 258.039062 63.683594 258.203125 63.199219 C 258.203125 62.714844 258.363281 62.390625 258.363281 61.90625 C 258.363281 61.746094 258.203125 61.746094 257.71875 62.230469 L 257.554688 62.390625 L 257.394531 62.554688 C 257.074219 63.039062 256.589844 63.199219 256.105469 63.199219 C 255.621094 63.199219 255.621094 62.875 255.945312 62.390625 L 256.75 61.585938 L 256.75 61.421875 C 257.074219 60.9375 257.554688 60.292969 257.878906 59.648438 C 258.203125 59 258.523438 58.355469 258.683594 57.546875 C 258.683594 57.386719 259.007812 57.0625 259.328125 56.902344 C 259.8125 56.738281 260.136719 56.578125 260.617188 56.578125 C 260.941406 56.417969 261.425781 56.417969 261.746094 56.578125 L 261.910156 56.578125 C 262.070312 56.578125 262.070312 56.738281 262.070312 56.902344 L 262.070312 57.0625 C 261.910156 58.03125 261.746094 59 261.746094 59.96875 C 261.746094 60.9375 261.746094 62.070312 261.746094 63.039062 C 261.746094 63.847656 261.746094 64.492188 261.746094 65.136719 C 261.746094 65.785156 261.585938 66.589844 261.585938 67.238281 C 262.714844 66.589844 263.84375 65.785156 264.808594 64.976562 C 265.777344 64.007812 266.742188 62.875 267.710938 61.90625 C 268.03125 61.585938 268.355469 61.421875 268.839844 61.421875 C 269.324219 61.421875 269.484375 61.585938 269.160156 61.90625 Z M 254.332031 73.535156 C 254.976562 73.535156 255.460938 73.210938 255.785156 72.726562 C 256.265625 72.082031 256.589844 71.4375 256.75 70.789062 C 256.105469 70.953125 255.460938 71.113281 254.816406 71.4375 C 254.496094 71.597656 254.011719 71.921875 253.6875 72.082031 C 253.527344 72.242188 253.367188 72.40625 253.203125 72.726562 C 253.203125 72.890625 253.203125 72.890625 253.042969 73.050781 C 253.042969 73.210938 253.203125 73.210938 253.203125 73.375 C 253.527344 73.375 253.851562 73.535156 254.332031 73.535156 Z M 254.332031 73.535156 "/>
<path style=" stroke:none;fill-rule:nonzero;fill:rgb(90.980392%,29.411765%,38.039216%);fill-opacity:1;" d="M 30.300781 15.074219 L 20.308594 15.074219 C 17.246094 15.074219 14.988281 17.496094 14.988281 20.402344 L 14.988281 30.414062 C 14.988281 33.484375 17.40625 35.90625 20.308594 35.90625 L 30.300781 35.90625 C 33.363281 35.90625 35.621094 33.484375 35.621094 30.414062 L 35.621094 20.402344 C 35.78125 17.496094 33.363281 15.074219 30.300781 15.074219 Z M 30.300781 15.074219 "/>
<path style=" stroke:none;fill-rule:nonzero;fill:rgb(100%,76.078431%,5.098039%);fill-opacity:1;" d="M 66.726562 15.074219 L 49.640625 15.074219 C 48.675781 15.074219 47.867188 15.878906 47.867188 16.847656 L 47.867188 34.128906 C 47.867188 35.097656 48.675781 35.90625 49.640625 35.90625 L 66.886719 35.90625 C 67.855469 35.90625 68.660156 35.097656 68.660156 34.128906 L 68.660156 16.847656 C 68.660156 15.878906 67.855469 15.074219 66.726562 15.074219 Z M 66.726562 15.074219 "/>
<path style=" stroke:none;fill-rule:evenodd;fill:rgb(36.862745%,65.490196%,27.45098%);fill-opacity:1;" d="M 23.371094 48.339844 C 24.015625 47.210938 25.464844 46.886719 26.433594 47.535156 C 26.753906 47.695312 27.078125 48.019531 27.238281 48.339844 L 31.105469 55.125 L 34.976562 61.90625 C 35.621094 63.039062 35.296875 64.332031 34.167969 64.976562 C 33.847656 65.136719 33.523438 65.300781 33.039062 65.300781 L 17.40625 65.300781 C 16.117188 65.300781 15.148438 64.332031 15.148438 63.039062 C 15.148438 62.714844 15.3125 62.230469 15.472656 61.90625 L 19.339844 55.125 Z M 23.371094 48.339844 "/>
<path style=" stroke:none;fill-rule:nonzero;fill:rgb(100%,100%,100%);fill-opacity:1;" d="M 4.511719 68.851562 C 1.933594 68.851562 0 66.753906 0 64.332031 L 0 4.738281 C 0 2.152344 2.09375 0.214844 4.511719 0.214844 L 67.371094 0.214844 C 69.949219 0.0546875 72.046875 1.992188 72.207031 4.574219 C 72.367188 7.160156 70.433594 9.257812 67.855469 9.421875 C 67.691406 9.421875 67.53125 9.421875 67.371094 9.421875 L 9.1875 9.421875 L 9.1875 64.492188 C 9.1875 66.914062 7.089844 68.851562 4.511719 68.851562 Z M 4.511719 68.851562 "/>
<path style=" stroke:none;fill-rule:nonzero;fill:rgb(100%,100%,100%);fill-opacity:1;" d="M 89.289062 90.007812 L 30.300781 90.007812 C 27.722656 89.847656 25.789062 87.746094 25.789062 85.164062 C 25.949219 82.742188 27.722656 80.964844 29.976562 80.804688 L 84.777344 80.804688 L 84.777344 30.414062 C 84.617188 27.832031 86.550781 25.730469 89.128906 25.570312 C 91.707031 25.410156 93.804688 27.347656 93.964844 29.929688 C 93.964844 30.09375 93.964844 30.253906 93.964844 30.414062 L 93.964844 85.488281 C 93.964844 88.070312 92.03125 90.007812 89.289062 90.007812 Z M 89.289062 90.007812 "/>
<path style=" stroke:none;fill-rule:nonzero;fill:rgb(0%,0%,0%);fill-opacity:1;" d="M 59.796875 75.152344 C 60.117188 74.988281 60.117188 74.828125 59.957031 74.828125 C 59.796875 74.828125 59.796875 74.828125 59.632812 74.828125 L 59.472656 74.828125 C 59.3125 74.988281 59.3125 74.988281 59.472656 75.152344 C 59.472656 75.152344 59.632812 75.152344 59.796875 75.152344 Z M 59.796875 75.152344 "/>
<path style=" stroke:none;fill-rule:nonzero;fill:rgb(100%,100%,100%);fill-opacity:1;" d="M 46.417969 68.851562 C 43.839844 68.851562 41.90625 66.753906 41.90625 64.332031 L 41.90625 45.433594 C 41.90625 42.851562 44 40.914062 46.417969 40.75 L 65.277344 40.75 C 67.855469 40.75 69.789062 42.851562 69.789062 45.433594 C 69.789062 48.019531 67.691406 49.957031 65.277344 49.957031 L 51.09375 49.957031 L 51.09375 64.167969 C 50.929688 66.753906 48.996094 68.851562 46.417969 68.851562 Z M 46.417969 68.851562 "/>
<path style=" stroke:none;fill-rule:nonzero;fill:rgb(100%,100%,100%);fill-opacity:1;" d="M 73.171875 76.28125 C 71.882812 76.28125 70.753906 75.796875 69.949219 74.988281 L 45.613281 50.441406 C 44 48.503906 44.484375 45.597656 46.417969 43.980469 C 48.03125 42.6875 50.449219 42.6875 52.058594 43.980469 L 76.558594 68.367188 C 78.332031 70.144531 78.332031 73.050781 76.558594 74.828125 C 75.589844 75.636719 74.460938 76.121094 73.171875 76.28125 Z M 73.171875 76.28125 "/>
<path style=" stroke:none;fill-rule:nonzero;fill:rgb(100%,100%,100%);fill-opacity:1;" d="M 116.851562 34.128906 L 130.390625 34.128906 L 128.941406 40.589844 L 106.859375 40.589844 L 113.304688 12.8125 L 121.847656 12.8125 Z M 116.851562 34.128906 "/>
<path style=" stroke:none;fill-rule:nonzero;fill:rgb(100%,100%,100%);fill-opacity:1;" d="M 138.933594 40.914062 C 137.644531 40.914062 136.515625 40.589844 135.386719 39.945312 C 134.257812 39.296875 133.453125 38.328125 132.808594 37.199219 C 132.164062 35.746094 131.839844 34.292969 131.839844 32.675781 C 131.839844 31.0625 132 29.285156 132.484375 27.667969 C 132.96875 26.054688 133.613281 24.601562 134.582031 23.308594 C 135.386719 22.015625 136.515625 20.886719 137.804688 20.078125 C 139.09375 19.273438 140.542969 18.789062 142.15625 18.949219 C 142.960938 18.949219 143.765625 19.109375 144.574219 19.433594 C 146.347656 20.078125 147.636719 21.695312 147.957031 23.632812 L 148.925781 19.273438 L 157.46875 19.273438 L 152.632812 40.265625 L 144.894531 40.265625 L 145.539062 36.230469 C 144.894531 37.519531 143.929688 38.652344 142.800781 39.460938 C 141.671875 40.429688 140.382812 40.914062 138.933594 40.914062 Z M 142.960938 34.777344 C 143.605469 34.777344 144.089844 34.613281 144.574219 34.128906 C 145.058594 33.644531 145.539062 33.160156 145.863281 32.515625 C 146.183594 31.867188 146.507812 31.0625 146.667969 30.253906 C 146.828125 29.609375 146.992188 28.800781 146.992188 27.992188 C 146.992188 27.507812 146.992188 26.863281 146.667969 26.378906 C 146.507812 25.894531 146.183594 25.570312 145.863281 25.410156 C 145.539062 25.085938 145.058594 25.085938 144.574219 25.085938 C 143.929688 25.085938 143.285156 25.246094 142.800781 25.730469 C 142.316406 26.214844 141.832031 26.863281 141.511719 27.347656 C 141.1875 27.992188 140.867188 28.800781 140.707031 29.445312 C 140.542969 30.09375 140.382812 30.738281 140.382812 31.546875 C 140.382812 32.03125 140.542969 32.675781 140.707031 33.160156 C 140.867188 33.644531 141.1875 33.96875 141.511719 34.292969 C 141.996094 34.777344 142.476562 34.777344 142.960938 34.777344 Z M 142.960938 34.777344 "/>
<path style=" stroke:none;fill-rule:nonzero;fill:rgb(100%,100%,100%);fill-opacity:1;" d="M 155.695312 40.429688 L 160.53125 19.433594 L 168.105469 19.433594 L 166.976562 26.863281 L 166.652344 26.054688 C 167.136719 23.957031 168.265625 22.179688 169.714844 20.886719 C 171.167969 19.59375 173.101562 18.949219 175.035156 19.109375 C 176.324219 19.109375 177.613281 19.433594 178.742188 20.078125 C 179.710938 20.726562 180.515625 21.695312 180.835938 22.824219 C 181.160156 24.277344 181.160156 25.730469 180.835938 27.023438 L 177.613281 40.589844 L 169.070312 40.589844 L 171.972656 28.316406 C 172.132812 27.667969 172.132812 26.863281 171.8125 26.214844 C 171.488281 25.730469 170.84375 25.410156 170.039062 25.410156 C 169.554688 25.410156 169.070312 25.570312 168.589844 25.894531 C 168.105469 26.214844 167.78125 26.699219 167.460938 27.183594 C 167.136719 27.832031 166.816406 28.476562 166.816406 29.125 L 164.238281 40.589844 Z M 155.695312 40.429688 "/>
<path style=" stroke:none;fill-rule:nonzero;fill:rgb(100%,100%,100%);fill-opacity:1;" d="M 188.734375 40.914062 C 187.445312 40.914062 186.316406 40.589844 185.1875 39.945312 C 184.0625 39.296875 183.253906 38.328125 182.609375 37.199219 C 181.964844 35.746094 181.644531 34.292969 181.644531 32.675781 C 181.644531 31.0625 181.964844 29.285156 182.289062 27.667969 C 182.773438 26.054688 183.417969 24.601562 184.382812 23.308594 C 185.1875 22.015625 186.316406 20.886719 187.605469 20.078125 C 188.894531 19.273438 190.347656 18.789062 191.957031 18.949219 C 192.765625 18.949219 193.570312 19.109375 194.375 19.433594 C 195.183594 19.757812 195.988281 20.242188 196.472656 20.886719 C 197.117188 21.695312 197.601562 22.664062 197.601562 23.632812 L 200.660156 10.710938 L 209.203125 10.710938 L 202.433594 40.429688 L 194.699219 40.429688 L 195.34375 36.390625 C 194.699219 37.683594 193.730469 38.8125 192.601562 39.621094 C 191.476562 40.589844 190.023438 40.914062 188.734375 40.914062 Z M 192.601562 34.777344 C 193.25 34.777344 193.730469 34.613281 194.214844 34.128906 C 194.699219 33.644531 195.183594 33.160156 195.503906 32.515625 C 195.828125 31.867188 196.148438 31.0625 196.308594 30.253906 C 196.472656 29.609375 196.632812 28.800781 196.632812 27.992188 C 196.632812 27.507812 196.632812 26.863281 196.308594 26.378906 C 196.148438 25.894531 195.828125 25.570312 195.503906 25.410156 C 195.183594 25.085938 194.699219 25.085938 194.214844 25.085938 C 193.570312 25.085938 192.925781 25.246094 192.441406 25.730469 C 191.957031 26.214844 191.476562 26.863281 191.152344 27.347656 C 190.507812 28.640625 190.1875 30.09375 190.1875 31.546875 C 190.1875 32.191406 190.347656 32.675781 190.507812 33.160156 C 190.667969 33.644531 190.992188 33.96875 191.3125 34.292969 C 191.636719 34.777344 192.121094 34.777344 192.601562 34.777344 Z M 192.601562 34.777344 "/>
<path style=" stroke:none;fill-rule:nonzero;fill:rgb(100%,100%,100%);fill-opacity:1;" d="M 218.714844 19.433594 L 213.878906 40.429688 L 205.335938 40.429688 L 210.171875 19.433594 Z M 215.328125 17.65625 C 214.199219 17.65625 213.074219 17.496094 212.105469 16.847656 C 211.300781 16.203125 210.976562 15.074219 211.136719 14.105469 C 211.136719 12.972656 211.78125 11.84375 212.589844 11.035156 C 213.71875 10.390625 214.84375 10.066406 216.136719 10.226562 C 217.261719 10.226562 218.550781 10.390625 219.519531 11.035156 C 220.324219 11.679688 220.648438 12.648438 220.488281 13.621094 C 220.488281 14.910156 219.84375 16.042969 218.875 16.847656 C 217.746094 17.496094 216.457031 17.65625 215.328125 17.65625 Z M 215.328125 17.65625 "/>
<path style=" stroke:none;fill-rule:nonzero;fill:rgb(100%,100%,100%);fill-opacity:1;" d="M 216.941406 40.429688 L 221.777344 19.433594 L 229.351562 19.433594 L 228.222656 26.863281 L 227.902344 26.054688 C 228.382812 23.957031 229.511719 22.179688 230.960938 20.886719 C 232.414062 19.59375 234.347656 18.949219 236.28125 19.109375 C 237.570312 19.109375 238.859375 19.433594 239.988281 20.078125 C 240.957031 20.726562 241.761719 21.695312 242.082031 22.824219 C 242.40625 24.277344 242.40625 25.730469 242.082031 27.023438 L 238.859375 40.589844 L 230.316406 40.589844 L 233.21875 28.316406 C 233.378906 27.667969 233.378906 26.863281 233.058594 26.214844 C 232.734375 25.730469 232.089844 25.410156 231.445312 25.410156 C 230.960938 25.410156 230.480469 25.570312 229.996094 25.894531 C 229.511719 26.214844 229.191406 26.699219 228.867188 27.183594 C 228.546875 27.832031 228.222656 28.476562 228.222656 29.125 L 225.644531 40.589844 Z M 216.941406 40.429688 "/>
<path style=" stroke:none;fill-rule:nonzero;fill:rgb(100%,100%,100%);fill-opacity:1;" d="M 250.949219 49.472656 C 249.660156 49.472656 248.53125 49.3125 247.242188 48.988281 C 246.113281 48.664062 244.984375 48.179688 244.019531 47.535156 C 243.050781 46.886719 242.246094 46.082031 241.761719 45.113281 C 241.277344 43.980469 240.957031 42.6875 241.117188 41.558594 L 249.660156 40.914062 C 249.660156 41.71875 249.660156 42.6875 250.144531 43.335938 C 250.625 43.980469 251.433594 44.304688 252.238281 44.304688 C 252.722656 44.304688 253.203125 44.144531 253.6875 43.820312 C 254.171875 43.496094 254.496094 43.011719 254.816406 42.527344 C 255.140625 41.71875 255.460938 40.914062 255.621094 40.105469 L 257.394531 32.675781 L 257.71875 32.835938 C 257.394531 34.777344 256.589844 36.714844 255.300781 38.167969 C 254.011719 39.460938 252.398438 40.105469 250.625 39.945312 C 249.335938 39.945312 248.207031 39.621094 247.082031 38.976562 C 245.953125 38.328125 245.144531 37.359375 244.5 36.230469 C 243.855469 34.9375 243.535156 33.320312 243.535156 31.867188 C 243.535156 30.253906 243.695312 28.640625 244.179688 27.023438 C 244.664062 25.570312 245.308594 24.117188 246.273438 22.824219 C 247.082031 21.695312 248.207031 20.5625 249.496094 19.917969 C 250.789062 19.273438 252.238281 18.789062 253.6875 18.789062 C 254.65625 18.789062 255.621094 18.949219 256.589844 19.433594 C 257.554688 19.917969 258.203125 20.726562 258.847656 21.53125 C 259.492188 22.664062 259.8125 24.117188 259.652344 25.410156 L 258.683594 26.699219 L 260.457031 19.109375 L 269 19.109375 L 264.488281 38.8125 C 264.003906 41.074219 263.199219 43.171875 261.910156 45.113281 C 260.78125 46.566406 259.328125 47.695312 257.554688 48.339844 C 255.140625 49.3125 253.042969 49.632812 250.949219 49.472656 Z M 254.171875 33.96875 C 254.976562 33.96875 255.785156 33.644531 256.265625 33 C 256.910156 32.351562 257.234375 31.546875 257.554688 30.738281 C 257.878906 29.929688 258.039062 28.960938 258.039062 27.992188 C 258.039062 27.507812 257.878906 26.863281 257.71875 26.378906 C 257.394531 25.570312 256.589844 24.925781 255.621094 24.925781 C 254.816406 24.925781 254.011719 25.246094 253.527344 25.894531 C 252.882812 26.539062 252.558594 27.347656 252.238281 28.152344 C 251.914062 28.960938 251.914062 29.769531 251.753906 30.578125 C 251.753906 31.382812 251.914062 32.191406 252.398438 32.835938 C 252.722656 33.644531 253.367188 33.96875 254.171875 33.96875 Z M 254.171875 33.96875 "/>
<path style=" stroke:none;fill-rule:nonzero;fill:rgb(100%,100%,100%);fill-opacity:1;" d="M 131.035156 63.683594 C 130.550781 64.332031 130.066406 64.976562 129.261719 65.785156 C 128.457031 66.589844 127.648438 67.398438 126.84375 68.207031 C 125.878906 69.015625 125.070312 69.820312 123.941406 70.46875 C 122.976562 71.113281 122.007812 71.757812 121.042969 72.082031 C 120.234375 72.890625 119.429688 73.699219 118.300781 74.34375 C 117.335938 74.828125 116.207031 75.152344 115.238281 74.988281 C 114.917969 74.988281 114.59375 74.828125 114.273438 74.667969 C 113.789062 76.441406 113.144531 78.21875 112.660156 79.996094 C 112.175781 81.773438 111.53125 83.546875 111.050781 85.003906 C 110.566406 86.457031 110.082031 87.910156 109.757812 88.878906 C 109.597656 89.523438 109.4375 90.171875 109.113281 90.816406 C 108.953125 90.976562 108.632812 91.140625 108.46875 91.140625 C 108.148438 91.140625 107.664062 91.140625 107.34375 91.140625 C 107.019531 91.140625 106.699219 90.976562 106.375 90.976562 C 106.050781 90.816406 105.890625 90.816406 106.050781 90.65625 C 106.375 90.007812 106.535156 89.523438 106.699219 88.878906 C 107.019531 87.746094 107.503906 86.457031 107.988281 84.839844 C 108.46875 83.226562 108.953125 81.449219 109.597656 79.511719 C 110.242188 77.574219 110.726562 75.636719 111.210938 73.699219 C 111.695312 71.757812 112.339844 69.984375 112.820312 68.367188 C 113.304688 66.753906 113.789062 65.300781 114.113281 64.332031 C 114.433594 63.359375 114.757812 62.070312 114.917969 60.9375 C 115.078125 59.808594 115.238281 59.324219 115.238281 59.164062 C 115.238281 59 115.5625 58.839844 115.882812 58.839844 C 116.367188 58.839844 116.691406 58.839844 117.171875 58.839844 C 117.496094 58.839844 117.980469 59 118.300781 59 C 118.625 59.164062 118.785156 59.324219 118.785156 59.324219 C 118.625 59.648438 118.625 59.96875 118.464844 60.292969 C 118.464844 60.777344 118.300781 61.261719 118.140625 61.90625 C 118.785156 61.101562 119.589844 60.292969 120.398438 59.648438 C 121.203125 59 122.007812 58.515625 123.136719 58.515625 C 124.105469 58.355469 124.910156 58.679688 125.554688 59.484375 C 125.878906 60.292969 126.039062 61.101562 126.039062 61.90625 C 126.039062 62.875 125.714844 63.847656 125.394531 64.652344 C 125.070312 65.621094 124.910156 66.269531 124.75 66.753906 C 124.585938 67.238281 124.265625 67.882812 123.941406 68.527344 C 123.621094 69.175781 123.296875 69.660156 122.976562 70.304688 C 124.425781 69.335938 125.878906 68.207031 127.003906 66.914062 C 128.292969 65.460938 129.585938 64.007812 130.710938 62.390625 C 131.035156 62.070312 131.355469 61.90625 131.839844 61.90625 C 132.324219 61.90625 132.484375 62.070312 132.164062 62.390625 Z M 115.882812 73.375 C 116.367188 73.535156 116.851562 73.210938 117.496094 72.40625 C 116.691406 72.242188 116.046875 71.757812 115.5625 71.113281 L 115.078125 72.40625 C 115.078125 73.050781 115.238281 73.375 115.882812 73.375 Z M 119.109375 62.390625 C 118.945312 62.714844 118.625 63.039062 118.464844 63.359375 L 117.820312 64.652344 L 117.335938 65.945312 C 117.171875 66.429688 117.011719 66.753906 116.851562 67.238281 C 116.691406 67.558594 116.691406 68.042969 116.691406 68.367188 C 116.691406 68.851562 116.691406 69.175781 116.851562 69.660156 C 117.011719 70.144531 117.171875 70.46875 117.335938 70.789062 C 117.496094 71.113281 117.980469 71.273438 118.300781 71.4375 C 118.785156 70.628906 119.269531 69.820312 119.753906 69.015625 C 120.234375 68.207031 120.71875 67.238281 121.042969 66.269531 C 121.363281 65.460938 121.6875 64.652344 122.007812 63.683594 C 122.171875 63.039062 122.492188 62.230469 122.492188 61.421875 C 122.652344 60.9375 122.652344 60.453125 122.652344 59.96875 C 122.652344 59.648438 122.492188 59.484375 122.332031 59.484375 C 122.007812 59.484375 121.6875 59.648438 121.363281 59.96875 C 121.042969 60.292969 120.71875 60.453125 120.398438 60.777344 C 120.074219 61.101562 119.753906 61.421875 119.589844 61.746094 Z M 119.109375 62.390625 "/>
<path style=" stroke:none;fill-rule:nonzero;fill:rgb(100%,100%,100%);fill-opacity:1;" d="M 137.320312 58.191406 C 137.804688 58.191406 138.449219 58.355469 138.769531 58.679688 C 139.09375 58.679688 139.253906 58.679688 139.578125 58.679688 C 139.898438 58.679688 140.222656 58.679688 140.542969 58.679688 C 140.867188 58.679688 141.027344 58.679688 141.351562 58.839844 C 141.511719 58.839844 141.671875 59 141.671875 59.164062 C 141.351562 59.648438 141.1875 59.96875 141.027344 60.453125 L 140.058594 62.875 C 139.738281 63.847656 139.253906 64.816406 138.933594 65.785156 C 138.609375 66.753906 138.289062 67.882812 137.964844 68.691406 C 137.804688 69.5 137.480469 70.304688 137.480469 71.113281 C 137.320312 71.757812 137.480469 72.242188 137.644531 72.242188 C 137.804688 72.242188 138.125 71.921875 138.769531 71.113281 C 139.414062 70.304688 140.222656 69.335938 141.027344 68.207031 C 141.832031 67.074219 142.800781 65.945312 143.605469 64.816406 C 144.414062 63.683594 145.058594 62.875 145.703125 62.230469 C 146.023438 61.90625 146.347656 61.746094 146.828125 61.746094 C 147.3125 61.746094 147.472656 61.90625 147.152344 62.230469 C 146.023438 64.007812 144.894531 65.621094 143.605469 67.398438 C 142.316406 69.175781 141.1875 70.628906 140.058594 72.082031 C 139.898438 72.242188 139.738281 72.566406 139.578125 72.726562 C 139.414062 72.890625 138.933594 73.210938 138.769531 73.535156 C 138.449219 73.859375 138.125 74.019531 137.804688 74.183594 C 137.480469 74.34375 137.160156 74.503906 136.835938 74.503906 C 135.707031 74.503906 135.0625 74.183594 134.742188 73.535156 C 134.417969 72.726562 134.257812 71.757812 134.417969 70.953125 C 133.773438 71.921875 132.96875 72.726562 132.164062 73.375 C 131.355469 74.183594 130.390625 74.503906 129.261719 74.667969 C 128.457031 74.828125 127.488281 74.503906 127.003906 73.859375 C 126.523438 73.210938 126.359375 72.566406 126.359375 71.921875 C 126.359375 71.113281 126.359375 70.304688 126.683594 69.5 C 126.84375 68.851562 127.003906 68.367188 127.328125 67.722656 C 127.8125 66.589844 128.457031 65.460938 129.101562 64.332031 C 129.90625 63.199219 130.710938 62.070312 131.519531 61.101562 C 132.324219 60.132812 133.453125 59.324219 134.582031 58.679688 C 135.0625 58.355469 136.191406 58.191406 137.320312 58.191406 Z M 132.808594 70.628906 C 132.96875 70.304688 133.128906 70.144531 133.292969 69.820312 L 133.9375 68.851562 L 134.582031 67.722656 L 135.0625 66.914062 L 135.226562 66.269531 C 135.546875 65.300781 135.871094 64.492188 136.191406 63.683594 C 136.515625 62.875 136.835938 62.070312 137.160156 61.421875 L 137.160156 61.261719 C 137.320312 60.777344 137.480469 60.292969 137.644531 59.808594 C 137.804688 59.324219 137.644531 59 137.160156 59 C 136.515625 59 136.03125 59.324219 135.546875 59.808594 C 134.902344 60.453125 134.417969 61.101562 133.9375 61.746094 C 133.453125 62.554688 132.808594 63.359375 132.324219 64.332031 L 130.710938 67.238281 C 129.90625 68.527344 129.261719 69.984375 128.941406 71.4375 C 128.777344 72.566406 128.941406 73.050781 129.585938 72.890625 C 130.390625 72.726562 131.035156 72.40625 131.519531 71.757812 C 132.164062 71.273438 132.484375 70.789062 132.808594 70.628906 Z M 132.808594 70.628906 "/>
<path style=" stroke:none;fill-rule:nonzero;fill:rgb(100%,100%,100%);fill-opacity:1;" d="M 152.148438 58.191406 C 152.792969 58.191406 153.4375 58.515625 153.921875 59 C 154.40625 58.839844 155.050781 58.839844 155.535156 59 C 156.179688 59.164062 156.339844 59.324219 156.339844 59.484375 C 156.015625 60.132812 155.695312 60.777344 155.371094 61.421875 C 155.050781 62.390625 154.566406 63.359375 154.242188 64.492188 C 153.921875 65.621094 153.4375 66.753906 152.953125 68.042969 L 151.828125 71.4375 C 153.597656 70.144531 155.371094 68.527344 156.660156 66.753906 C 157.304688 65.785156 158.113281 64.976562 158.757812 64.167969 L 160.207031 62.230469 C 160.53125 61.90625 160.851562 61.746094 161.335938 61.746094 C 161.820312 61.746094 161.980469 61.90625 161.65625 62.230469 C 161.175781 63.039062 160.53125 64.007812 160.046875 64.652344 L 158.433594 66.914062 C 157.46875 68.207031 156.339844 69.335938 155.210938 70.46875 C 153.921875 71.4375 152.792969 72.40625 151.34375 73.375 L 151.34375 73.535156 C 151.34375 73.535156 151.34375 73.535156 151.34375 73.699219 C 150.859375 75.957031 150.375 78.058594 150.214844 80.15625 C 149.890625 82.09375 149.570312 84.035156 148.925781 85.972656 C 148.441406 87.585938 147.472656 89.039062 146.347656 90.171875 C 145.058594 91.300781 143.285156 91.945312 141.511719 91.785156 C 140.542969 91.785156 139.578125 91.625 138.769531 91.140625 C 138.125 90.65625 137.644531 90.007812 137.480469 89.363281 C 137.160156 88.71875 137.160156 87.910156 137.160156 87.261719 C 137.160156 86.617188 137.160156 86.132812 137.320312 85.488281 C 137.644531 84.195312 138.125 83.0625 138.769531 81.933594 C 139.414062 80.964844 140.382812 79.996094 141.351562 79.027344 C 142.316406 78.058594 143.445312 77.25 144.574219 76.605469 L 148.121094 74.34375 C 148.28125 73.859375 148.28125 73.375 148.441406 72.890625 C 148.601562 72.40625 148.601562 72.082031 148.765625 71.597656 C 148.121094 72.40625 147.472656 73.050781 146.667969 73.699219 C 145.863281 74.34375 145.058594 74.667969 144.089844 74.828125 C 143.285156 74.988281 142.316406 74.667969 141.832031 74.019531 C 141.351562 73.375 141.1875 72.726562 141.1875 72.082031 C 141.1875 71.273438 141.1875 70.46875 141.511719 69.820312 C 141.671875 69.175781 141.832031 68.691406 142.15625 68.042969 C 142.640625 66.914062 143.121094 65.785156 143.765625 64.816406 C 144.414062 63.683594 145.378906 62.554688 146.183594 61.585938 C 146.992188 60.617188 148.121094 59.808594 149.246094 59.164062 C 149.890625 58.355469 151.019531 58.191406 152.148438 58.191406 Z M 140.867188 90.65625 C 141.832031 90.65625 142.800781 90.171875 143.285156 89.363281 C 144.089844 88.394531 144.574219 87.101562 145.058594 85.972656 C 145.539062 84.355469 146.023438 82.742188 146.347656 81.125 C 146.667969 79.351562 147.152344 77.574219 147.472656 75.796875 C 145.539062 76.925781 143.605469 78.21875 141.996094 79.835938 C 140.382812 81.289062 139.253906 83.226562 138.609375 85.324219 C 138.449219 85.972656 138.449219 86.617188 138.449219 87.261719 C 138.449219 87.910156 138.449219 88.394531 138.609375 89.039062 C 138.769531 89.523438 138.933594 90.007812 139.414062 90.332031 C 139.898438 90.492188 140.382812 90.65625 140.867188 90.65625 Z M 147.636719 70.628906 C 148.121094 69.984375 148.441406 69.5 148.765625 68.851562 C 149.246094 68.042969 149.570312 67.398438 149.890625 66.914062 L 150.054688 66.429688 C 150.375 65.460938 150.699219 64.652344 151.019531 63.683594 C 151.34375 62.875 151.664062 62.070312 151.988281 61.421875 L 151.988281 61.261719 C 152.148438 60.777344 152.308594 60.292969 152.472656 59.808594 C 152.632812 59.324219 152.472656 59 151.988281 59 C 151.34375 59 150.859375 59.324219 150.375 59.808594 C 149.730469 60.453125 149.246094 61.101562 148.765625 61.746094 C 148.28125 62.554688 147.636719 63.359375 147.152344 64.332031 L 145.539062 67.238281 C 144.734375 68.527344 144.25 69.984375 143.765625 71.4375 C 143.605469 72.566406 143.765625 73.050781 144.414062 72.890625 C 145.21875 72.726562 145.863281 72.40625 146.347656 71.757812 C 147.152344 71.273438 147.472656 70.789062 147.636719 70.628906 Z M 147.636719 70.628906 "/>
<path style=" stroke:none;fill-rule:nonzero;fill:rgb(100%,100%,100%);fill-opacity:1;" d="M 174.550781 62.230469 C 174.230469 62.554688 173.90625 63.199219 173.421875 64.007812 C 172.941406 64.816406 172.296875 65.621094 171.652344 66.589844 C 171.007812 67.558594 170.039062 68.527344 169.234375 69.5 C 168.425781 70.46875 167.460938 71.4375 166.332031 72.242188 C 165.363281 73.050781 164.238281 73.699219 163.109375 74.183594 C 161.980469 74.667969 160.851562 74.828125 159.722656 74.667969 C 158.757812 74.667969 157.949219 74.183594 157.304688 73.535156 C 156.824219 72.890625 156.5 72.082031 156.339844 71.273438 C 156.179688 70.304688 156.179688 69.335938 156.5 68.527344 C 156.660156 67.558594 156.984375 66.589844 157.46875 65.785156 C 157.789062 65.136719 158.273438 64.332031 158.917969 63.359375 C 159.5625 62.390625 160.207031 61.421875 161.011719 60.617188 C 161.820312 59.808594 162.785156 59 163.753906 58.515625 C 164.71875 58.03125 165.847656 57.707031 166.976562 57.707031 C 167.460938 57.707031 168.105469 57.871094 168.425781 58.191406 C 168.75 58.355469 169.070312 58.679688 169.070312 59.164062 C 169.234375 59.648438 169.234375 59.96875 169.070312 60.453125 C 168.910156 60.9375 168.910156 61.421875 168.75 61.746094 C 168.425781 62.554688 168.105469 63.359375 167.621094 64.007812 C 166.976562 64.976562 166.332031 65.945312 165.527344 66.753906 C 164.71875 67.722656 163.914062 68.527344 162.949219 69.335938 C 161.980469 70.144531 160.851562 70.789062 159.722656 71.273438 C 159.722656 71.757812 159.886719 72.082031 160.046875 72.566406 C 160.207031 72.890625 160.691406 73.050781 161.011719 72.890625 C 161.65625 72.726562 162.140625 72.566406 162.625 72.242188 C 163.429688 71.757812 164.238281 71.273438 164.882812 70.789062 C 165.6875 70.144531 166.492188 69.5 167.300781 68.851562 C 167.945312 68.207031 168.589844 67.558594 169.234375 66.753906 L 172.941406 62.230469 C 173.101562 62.070312 173.261719 61.90625 173.421875 61.90625 C 173.585938 61.90625 173.746094 61.746094 174.066406 61.746094 C 174.550781 61.746094 174.714844 61.90625 174.550781 62.230469 Z M 161.011719 66.429688 C 160.851562 66.753906 160.691406 67.238281 160.367188 67.882812 C 160.046875 68.527344 159.886719 69.335938 159.722656 70.144531 C 160.851562 69.335938 161.820312 68.527344 162.625 67.398438 C 163.59375 66.269531 164.558594 65.136719 165.203125 64.007812 C 165.847656 63.039062 166.332031 62.070312 166.652344 61.101562 C 166.976562 60.292969 166.652344 59.808594 166.007812 59.808594 C 165.527344 59.808594 165.042969 59.96875 164.71875 60.292969 C 164.238281 60.777344 163.753906 61.261719 163.269531 61.90625 C 162.785156 62.554688 162.300781 63.359375 161.820312 64.007812 C 161.335938 64.652344 161.335938 65.621094 161.011719 66.429688 Z M 161.011719 66.429688 "/>
<path style=" stroke:none;fill-rule:nonzero;fill:rgb(100%,100%,100%);fill-opacity:1;" d="M 192.441406 68.042969 C 192.441406 68.367188 192.28125 68.691406 192.28125 69.015625 C 192.121094 69.5 191.957031 69.984375 191.796875 70.46875 C 191.636719 70.953125 191.636719 71.4375 191.476562 71.921875 C 191.3125 72.40625 191.476562 72.566406 191.476562 72.566406 C 191.476562 72.566406 192.121094 72.082031 192.765625 71.273438 C 193.410156 70.46875 194.375 69.335938 195.34375 68.207031 L 198.246094 64.816406 C 199.210938 63.683594 199.855469 62.875 200.339844 62.230469 C 200.660156 61.90625 200.984375 61.746094 201.46875 61.746094 C 201.953125 61.746094 202.113281 61.90625 201.953125 62.230469 C 201.789062 62.554688 201.308594 63.039062 200.824219 63.847656 C 200.339844 64.652344 199.695312 65.460938 199.050781 66.429688 C 198.40625 67.398438 197.601562 68.367188 196.792969 69.335938 C 195.988281 70.304688 195.183594 71.273438 194.375 72.082031 C 193.730469 72.890625 192.925781 73.535156 192.121094 74.183594 C 191.636719 74.667969 190.992188 74.828125 190.347656 74.988281 C 189.542969 74.988281 188.734375 74.667969 188.25 74.183594 C 187.769531 73.699219 187.605469 73.210938 187.605469 72.566406 C 187.605469 71.597656 187.769531 70.628906 188.089844 69.820312 C 188.414062 68.851562 188.734375 67.722656 189.058594 66.589844 L 190.1875 63.359375 C 190.507812 62.230469 190.832031 61.261719 191.152344 60.453125 C 191.152344 60.292969 191.152344 60.132812 191.152344 59.96875 C 191.152344 59.808594 190.992188 59.808594 190.667969 59.808594 L 189.058594 61.101562 C 188.089844 61.90625 187.285156 62.875 186.800781 64.007812 C 186.316406 65.785156 185.835938 67.398438 185.1875 69.015625 C 184.542969 70.789062 183.898438 72.242188 183.253906 73.699219 C 183.09375 74.019531 182.933594 74.183594 182.609375 74.34375 C 182.289062 74.503906 181.804688 74.667969 181.480469 74.667969 C 181.160156 74.667969 180.675781 74.667969 180.355469 74.667969 C 180.03125 74.667969 179.710938 74.34375 179.710938 74.183594 C 180.03125 73.210938 180.515625 72.082031 181 70.953125 C 181.480469 69.820312 181.964844 68.527344 182.289062 67.398438 C 182.609375 66.269531 183.09375 64.976562 183.253906 63.847656 C 183.578125 62.714844 183.738281 61.585938 183.738281 60.453125 C 183.738281 60.292969 183.578125 60.132812 183.578125 59.96875 C 183.578125 59.808594 183.253906 59.808594 182.933594 59.96875 C 182.609375 60.132812 182.449219 60.292969 182.289062 60.453125 C 181.964844 60.777344 181.644531 61.261719 181.320312 61.585938 C 181 62.070312 180.675781 62.554688 180.355469 63.039062 C 180.03125 63.523438 179.871094 64.007812 179.546875 64.492188 C 179.226562 65.945312 178.742188 67.398438 178.097656 68.851562 C 177.453125 70.304688 176.808594 71.757812 176.003906 73.210938 C 175.839844 73.535156 175.519531 73.859375 175.195312 74.019531 C 174.714844 74.183594 174.390625 74.34375 173.90625 74.503906 C 173.585938 74.667969 173.101562 74.667969 172.777344 74.503906 C 172.457031 74.503906 172.296875 74.183594 172.296875 73.859375 C 172.617188 72.890625 173.101562 71.757812 173.746094 70.789062 C 174.390625 69.820312 174.714844 68.691406 175.035156 67.722656 C 175.359375 66.753906 175.679688 65.621094 176.003906 64.652344 C 176.164062 63.683594 176.324219 62.554688 176.324219 61.421875 C 176.324219 61.261719 176.324219 61.261719 176.324219 61.101562 C 176.324219 60.9375 176.164062 61.101562 176.003906 61.261719 C 175.839844 61.421875 175.519531 61.585938 175.359375 61.90625 C 175.195312 62.070312 175.035156 62.390625 174.875 62.554688 C 174.550781 63.039062 174.066406 63.199219 173.585938 63.199219 C 173.101562 63.199219 173.101562 62.875 173.421875 62.554688 C 173.746094 62.070312 174.230469 61.421875 174.714844 60.9375 C 175.195312 60.453125 175.679688 59.96875 176.164062 59.324219 C 176.484375 59 176.808594 58.839844 177.128906 58.679688 C 177.453125 58.515625 177.9375 58.355469 178.257812 58.355469 C 178.582031 58.355469 178.902344 58.355469 179.226562 58.515625 C 179.386719 58.515625 179.546875 58.679688 179.546875 58.839844 C 179.710938 59 179.710938 59.164062 179.710938 59.324219 C 179.871094 60.132812 179.871094 60.9375 179.871094 61.585938 C 180.675781 60.292969 181.644531 59.324219 182.933594 58.355469 C 183.578125 57.871094 184.382812 57.546875 185.1875 57.546875 C 185.835938 57.546875 186.640625 57.707031 186.960938 58.355469 C 187.285156 58.679688 187.285156 59.164062 187.445312 59.648438 C 187.605469 60.292969 187.605469 60.9375 187.445312 61.421875 C 187.929688 60.777344 188.574219 60.132812 189.21875 59.484375 C 189.703125 59 190.347656 58.679688 190.832031 58.191406 C 191.3125 57.871094 191.796875 57.707031 192.28125 57.546875 C 192.765625 57.386719 193.25 57.386719 193.730469 57.386719 C 194.054688 57.386719 194.539062 57.546875 194.859375 57.707031 C 195.019531 57.707031 195.183594 57.871094 195.183594 58.03125 C 195.183594 58.191406 195.183594 58.355469 195.019531 58.515625 C 195.019531 59.164062 195.019531 59.648438 194.859375 60.292969 C 194.699219 61.101562 194.375 61.90625 194.214844 62.714844 C 194.054688 63.523438 193.730469 64.492188 193.410156 65.460938 C 193.085938 66.429688 192.765625 67.398438 192.441406 68.042969 Z M 192.441406 68.042969 "/>
<path style=" stroke:none;fill-rule:nonzero;fill:rgb(100%,100%,100%);fill-opacity:1;" d="M 207.109375 58.355469 C 207.59375 58.355469 208.238281 58.515625 208.558594 58.839844 C 208.882812 58.839844 209.042969 58.839844 209.367188 58.839844 C 209.6875 58.839844 210.011719 58.839844 210.332031 58.839844 C 210.65625 58.839844 210.816406 58.839844 211.136719 59 C 211.300781 59 211.460938 59.164062 211.460938 59.324219 C 211.136719 59.808594 210.976562 60.132812 210.816406 60.617188 L 209.847656 63.039062 C 209.527344 64.007812 209.042969 64.976562 208.722656 65.945312 C 208.398438 66.914062 208.074219 68.042969 207.753906 68.851562 C 207.429688 69.660156 207.269531 70.46875 207.269531 71.273438 C 207.109375 71.921875 207.269531 72.242188 207.429688 72.40625 C 207.59375 72.566406 207.914062 72.082031 208.558594 71.273438 C 209.203125 70.46875 210.011719 69.5 210.816406 68.367188 L 213.394531 64.976562 C 214.199219 63.847656 214.84375 63.039062 215.328125 62.390625 C 215.652344 62.070312 215.972656 61.90625 216.457031 61.90625 C 216.941406 61.90625 217.101562 62.070312 216.78125 62.390625 C 215.652344 64.167969 214.523438 65.785156 213.234375 67.558594 C 211.945312 69.335938 210.816406 70.789062 209.6875 72.242188 C 209.527344 72.40625 209.367188 72.726562 209.203125 72.890625 C 208.882812 73.210938 208.722656 73.535156 208.398438 73.699219 C 208.074219 74.019531 207.753906 74.183594 207.429688 74.503906 C 207.109375 74.667969 206.785156 74.828125 206.464844 74.828125 C 205.335938 74.828125 204.691406 74.503906 204.367188 73.859375 C 204.046875 73.050781 203.886719 72.082031 204.046875 71.273438 C 203.402344 72.242188 202.597656 73.050781 201.789062 73.699219 C 200.984375 74.503906 200.015625 74.828125 198.890625 74.988281 C 198.082031 75.152344 197.117188 74.828125 196.632812 74.183594 C 196.148438 73.535156 195.988281 72.890625 195.988281 72.242188 C 195.988281 71.4375 195.988281 70.628906 196.308594 69.820312 C 196.472656 69.175781 196.632812 68.691406 196.953125 68.042969 C 197.4375 66.914062 197.921875 65.785156 198.726562 64.816406 C 199.535156 63.683594 200.339844 62.554688 201.308594 61.585938 C 202.113281 60.617188 203.242188 59.808594 204.367188 59.164062 C 204.851562 58.679688 205.980469 58.355469 207.109375 58.355469 Z M 202.597656 70.789062 C 202.757812 70.46875 202.917969 70.304688 203.078125 69.984375 L 203.722656 69.015625 L 204.367188 67.882812 L 204.851562 67.074219 L 205.015625 66.429688 C 205.335938 65.460938 205.660156 64.652344 205.980469 63.847656 C 206.304688 63.039062 206.625 62.230469 206.949219 61.585938 L 206.949219 61.421875 C 207.109375 60.9375 207.269531 60.453125 207.429688 59.96875 C 207.59375 59.484375 207.429688 59.164062 207.109375 59.324219 C 206.464844 59.324219 205.980469 59.648438 205.496094 60.132812 C 204.851562 60.777344 204.367188 61.261719 203.886719 62.070312 C 203.402344 62.875 202.757812 63.683594 202.273438 64.652344 L 200.660156 67.558594 C 199.855469 68.851562 199.371094 70.304688 198.890625 71.757812 C 198.726562 72.890625 198.890625 73.375 199.535156 73.210938 C 200.339844 73.050781 200.984375 72.726562 201.46875 72.082031 C 202.113281 71.4375 202.433594 70.953125 202.597656 70.789062 Z M 202.597656 70.789062 "/>
<path style=" stroke:none;fill-rule:nonzero;fill:rgb(100%,100%,100%);fill-opacity:1;" d="M 216.457031 69.015625 C 216.136719 70.304688 215.8125 71.273438 215.652344 72.242188 C 215.488281 72.726562 215.328125 73.375 215.328125 74.019531 C 215.167969 74.183594 214.84375 74.34375 214.683594 74.34375 C 214.199219 74.34375 213.878906 74.34375 213.394531 74.34375 C 213.074219 74.34375 212.589844 74.183594 212.265625 74.183594 C 211.945312 74.019531 211.78125 73.859375 211.78125 73.699219 C 211.945312 73.210938 211.945312 72.890625 212.105469 72.40625 C 212.265625 71.757812 212.429688 71.113281 212.589844 70.304688 C 212.589844 69.660156 212.75 69.015625 212.910156 68.367188 C 213.074219 67.722656 213.234375 67.074219 213.394531 66.269531 C 213.554688 65.460938 213.878906 64.652344 214.199219 63.847656 C 214.683594 62.714844 215.167969 61.585938 215.652344 60.292969 C 216.136719 59 216.78125 57.707031 217.425781 56.253906 C 218.070312 54.800781 218.550781 53.671875 219.195312 52.378906 C 219.84375 51.085938 220.164062 50.117188 220.488281 49.3125 L 221.132812 47.855469 C 221.292969 47.695312 221.613281 47.535156 221.777344 47.535156 C 222.097656 47.535156 222.582031 47.535156 222.902344 47.535156 C 223.226562 47.535156 223.550781 47.535156 223.871094 47.695312 C 224.195312 47.855469 224.355469 47.855469 224.195312 48.019531 C 224.03125 48.503906 223.710938 48.828125 223.550781 49.3125 L 222.421875 52.054688 C 221.9375 53.1875 221.453125 54.316406 220.96875 55.769531 C 220.488281 57.222656 219.84375 58.515625 219.359375 59.96875 C 219.679688 59.648438 220.164062 59.324219 220.488281 59 C 220.808594 58.679688 221.132812 58.515625 221.453125 58.191406 C 222.257812 57.546875 223.226562 57.386719 224.195312 57.546875 C 225.160156 57.707031 225.644531 58.03125 225.804688 58.679688 C 225.964844 59.324219 225.964844 60.132812 225.964844 60.9375 C 225.804688 61.90625 225.484375 62.875 225 63.683594 C 224.515625 64.652344 223.871094 65.460938 223.066406 66.105469 C 222.257812 66.753906 221.292969 67.238281 220.164062 67.398438 C 220.488281 67.882812 220.648438 68.527344 220.96875 69.015625 C 221.132812 69.5 221.292969 69.984375 221.453125 70.46875 C 221.613281 70.789062 221.777344 71.273438 222.097656 71.597656 C 222.257812 71.921875 222.582031 72.242188 223.066406 72.40625 C 223.066406 72.40625 223.226562 72.242188 223.550781 71.921875 C 223.871094 71.597656 224.195312 71.113281 224.839844 70.46875 C 225.484375 69.820312 225.804688 69.175781 226.449219 68.367188 C 227.09375 67.558594 227.578125 66.753906 228.222656 66.105469 L 229.835938 64.007812 L 231.125 62.390625 C 231.445312 62.070312 231.769531 61.90625 232.253906 61.90625 C 232.734375 61.90625 232.898438 62.070312 232.734375 62.390625 C 231.609375 64.167969 230.480469 65.945312 229.191406 67.558594 L 225.644531 72.40625 L 225.160156 73.050781 C 224.839844 73.375 224.675781 73.699219 224.355469 73.859375 C 224.03125 74.183594 223.710938 74.34375 223.386719 74.503906 C 223.066406 74.667969 222.742188 74.828125 222.421875 74.828125 C 221.453125 74.828125 220.648438 74.503906 220.003906 74.019531 C 219.359375 73.375 219.035156 72.726562 218.550781 71.921875 C 218.230469 71.113281 217.90625 70.304688 217.746094 69.5 C 217.585938 68.851562 217.425781 68.042969 217.101562 67.398438 C 218.550781 66.753906 219.84375 65.785156 220.96875 64.652344 C 222.097656 63.523438 222.582031 61.90625 222.257812 60.453125 C 222.257812 60.292969 222.257812 60.132812 222.097656 59.96875 C 222.097656 59.808594 221.9375 59.648438 221.613281 59.808594 C 220.96875 60.292969 220.488281 60.777344 219.84375 61.421875 C 218.875 62.390625 218.230469 63.523438 217.585938 64.816406 C 217.425781 66.429688 216.941406 67.722656 216.457031 69.015625 Z M 216.457031 69.015625 "/>
<path style=" stroke:none;fill-rule:nonzero;fill:rgb(100%,100%,100%);fill-opacity:1;" d="M 245.628906 62.390625 C 245.308594 62.714844 244.984375 63.359375 244.5 64.167969 C 243.855469 65.136719 243.375 65.945312 242.730469 66.753906 C 241.921875 67.722656 241.117188 68.691406 240.3125 69.660156 C 239.503906 70.628906 238.539062 71.597656 237.410156 72.40625 C 236.441406 73.210938 235.316406 73.859375 234.1875 74.34375 C 233.058594 74.828125 231.929688 74.988281 230.800781 74.828125 C 229.835938 74.828125 229.027344 74.34375 228.382812 73.699219 C 227.902344 73.050781 227.578125 72.242188 227.417969 71.4375 C 227.253906 70.46875 227.417969 69.660156 227.578125 68.691406 C 227.738281 67.722656 228.222656 66.753906 228.546875 65.945312 C 228.867188 65.300781 229.351562 64.492188 229.996094 63.523438 C 230.640625 62.554688 231.285156 61.585938 232.089844 60.777344 C 232.898438 59.96875 233.863281 59.164062 234.832031 58.679688 C 235.796875 58.191406 236.925781 57.871094 238.054688 57.871094 C 238.699219 57.871094 239.183594 58.03125 239.667969 58.355469 C 239.988281 58.515625 240.148438 59 240.3125 59.324219 C 240.472656 59.808594 240.472656 60.132812 240.3125 60.617188 C 240.148438 61.101562 240.148438 61.585938 239.988281 61.90625 C 239.667969 62.714844 239.34375 63.523438 238.859375 64.167969 C 238.214844 65.136719 237.570312 66.105469 236.765625 66.914062 C 235.960938 67.882812 234.992188 68.691406 234.023438 69.5 C 233.058594 70.304688 231.929688 70.953125 230.800781 71.4375 C 230.800781 71.921875 230.960938 72.242188 231.125 72.726562 C 231.445312 73.050781 231.769531 73.210938 232.253906 73.050781 C 232.898438 72.890625 233.378906 72.726562 233.863281 72.40625 C 234.667969 71.921875 235.476562 71.4375 236.121094 70.953125 C 236.925781 70.304688 237.730469 69.660156 238.539062 69.015625 C 239.34375 68.367188 239.988281 67.722656 240.472656 67.074219 L 244.179688 62.554688 C 244.5 62.230469 244.824219 62.070312 245.308594 62.070312 C 245.789062 61.90625 245.953125 62.070312 245.628906 62.390625 Z M 232.253906 66.589844 C 232.089844 66.914062 231.929688 67.398438 231.609375 68.042969 C 231.285156 68.691406 231.125 69.5 230.960938 70.304688 C 232.089844 69.5 233.058594 68.691406 233.863281 67.558594 C 234.832031 66.429688 235.796875 65.300781 236.605469 64.167969 C 237.25 63.199219 237.730469 62.230469 238.054688 61.261719 C 238.375 60.453125 238.054688 59.96875 237.410156 59.96875 C 236.925781 59.96875 236.441406 60.132812 236.121094 60.453125 C 235.636719 60.9375 235.152344 61.421875 234.832031 62.070312 C 234.347656 62.714844 233.863281 63.523438 233.378906 64.167969 C 232.898438 64.816406 232.574219 65.785156 232.253906 66.589844 Z M 232.253906 66.589844 "/>
<path style=" stroke:none;fill-rule:nonzero;fill:rgb(100%,100%,100%);fill-opacity:1;" d="M 251.59375 60.9375 C 251.109375 62.070312 250.625 63.199219 249.980469 64.332031 C 249.335938 65.621094 248.53125 66.914062 248.046875 68.042969 C 247.5625 69.015625 247.082031 69.984375 246.757812 71.113281 C 246.597656 71.921875 246.757812 72.40625 247.402344 72.40625 C 247.726562 72.40625 248.371094 72.082031 249.175781 71.113281 C 249.980469 70.144531 250.789062 69.335938 251.753906 68.207031 C 252.722656 67.074219 253.527344 65.945312 254.332031 64.816406 L 256.429688 62.070312 C 256.589844 61.90625 256.75 61.746094 256.910156 61.746094 C 257.074219 61.746094 257.394531 61.585938 257.554688 61.585938 C 258.039062 61.585938 258.203125 61.746094 257.878906 62.070312 C 257.394531 62.875 256.75 63.847656 255.785156 65.300781 C 254.816406 66.753906 253.851562 68.042969 252.882812 69.335938 C 251.914062 70.628906 250.789062 71.757812 249.660156 72.890625 C 248.691406 73.859375 247.402344 74.503906 246.113281 74.503906 C 245.46875 74.667969 244.664062 74.34375 244.179688 73.699219 C 243.855469 73.050781 243.695312 72.40625 243.855469 71.757812 C 244.019531 70.789062 244.179688 69.820312 244.664062 69.015625 C 245.144531 68.042969 245.628906 66.914062 246.113281 65.945312 C 246.597656 64.976562 247.082031 64.007812 247.402344 63.199219 C 247.726562 62.554688 248.046875 61.90625 248.371094 61.101562 C 248.371094 60.777344 248.207031 60.777344 247.726562 60.777344 C 247.5625 60.777344 247.242188 60.777344 247.082031 60.9375 C 246.917969 61.101562 246.757812 61.261719 246.597656 61.421875 C 246.4375 61.585938 246.273438 61.746094 246.113281 61.90625 C 245.953125 62.070312 245.789062 62.230469 245.789062 62.390625 C 245.46875 62.875 244.984375 63.039062 244.5 63.039062 C 244.019531 63.039062 244.019531 62.714844 244.339844 62.390625 L 244.664062 61.90625 C 245.144531 61.101562 245.46875 60.132812 245.46875 59.324219 C 245.628906 58.515625 245.628906 57.871094 245.46875 57.0625 C 245.46875 56.902344 245.46875 56.738281 245.789062 56.738281 C 246.113281 56.578125 246.4375 56.578125 246.917969 56.417969 C 247.242188 56.417969 247.5625 56.417969 247.886719 56.417969 C 248.207031 56.417969 248.207031 56.578125 248.046875 56.738281 C 247.726562 57.386719 247.886719 58.03125 248.371094 58.679688 C 248.53125 58.839844 248.691406 58.839844 248.851562 58.839844 L 250.464844 58.839844 C 250.625 58.839844 250.625 58.839844 250.789062 58.839844 C 250.949219 58.839844 250.949219 59 250.949219 59 C 251.59375 59.96875 251.753906 60.453125 251.59375 60.9375 Z M 251.59375 60.9375 "/>
<path style=" stroke:none;fill-rule:nonzero;fill:rgb(100%,100%,100%);fill-opacity:1;" d="M 268.195312 63.523438 C 267.226562 64.652344 266.261719 65.785156 265.132812 66.914062 C 264.003906 68.042969 262.554688 69.015625 260.941406 69.660156 C 260.78125 70.144531 260.457031 70.789062 260.136719 71.273438 C 259.8125 71.757812 259.492188 72.242188 259.007812 72.726562 C 258.523438 73.210938 258.039062 73.699219 257.554688 74.183594 C 256.910156 74.667969 256.105469 74.988281 255.300781 75.152344 C 254.496094 75.472656 253.527344 75.3125 252.722656 74.828125 C 252.078125 74.503906 251.753906 73.859375 251.753906 73.210938 C 251.59375 72.566406 251.914062 71.757812 252.238281 71.273438 C 252.722656 70.628906 253.527344 69.984375 254.332031 69.820312 C 254.816406 69.660156 255.300781 69.5 255.785156 69.335938 L 257.234375 69.015625 C 257.554688 67.882812 257.71875 66.753906 257.878906 65.621094 C 258.039062 64.492188 258.039062 63.683594 258.203125 63.199219 C 258.203125 62.714844 258.363281 62.390625 258.363281 61.90625 C 258.363281 61.746094 258.203125 61.746094 257.71875 62.230469 L 257.554688 62.390625 L 257.394531 62.554688 C 257.074219 63.039062 256.589844 63.199219 256.105469 63.199219 C 255.621094 63.199219 255.621094 62.875 255.945312 62.390625 L 256.75 61.585938 L 256.75 61.421875 C 257.074219 60.9375 257.554688 60.292969 257.878906 59.648438 C 258.203125 59 258.523438 58.355469 258.683594 57.546875 C 258.683594 57.386719 259.007812 57.0625 259.328125 56.902344 C 259.8125 56.738281 260.136719 56.578125 260.617188 56.578125 C 260.941406 56.417969 261.425781 56.417969 261.746094 56.578125 L 261.910156 56.578125 C 262.070312 56.578125 262.070312 56.738281 262.070312 56.902344 L 262.070312 57.0625 C 261.910156 58.03125 261.746094 59 261.746094 59.96875 C 261.746094 60.9375 261.746094 62.070312 261.746094 63.039062 C 261.746094 63.847656 261.746094 64.492188 261.746094 65.136719 C 261.746094 65.785156 261.585938 66.589844 261.585938 67.238281 C 262.714844 66.589844 263.84375 65.785156 264.808594 64.976562 C 265.777344 64.007812 266.742188 62.875 267.710938 61.90625 C 268.03125 61.585938 268.355469 61.421875 268.839844 61.421875 C 269.324219 61.421875 269.484375 61.585938 269.160156 61.90625 Z M 254.332031 73.535156 C 254.976562 73.535156 255.460938 73.210938 255.785156 72.726562 C 256.265625 72.082031 256.589844 71.4375 256.75 70.789062 C 256.105469 70.953125 255.460938 71.113281 254.816406 71.4375 C 254.496094 71.597656 254.011719 71.921875 253.6875 72.082031 C 253.527344 72.242188 253.367188 72.40625 253.203125 72.726562 C 253.203125 72.890625 253.203125 72.890625 253.042969 73.050781 C 253.042969 73.210938 253.203125 73.210938 253.203125 73.375 C 253.527344 73.375 253.851562 73.535156 254.332031 73.535156 Z M 254.332031 73.535156 "/>
<path style=" stroke:none;fill-rule:nonzero;fill:rgb(90.980392%,29.411765%,38.039216%);fill-opacity:1;" d="M 30.300781 15.074219 L 20.308594 15.074219 C 17.246094 15.074219 14.988281 17.496094 14.988281 20.402344 L 14.988281 30.414062 C 14.988281 33.484375 17.40625 35.90625 20.308594 35.90625 L 30.300781 35.90625 C 33.363281 35.90625 35.621094 33.484375 35.621094 30.414062 L 35.621094 20.402344 C 35.78125 17.496094 33.363281 15.074219 30.300781 15.074219 Z M 30.300781 15.074219 "/>
<path style=" stroke:none;fill-rule:nonzero;fill:rgb(100%,76.078431%,5.098039%);fill-opacity:1;" d="M 66.726562 15.074219 L 49.640625 15.074219 C 48.675781 15.074219 47.867188 15.878906 47.867188 16.847656 L 47.867188 34.128906 C 47.867188 35.097656 48.675781 35.90625 49.640625 35.90625 L 66.886719 35.90625 C 67.855469 35.90625 68.660156 35.097656 68.660156 34.128906 L 68.660156 16.847656 C 68.660156 15.878906 67.855469 15.074219 66.726562 15.074219 Z M 66.726562 15.074219 "/>
<path style=" stroke:none;fill-rule:evenodd;fill:rgb(36.862745%,65.490196%,27.45098%);fill-opacity:1;" d="M 23.371094 48.339844 C 24.015625 47.210938 25.464844 46.886719 26.433594 47.535156 C 26.753906 47.695312 27.078125 48.019531 27.238281 48.339844 L 31.105469 55.125 L 34.976562 61.90625 C 35.621094 63.039062 35.296875 64.332031 34.167969 64.976562 C 33.847656 65.136719 33.523438 65.300781 33.039062 65.300781 L 17.40625 65.300781 C 16.117188 65.300781 15.148438 64.332031 15.148438 63.039062 C 15.148438 62.714844 15.3125 62.230469 15.472656 61.90625 L 19.339844 55.125 Z M 23.371094 48.339844 "/>
</g>
</svg>
