<?xml version="1.0" encoding="UTF-8" standalone="no" ?>
<!DOCTYPE svg PUBLIC "-//W3C//DTD SVG 1.1//EN" "http://www.w3.org/Graphics/SVG/1.1/DTD/svg11.dtd">
<svg xmlns="http://www.w3.org/2000/svg" xmlns:xlink="http://www.w3.org/1999/xlink" version="1.1" width="50" height="50" viewBox="-0.03 -1.99 50 50" xml:space="preserve">
<desc>Created with Fabric.js 4.2.0</desc>
<defs>
</defs>
<rect x="0" y="0" width="100%" height="100%" fill="transparent"></rect>
<g transform="matrix(0 0 0 0 0 0)" id="98d4c301-4647-43e6-b3e3-05ff7a452c48"  >
</g>
<g transform="matrix(1 0 0 1 25 25)" id="1843cb0b-18a9-4d93-adc7-8b2e60470b72"  >
<rect style="stroke: none; stroke-width: 1; stroke-dasharray: none; stroke-linecap: butt; stroke-dashoffset: 0; stroke-linejoin: miter; stroke-miterlimit: 4; fill: rgb(255,255,255); fill-rule: nonzero; opacity: 1;" vector-effect="non-scaling-stroke"  x="-25" y="-25" rx="0" ry="0" width="50" height="50" />
</g>
<g transform="matrix(0.28 0 0 0.28 25 24)"  >
<g style="" vector-effect="non-scaling-stroke"   >
		<g transform="matrix(1.6 0 0 1.6 -17.38 -16.27)" clip-path="url(#CLIPPATH_33)"  >
<clipPath id="CLIPPATH_33" >
	<path transform="matrix(1 0 0 1 0.49 0.08) translate(-36.5, -34.7)" d="M 0 0.402344 L 73 0.402344 L 73 69 L 0 69 Z M 0 0.402344" stroke-linecap="round" />
</clipPath>
<path style="stroke: none; stroke-width: 1; stroke-dasharray: none; stroke-linecap: butt; stroke-dashoffset: 0; stroke-linejoin: miter; stroke-miterlimit: 4; fill: rgb(25,35,53); fill-rule: nonzero; opacity: 1;" vector-effect="non-scaling-stroke"  transform=" translate(-36.01, -34.62)" d="M 4.511719 68.839844 C 2.578125 68.839844 0.964844 67.707031 0.320312 65.933594 C 0 65.449219 0 64.804688 0 64.15625 L 0 4.921875 C 0 3.632812 0.484375 2.5 1.289062 1.695312 C 2.09375 0.886719 3.382812 0.402344 4.511719 0.402344 L 67.332031 0.402344 C 67.976562 0.402344 68.621094 0.566406 69.101562 0.726562 C 71.519531 1.695312 72.644531 4.277344 71.679688 6.699219 C 71.195312 7.828125 70.230469 8.796875 69.101562 9.28125 C 68.457031 9.441406 67.976562 9.601562 67.332031 9.601562 L 9.179688 9.601562 L 9.179688 64.320312 C 9.179688 66.09375 8.054688 67.871094 6.28125 68.515625 C 5.796875 68.675781 5.15625 68.839844 4.511719 68.839844 Z M 4.511719 68.839844" stroke-linecap="round" />
</g>
		<g transform="matrix(1.6 0 0 1.6 20.57 20.01)"  >
<path style="stroke: none; stroke-width: 1; stroke-dasharray: none; stroke-linecap: butt; stroke-dashoffset: 0; stroke-linejoin: miter; stroke-miterlimit: 4; fill: rgb(25,35,53); fill-rule: nonzero; opacity: 1;" vector-effect="non-scaling-stroke"  transform=" translate(-59.73, -57.3)" d="M 89.074219 89.175781 L 30.28125 89.175781 C 28.992188 89.175781 27.867188 88.691406 27.0625 87.882812 C 25.289062 86.109375 25.289062 83.203125 26.898438 81.429688 C 27.382812 80.945312 27.867188 80.621094 28.511719 80.296875 C 29.15625 80.136719 29.636719 79.976562 30.28125 79.976562 L 84.566406 79.976562 L 84.566406 29.941406 C 84.566406 27.359375 86.660156 25.421875 89.238281 25.421875 C 91.652344 25.421875 93.585938 27.519531 93.746094 29.941406 L 93.746094 84.65625 C 93.746094 87.238281 91.652344 89.175781 89.074219 89.175781 Z M 89.074219 89.175781" stroke-linecap="round" />
</g>
		<g transform="matrix(1.6 0 0 1.6 20.55 47.94)"  >
<path style="stroke: none; stroke-width: 1; stroke-dasharray: none; stroke-linecap: butt; stroke-dashoffset: 0; stroke-linejoin: miter; stroke-miterlimit: 4; fill: rgb(25,35,53); fill-rule: nonzero; opacity: 1;" vector-effect="non-scaling-stroke"  transform=" translate(-59.72, -74.75)" d="M 59.761719 74.972656 C 59.921875 74.808594 59.921875 74.808594 59.761719 74.972656 L 59.921875 74.648438 C 59.921875 74.488281 59.761719 74.488281 59.597656 74.648438 L 59.761719 74.972656 C 59.4375 74.808594 59.4375 74.808594 59.761719 74.972656 C 59.597656 74.972656 59.597656 74.972656 59.761719 74.972656 Z M 59.761719 74.972656" stroke-linecap="round" />
</g>
		<g transform="matrix(1.6 0 0 1.6 14.3 16.01)"  >
<path style="stroke: none; stroke-width: 1; stroke-dasharray: none; stroke-linecap: butt; stroke-dashoffset: 0; stroke-linejoin: miter; stroke-miterlimit: 4; fill: rgb(25,35,53); fill-rule: nonzero; opacity: 1;" vector-effect="non-scaling-stroke"  transform=" translate(-55.81, -54.79)" d="M 46.390625 68.675781 C 43.8125 68.675781 41.878906 66.578125 41.878906 64.15625 L 41.878906 45.433594 C 41.878906 42.851562 43.972656 40.914062 46.390625 40.914062 L 65.238281 40.914062 C 67.8125 40.914062 69.746094 43.015625 69.746094 45.433594 C 69.746094 48.015625 67.652344 49.953125 65.238281 49.953125 L 50.902344 49.953125 L 50.902344 64.15625 C 50.902344 66.742188 48.804688 68.675781 46.390625 68.675781 Z M 46.390625 68.675781" stroke-linecap="round" />
</g>
		<g transform="matrix(1.6 0 0 1.6 22.55 23.34)"  >
<path style="stroke: none; stroke-width: 1; stroke-dasharray: none; stroke-linecap: butt; stroke-dashoffset: 0; stroke-linejoin: miter; stroke-miterlimit: 4; fill: rgb(25,35,53); fill-rule: nonzero; opacity: 1;" vector-effect="non-scaling-stroke"  transform=" translate(-60.97, -59.38)" d="M 73.128906 76.101562 C 71.839844 76.101562 70.714844 75.617188 69.90625 74.808594 L 45.585938 50.4375 C 43.8125 48.664062 43.8125 45.757812 45.585938 43.984375 C 47.355469 42.207031 50.257812 42.207031 52.027344 43.984375 L 76.351562 68.355469 C 78.121094 70.128906 78.121094 73.035156 76.351562 74.808594 C 76.191406 74.972656 75.867188 75.292969 75.707031 75.457031 C 74.902344 75.777344 74.097656 76.101562 73.128906 76.101562 Z M 73.128906 76.101562" stroke-linecap="round" />
</g>
		<g transform="matrix(1.6 0 0 1.6 -34.54 -30.99)"  >
<path style="stroke: none; stroke-width: 1; stroke-dasharray: none; stroke-linecap: butt; stroke-dashoffset: 0; stroke-linejoin: miter; stroke-miterlimit: 4; fill: rgb(229,73,96); fill-rule: nonzero; opacity: 1;" vector-effect="non-scaling-stroke"  transform=" translate(-25.29, -25.42)" d="M 30.28125 15.089844 L 20.296875 15.089844 C 17.394531 15.089844 14.980469 17.511719 14.980469 20.417969 L 14.980469 30.425781 C 14.980469 33.328125 17.394531 35.75 20.296875 35.75 L 30.28125 35.75 C 33.183594 35.75 35.597656 33.328125 35.597656 30.425781 L 35.597656 20.417969 C 35.597656 17.511719 33.183594 15.089844 30.28125 15.089844 Z M 30.28125 15.089844" stroke-linecap="round" />
</g>
		<g transform="matrix(1.6 0 0 1.6 18.18 -30.99)"  >
<path style="stroke: none; stroke-width: 1; stroke-dasharray: none; stroke-linecap: butt; stroke-dashoffset: 0; stroke-linejoin: miter; stroke-miterlimit: 4; fill: rgb(255,193,12); fill-rule: nonzero; opacity: 1;" vector-effect="non-scaling-stroke"  transform=" translate(-58.23, -25.42)" d="M 66.6875 15.089844 L 49.613281 15.089844 C 48.644531 15.089844 47.839844 15.898438 47.839844 16.867188 L 47.839844 33.976562 C 47.839844 34.945312 48.644531 35.75 49.613281 35.75 L 66.847656 35.75 C 67.8125 35.75 68.621094 34.945312 68.621094 33.976562 L 68.621094 17.027344 C 68.621094 15.898438 67.8125 15.089844 66.6875 15.089844 Z M 66.6875 15.089844" stroke-linecap="round" />
</g>
		<g transform="matrix(1.6 0 0 1.6 -34.66 18.33)"  >
<path style="stroke: none; stroke-width: 1; stroke-dasharray: none; stroke-linecap: butt; stroke-dashoffset: 0; stroke-linejoin: miter; stroke-miterlimit: 4; fill: rgb(91,165,68); fill-rule: evenodd; opacity: 1;" vector-effect="non-scaling-stroke"  transform=" translate(-25.21, -56.25)" d="M 23.355469 48.339844 C 24 47.210938 25.289062 46.886719 26.417969 47.535156 C 26.738281 47.695312 27.0625 48.015625 27.222656 48.339844 L 31.089844 55.121094 L 34.953125 61.898438 C 35.597656 63.027344 35.277344 64.320312 34.148438 64.964844 C 33.828125 65.125 33.34375 65.289062 33.019531 65.289062 L 17.394531 65.289062 C 16.109375 65.289062 15.140625 64.320312 15.140625 63.027344 C 15.140625 62.707031 15.300781 62.222656 15.464844 61.898438 L 19.328125 55.121094 Z M 23.355469 48.339844" stroke-linecap="round" />
</g>
</g>
</g>
</svg>